<svg width="21" height="15" fill="none" xmlns="http://www.w3.org/2000/svg"><path d="M19.25 0H1.75C.785 0 0 .728 0 1.623v11.359c0 .895.785 1.623 1.75 1.623h17.5c.965 0 1.75-.728 1.75-1.623V1.622C21 .729 20.215 0 19.25 0zM1.75.811h17.5c.064 0 .121.022.182.034a2292.085 2292.085 0 01-8.297 7.017c-.138.115-.36.252-.635.252s-.497-.137-.635-.253C8.107 6.393 3.083 2.131 1.568.846c.06-.013.117-.035.182-.035zm-.875 12.17V1.624c0-.08.026-.152.049-.224 1.16.984 4.665 3.957 6.938 5.874-2.266 1.804-5.772 4.887-6.94 5.92-.021-.069-.047-.136-.047-.211zm18.375.812H1.75c-.07 0-.132-.022-.197-.037C2.76 12.69 6.289 9.588 8.515 7.823l.764.641c.36.302.783.461 1.221.461.438 0 .86-.16 1.22-.46l.765-.642c2.226 1.765 5.754 4.865 6.962 5.933-.065.015-.127.037-.197.037zm.875-.811c0 .075-.026.142-.046.211-1.17-1.034-4.675-4.116-6.94-5.92 2.272-1.917 5.777-4.89 6.937-5.875.023.073.049.145.049.225v11.359z" fill="#8151FF"/></svg>