<svg width="27" height="27" fill="none" xmlns="http://www.w3.org/2000/svg"><g clip-path="url(#clip0)"><path d="M.708 20.83l5.465-3.644a1.595 1.595 0 012.136.347l1.592 2.047a.68.68 0 00.873.184l.302-.167c1.004-.548 2.253-1.229 4.77-3.746 2.516-2.518 3.199-3.767 3.746-4.77l.166-.302a.681.681 0 00-.18-.876l-2.046-1.591a1.596 1.596 0 01-.347-2.136L20.83.711A1.587 1.587 0 0122.968.23l2.286 1.372a3.224 3.224 0 011.47 1.908c.823 2.998.203 8.173-7.42 15.797C13.242 25.37 8.728 27 5.625 27a7.973 7.973 0 01-2.115-.277 3.22 3.22 0 01-1.907-1.47L.227 22.971a1.587 1.587 0 01.481-2.14zm.295 1.679l1.37 2.285c.304.519.795.9 1.373 1.064 2.768.76 7.604.13 14.922-7.188 7.318-7.318 7.948-12.153 7.188-14.922a2.329 2.329 0 00-1.065-1.374l-2.286-1.37a.688.688 0 00-.928.208l-1.98 2.972-1.661 2.492a.693.693 0 00.15.927l2.046 1.592c.623.476.8 1.337.417 2.02l-.162.296c-.575 1.055-1.29 2.367-3.9 4.976-2.61 2.61-3.922 3.325-4.976 3.9l-.296.162a1.575 1.575 0 01-2.02-.416l-1.592-2.046a.693.693 0 00-.927-.15L1.21 21.58a.688.688 0 00-.208.928z" fill="#fff"/></g><defs><clipPath id="clip0"><path fill="#fff" transform="matrix(-1 0 0 1 27 0)" d="M0 0h27v27H0z"/></clipPath></defs></svg>