<?xml version="1.0" encoding="utf-8"?><svg viewBox="0 0 192 108" xmlns="http://www.w3.org/2000/svg" xmlns:xlink="http://www.w3.org/1999/xlink"><style>:root>svg{display:none}:root>svg:target{display:block}</style><svg fill="none" viewBox="0 0 95 95" id="coin" xmlns="http://www.w3.org/2000/svg"><path d="M91.524 67.638l-6.53-2.412-1.562-3.162-7.416-2.74-11.503 4.92-3.745-3.745H29.965l-7.017 4.38h-2.42v2.781h1.428v7.329h2.783V67.04l6.023-3.759h28.853l4.877 4.878-.19 5.414H53.583L53 73.5h-1l-1.198.073H40.143v2.783h24.29c4.525-1.957.748-.337 19.759-8.46l5.328 1.968 1.684 3.407-11.92 5.1-.784.13-1 .5-.778.467L47.662 91.9l-24.126-6.677h-3.008v2.782h2.63l24.701 6.837L95 74.673l-3.476-7.035zm-24.249 4.46v-5.092l-.643-.643 9.46-4.045 5.336 1.972.716 1.448-14.869 6.36z" fill="url(#apaint0_linear)"/><path d="M0 78.6h2.782V60.466h10.79v29.45H2.782v-8.534H0V92.7h16.354V57.683H0V78.6z" fill="url(#apaint1_linear)"/><path d="M47.41 11.288c-9.59 0-17.39 7.802-17.39 17.39 0 9.59 7.8 17.392 17.39 17.392S64.8 38.268 64.8 28.679c0-9.59-7.8-17.39-17.39-17.39zm0 32c-8.055 0-14.608-6.554-14.608-14.609s6.553-14.608 14.608-14.608 14.61 6.552 14.61 14.607-6.555 14.61-14.61 14.61z" fill="url(#apaint2_linear)"/><path d="M47.41 57.2c15.639 0 28.276-12.543 28.517-28.076.115-7.432-2.615-14.508-7.687-19.925L66.21 11.1c9.464 10.11 9.239 25.938-.601 35.779-10.057 10.058-26.338 10.06-36.398 0-10.059-10.06-10.06-26.339 0-36.399C38.805.886 54.16.411 64.309 9.267l1.83-2.097C54.895-2.64 37.882-2.127 27.242 8.513c-11.12 11.12-11.12 29.213 0 40.333 5.387 5.386 12.55 8.353 20.168 8.353z" fill="url(#apaint3_linear)"/><path d="M48.801 17.63H46.02v2.765h-3.446v9.675h6.892v4.11h-6.892v2.783h3.446v2.764h2.782v-2.764h3.447v-9.675h-6.893v-4.11h6.893v-2.783H48.8v-2.764z" fill="url(#apaint4_linear)"/><defs><linearGradient id="apaint0_linear" x1="57.764" y1="59.324" x2="57.764" y2="94.843" gradientUnits="userSpaceOnUse"><stop stop-color="#8151FF"/><stop offset="1" stop-color="#DF26FD"/></linearGradient><linearGradient id="apaint1_linear" x1="8.177" y1="57.683" x2="8.177" y2="92.699" gradientUnits="userSpaceOnUse"><stop stop-color="#8151FF"/><stop offset="1" stop-color="#DF26FD"/></linearGradient><linearGradient id="apaint2_linear" x1="47.41" y1="11.288" x2="47.41" y2="46.07" gradientUnits="userSpaceOnUse"><stop stop-color="#8151FF"/><stop offset="1" stop-color="#DF26FD"/></linearGradient><linearGradient id="apaint3_linear" x1="47.417" y1=".157" x2="47.417" y2="57.199" gradientUnits="userSpaceOnUse"><stop stop-color="#8151FF"/><stop offset="1" stop-color="#DF26FD"/></linearGradient><linearGradient id="apaint4_linear" x1="47.41" y1="17.631" x2="47.41" y2="39.727" gradientUnits="userSpaceOnUse"><stop stop-color="#8151FF"/><stop offset="1" stop-color="#DF26FD"/></linearGradient></defs></svg><svg fill="none" viewBox="0 0 192 82" id="connect" xmlns="http://www.w3.org/2000/svg"><path d="M147.569 8.817l-7.526-2.426c-3.061-.987-6.014.277-6.595 2.825L130.967 20.1c-.581 2.547 1.429 5.413 4.49 6.4h.002l.901.29c3.657 1.187 6.316 4.35 6.361 7.567.05 4.909-1.291 9.533-3.906 13.468l-.49.738c-1.579 2.401-5.001 3.292-8.395 2.184-3.061-.987-6.014.277-6.595 2.824l-.001.002-2.481 10.881c-.578 2.548 1.432 5.41 4.492 6.4l7.527 2.427c3.224 1.049 6.565.985 9.28-.176a9.532 9.532 0 002.901-1.916c13.843-13.54 18.337-33.245 12.144-53.245-1.267-4.11-5.002-7.649-9.628-9.126zm-14.387 11.996l2.481-10.882c.292-1.254 1.563-2.02 3.095-1.866l-3.698 16.218c-1.388-.788-2.159-2.212-1.878-3.47zm-10.113 44.355l.004.004 2.481-10.882c.282-1.26 1.558-2.03 3.095-1.866l-3.701 16.213c-1.388-.787-2.159-2.212-1.879-3.47zm31.957-47.04c6.004 19.38 1.651 38.476-11.761 51.597-2.325 2.277-6.191 2.941-9.971 1.713l-6.152-1.986 3.762-16.502c3.934.804 7.624-.438 9.423-3.174l.491-.737c2.785-4.192 4.212-9.116 4.157-14.344-.058-3.989-3.238-7.933-7.724-9.58l3.747-16.436 6.15 1.983c3.786 1.208 6.841 4.104 7.878 7.466z" fill="url(#bpaint0_linear)"/><path d="M36.73 12.692l7.167-3.43c2.915-1.394 5.983-.559 6.852 1.867v.001l3.709 10.364c.868 2.426-.791 5.524-3.706 6.919h-.002l-.858.412c-3.482 1.673-5.748 5.153-5.422 8.325.515 4.837 2.375 9.2 5.416 12.711l.57.658c1.84 2.144 5.328 2.547 8.559.987 2.915-1.395 5.983-.56 6.852 1.866v.001l3.71 10.363c.864 2.427-.794 5.523-3.708 6.92l-7.169 3.43c-3.07 1.478-6.383 1.878-9.204 1.112a9.246 9.246 0 01-3.09-1.484c-15.26-11.406-21.978-30.174-18.154-50.71.782-4.219 4.069-8.218 8.477-10.312zm15.618 9.812l-3.709-10.365c-.433-1.193-1.779-1.771-3.277-1.407l5.527 15.445c1.283-.967 1.882-2.475 1.459-3.673zm15.117 42.242l-.002.005-3.71-10.364c-.424-1.201-1.775-1.782-3.277-1.408l5.53 15.441c1.283-.967 1.882-2.475 1.46-3.674zm-37.042-41.86c-3.708 19.9 2.8 38.087 17.584 49.14 2.562 1.92 6.464 2.038 10.063.305l5.86-2.805-5.625-15.717c-3.8 1.337-7.594.625-9.69-1.818l-.57-.657c-3.24-3.74-5.22-8.387-5.767-13.539-.402-3.933 2.29-8.253 6.54-10.496l-5.602-15.653-5.858 2.802c-3.606 1.714-6.296 4.986-6.935 8.438z" fill="url(#bpaint1_linear)"/><path d="M119.446 41.83l.679.733.757-.7-.723-.735-.713.701zm-4.496-6a1 1 0 10-1.426 1.403l1.426-1.403zm-29.075 7h33.571v-2h-33.57v2zm34.284-1.702l-5.209-5.298-1.426 1.403 5.209 5.297 1.426-1.402zm-5.243 6.252l5.209-4.817-1.358-1.468-5.209 4.816 1.358 1.468zM67.353 28.344l-.678.734-.758-.7.724-.735.712.7zm4.497-6a1 1 0 011.426 1.403l-1.426-1.402zm29.074 7h-33.57v-2h33.57v2zM66.64 27.643l5.21-5.298 1.426 1.402-5.21 5.298-1.425-1.402zm5.244 6.251l-5.21-4.816 1.358-1.468 5.21 4.816-1.358 1.468z" fill="#8151FF"/><defs><linearGradient id="bpaint0_linear" x1="119.133" y1="13.625" x2="144.234" y2="72.213" gradientUnits="userSpaceOnUse"><stop stop-color="#8151FF"/><stop offset="1" stop-color="#E818EC"/></linearGradient><linearGradient id="bpaint1_linear" x1="65.422" y1="13.486" x2="48.666" y2="74.972" gradientUnits="userSpaceOnUse"><stop stop-color="#8151FF"/><stop offset="1" stop-color="#E818EC"/></linearGradient></defs></svg><svg fill="none" viewBox="0 0 80 80" id="location" xmlns="http://www.w3.org/2000/svg"><g clip-path="url(#cclip0)"><path d="M79.866 37.04c.047-.124.073-.255.08-.389 0-.14-.024-.28-.067-.415l-.103-.29a39.925 39.925 0 00-14.537-26.88c-.588-.478-1.202-.91-1.816-1.354-.03-.025-.047-.061-.08-.085-.033-.024-.06-.022-.088-.04A40.123 40.123 0 0039.953.076c-.344 0-.69 0-.948.027-4.46.086-8.87.935-13.044 2.51a12 12 0 00-19.38 9.477c.08 1.527.434 3.026 1.048 4.425a40.136 40.136 0 00-3.585 5.906c-.02.032-.031.067-.05.1-9.463 19.569-1.588 43.115 17.745 53.053 19.332 9.938 43.063 2.638 53.469-16.447a39.423 39.423 0 004.736-17.047c.042-.644.056-1.3.056-1.957 0-1.035-.053-2.06-.134-3.081zm-3.879-6.85c-.17-.15-.325-.324-.503-.463a17.592 17.592 0 00-5.828-2.911 12.546 12.546 0 00-5.853-.061 11.54 11.54 0 01-4.987.024c-3.191-.696-5.713-1.246-7.05-3.382-1.916-3.07-1.018-7.386 1.004-8.905a3.046 3.046 0 012.283-.487 8.533 8.533 0 004.139-.697 10.726 10.726 0 003.604-2.745c.252.195.519.37.766.572A37.325 37.325 0 0175.987 30.19zM18.595 2.745a9.36 9.36 0 019.344 9.344c0 3.993-5.997 13.135-9.344 17.769a83.898 83.898 0 01-8.235-13.684 11.126 11.126 0 01-1.11-4.085 9.355 9.355 0 019.345-9.344zM2.575 40.122c.006-2.487.257-4.969.75-7.407.143 1.855.384 3.506.6 4.938.828 5.474 1.61 10.633 5.644 15.352 1.686 1.988 4.511 5.311 8.879 5.803 4.368.491 9.837-2.021 11.417-2.804l.606-.305a5.872 5.872 0 012.79-.893 6.584 6.584 0 014.367 2.23c2.278 2.522 2.856 6.733 1.237 9.01a4.1 4.1 0 01-2.05 1.426 6.236 6.236 0 00-3.348 2.67 8.243 8.243 0 00-.577 6.674C15.31 73.409 2.603 58.029 2.576 40.122zm37.378 37.377c-1.29 0-2.579-.066-3.862-.199a4.717 4.717 0 01-.304-.438 5.68 5.68 0 01-.026-5.355 3.683 3.683 0 012.096-1.577 6.652 6.652 0 003.184-2.337c2.322-3.265 1.665-8.921-1.428-12.343a9.168 9.168 0 00-6.323-3.114h-.06a8.09 8.09 0 00-3.976 1.184l-.57.288c-2.917 1.438-7.067 2.86-9.94 2.537-3.314-.371-5.617-3.084-7.144-4.88-3.54-4.139-4.233-8.718-5.034-14.017a38.384 38.384 0 01-.101-13.73 37.443 37.443 0 012.418-4.191c.045.088.094.179.134.267.085.17.173.338.267.507l.4.759a50.98 50.98 0 00.709 1.274c.096.168.192.337.29.505a145.015 145.015 0 00.743 1.252c.158.267.317.517.476.774l.267.438c.197.317.393.624.59.935l.155.243c.244.379.486.748.724 1.109.091.133.179.267.268.4.146.22.293.441.436.652l.316.463c.115.17.231.339.343.5l.32.46.293.419c.095.134.201.287.3.425.099.137.166.233.245.344l.267.368.217.302.213.292.173.235.163.222.097.133.235.316a1.333 1.333 0 002.136 0c1.12-1.485 10.949-14.662 10.949-20.832 0-.39-.024-.777-.062-1.162-.011-.118-.03-.237-.045-.355a9.734 9.734 0 00-.133-.801 12.12 12.12 0 00-.298-1.188c-.033-.108-.061-.216-.096-.32-.12-.359-.255-.712-.409-1.057a3.854 3.854 0 00-.095-.193 12.82 12.82 0 00-.42-.821c-.066-.12-.14-.236-.212-.354a14.86 14.86 0 00-.4-.622 14.657 14.657 0 00-.254-.354c-.046-.059-.084-.121-.134-.179a36.453 36.453 0 018.579-1.778c-2.082 3.929-2.762 7.562-1.985 10.813a13.917 13.917 0 003.205 5.84c1.256 1.555 2.16 2.676 2.103 4.507-.115 3.87-4.486 7.093-6.14 8.31a22.986 22.986 0 01-7.169 3.463c-2.424.792-4.516 1.475-5.316 3.862a7.61 7.61 0 003.233 8.231 6.743 6.743 0 005.319.47 16.418 16.418 0 015.891-.282c2.536.36 4.723.668 5.76 2.12.615.868.583 1.765.464 3.41a16.171 16.171 0 00.692 6.918c.608 1.826 1.528 4.584 3.738 4.902.143.023.289.035.433.035 1.564 0 2.52-1.38 3.527-2.833a26.12 26.12 0 011.522-2.03c2.748 4.438 5.539 8.143 5.668 8.319a1.335 1.335 0 002.136 0 110.972 110.972 0 007.901-12.166 17.543 17.543 0 014.636 2.113 37.317 37.317 0 01-32.295 18.592zm24.916-36.326a9.32 9.32 0 013.117 6.958c0 .96-.39 2.864-2.241 6.478a99.493 99.493 0 01-7.103 11.286c-1.257-1.75-3.418-4.857-5.352-8.122a49.365 49.365 0 01-2.883-5.557 11.125 11.125 0 01-1.11-4.085 9.355 9.355 0 0110.204-9.305 9.261 9.261 0 015.368 2.347zm12.414.769a36.775 36.775 0 01-3.759 14.61 20.304 20.304 0 00-4.688-2.184 15.813 15.813 0 001.82-6.237 12.064 12.064 0 00-6.724-10.788l-.085-.038a13.034 13.034 0 00-.91-.4c-.213-.083-.433-.147-.651-.216-.134-.04-.254-.09-.383-.134a11.672 11.672 0 00-1.047-.243h-.017c-.213-.04-.43-.061-.646-.09a11.93 11.93 0 00-13.566 11.91 13.753 13.753 0 001.322 5.13 49.233 49.233 0 002.529 4.972 24.606 24.606 0 00-2.286 2.915 6.95 6.95 0 01-1.373 1.681c-.268-.04-.763-.61-1.603-3.108a13.696 13.696 0 01-.562-5.881 7.14 7.14 0 00-.952-5.152c-1.705-2.383-4.68-2.803-7.576-3.214a18.811 18.811 0 00-6.752.303c-1.707.327-2.5.449-3.407-.116a5.06 5.06 0 01-2.109-5.117c.357-1.068 1.425-1.454 3.604-2.17a25.624 25.624 0 007.931-3.853c1.945-1.427 7.075-5.213 7.23-10.378.085-2.827-1.329-4.57-2.695-6.256a11.546 11.546 0 01-2.68-4.772c-.71-2.974.169-6.462 2.552-10.371h.153A37.467 37.467 0 0160.611 8.99a8.02 8.02 0 01-2.52 1.883 5.976 5.976 0 01-2.957.463 5.599 5.599 0 00-3.968 1.02c-3.027 2.279-4.383 8.09-1.663 12.454 1.937 3.093 5.245 3.813 8.857 4.6 1.944.411 3.954.403 5.895-.025a10.07 10.07 0 014.737.015 14.873 14.873 0 014.846 2.426 10.93 10.93 0 013.315 4.733c.11 1.18.177 2.362.177 3.563 0 .597-.012 1.201-.052 1.82h.005z" fill="url(#cpaint0_linear)"/><path d="M18.595 16.094a5.34 5.34 0 100-10.68 5.34 5.34 0 000 10.68zm0-8.01a2.67 2.67 0 110 5.34 2.67 2.67 0 010-5.34z" fill="url(#cpaint1_linear)"/><path d="M53.302 46.796a5.34 5.34 0 1010.679 0 5.34 5.34 0 00-10.679 0zm8.01 0a2.67 2.67 0 11-5.34 0 2.67 2.67 0 015.34 0z" fill="url(#cpaint2_linear)"/></g><defs><linearGradient id="cpaint0_linear" x1="39.996" y1=".073" x2="39.996" y2="80.01" gradientUnits="userSpaceOnUse"><stop offset=".167" stop-color="#8151FF"/><stop offset="1" stop-color="#F12FF5"/></linearGradient><linearGradient id="cpaint1_linear" x1="18.595" y1="5.415" x2="18.595" y2="16.094" gradientUnits="userSpaceOnUse"><stop offset=".167" stop-color="#8151FF"/><stop offset="1" stop-color="#F12FF5"/></linearGradient><linearGradient id="cpaint2_linear" x1="58.642" y1="41.457" x2="58.642" y2="52.136" gradientUnits="userSpaceOnUse"><stop offset=".167" stop-color="#8151FF"/><stop offset="1" stop-color="#F12FF5"/></linearGradient><clipPath id="cclip0"><path fill="#fff" d="M0 0h80v80H0z"/></clipPath></defs></svg><svg fill="none" viewBox="0 0 104 108" id="money" xmlns="http://www.w3.org/2000/svg"><g clip-path="url(#dclip0)"><path d="M103.989 63.047l-.764-15.544a6.725 6.725 0 00-1.699-4.158 6.251 6.251 0 00-3.88-2.045c-2.252-.28-4.399.71-5.731 2.457-2.917-.045-5.532 2.006-6.245 5.002l-.033.129c-2.598.289-4.84 2.242-5.49 4.963l-3.565 13.926-2.173 1.755.952-5.986c.056-.359.085-.719.085-1.07 0-2.214-1.063-4.267-2.844-5.49-2.88-1.978-6.692-1.23-8.68 1.703l-.725 1.07c-3.388 5-5.584 10.848-6.35 16.911l-1.169 9.247-2.496 11.78c-.175.825.305 1.647 1.09 1.867l25.016 7.005a1.486 1.486 0 001.187-.174c.356-.225.608-.591.698-1.013l2.439-11.507 6.567-8.81a1.623 1.623 0 00-.272-2.22 1.486 1.486 0 00-2.138.283l-6.157 8.26-22.747-6.37 1.003-7.936c.702-5.558 2.715-10.918 5.821-15.502l.725-1.07c1.032-1.523 3.012-1.912 4.507-.885a3.447 3.447 0 011.478 2.85c0 .183-.015.372-.044.559l-1.587 9.97a1.604 1.604 0 00.724 1.618c.539.334 1.22.29 1.714-.11L90.08 60.883a1.59 1.59 0 00.544-.872l3.066-12.986c.395-1.678 1.94-2.79 3.595-2.582.77.094 1.484.47 2.014 1.061.53.588.843 1.357.884 2.163l.763 15.541a5.84 5.84 0 01-1.141 3.775l-8.306 11.142a1.623 1.623 0 00.272 2.22 1.486 1.486 0 002.137-.283l8.306-11.141a9.098 9.098 0 001.775-5.874zM78.54 103.083l-22.07-6.18 1.856-8.758 22.07 6.18-1.856 8.758zm4.555-48.433l.007-.03a3.406 3.406 0 011.627-2.185L81.902 63.48l-1.346 1.087 2.539-9.917zm4.696 4.073l-1.915 1.547 2.742-10.712.008-.03a3.382 3.382 0 011.883-2.32l-2.718 11.515z" fill="url(#dpaint0_linear)"/><path d="M48.32 85.912l-1.167-9.241c-.766-6.063-2.962-11.91-6.351-16.912l-.726-1.07c-1.987-2.933-5.8-3.68-8.68-1.704-2.082 1.43-3.165 4.007-2.758 6.565l.952 5.982-2.172-1.754-3.566-13.927c-.65-2.721-2.89-4.674-5.49-4.963l-.032-.13c-.714-2.998-3.334-5.05-6.246-5.002-1.333-1.747-3.479-2.736-5.73-2.457-3.075.384-5.421 2.993-5.58 6.205L.012 63.046a9.097 9.097 0 001.774 5.874l18.603 24.958 2.438 11.504c.09.422.342.788.698 1.013a1.486 1.486 0 001.187.175l25.015-7.005c.786-.22 1.266-1.043 1.092-1.868L48.32 85.912zM20.897 54.621l.007.03 2.54 9.917-1.346-1.086-2.827-11.046a3.406 3.406 0 011.626 2.185zm-5.523-5.094l.007.03 2.743 10.715-1.916-1.548-2.717-11.516a3.387 3.387 0 011.883 2.319zm-12.32 13.68l.764-15.542c.082-1.669 1.3-3.025 2.899-3.224.132-.016.263-.024.394-.024 1.498 0 2.835 1.063 3.2 2.608l3.064 12.987c.082.346.274.653.544.872l16.873 13.628c.495.4 1.175.444 1.714.111.54-.333.827-.975.725-1.618l-1.587-9.97c-.211-1.33.351-2.667 1.433-3.41 1.496-1.027 3.476-.638 4.508.884l.725 1.071c3.106 4.584 5.12 9.945 5.821 15.502l1.003 7.937-5.282 1.478-17.467 4.891-18.19-24.405a5.849 5.849 0 01-1.141-3.776zm22.405 39.876l-1.856-8.758 22.07-6.18 1.856 8.758-22.07 6.18z" fill="url(#dpaint1_linear)"/><path d="M46.768 17.89c0 .113.005.227.014.34l.378 5.079c.195 2.622 2.333 4.658 4.865 4.635l.453-.004c2.532-.023 4.635-2.098 4.787-4.724l.293-5.085a5.155 5.155 0 00-1.322-3.76 4.768 4.768 0 00-3.55-1.563l-1.123.01a4.776 4.776 0 00-3.522 1.628 5.154 5.154 0 00-1.273 3.444zm5.95-1.335c.344-.003.664.138.901.397a1.288 1.288 0 01.336.956l-.293 5.084c-.038.668-.572 1.195-1.216 1.2l-.452.005c-.644.006-1.187-.511-1.236-1.178l-.378-5.078a1.295 1.295 0 01.32-.962c.232-.263.55-.41.894-.413l1.124-.01z" fill="url(#dpaint2_linear)"/><path d="M38.866 31.734c2.182-1.335 3.004-4.223 1.87-6.576l-2.194-4.555c-.597-1.24-1.675-2.178-2.956-2.57a4.697 4.697 0 00-3.826.489l-.968.592a5.036 5.036 0 00-2.267 3.238 5.19 5.19 0 00-.114 1.13c.008.992.299 1.972.846 2.8l2.773 4.203c1.432 2.17 4.263 2.823 6.446 1.488l.39-.239zm-3.86-3.368l-2.772-4.202a1.303 1.303 0 01-.186-.998c.074-.35.28-.642.576-.823l.968-.592c.296-.182.641-.226.972-.124.33.1.597.333.75.653l2.196 4.555c.085.178.127.369.129.557.003.443-.216.876-.605 1.114l-.39.238a1.205 1.205 0 01-1.637-.378z" fill="url(#dpaint3_linear)"/><path d="M65.836 20.355L63.72 24.95a5.143 5.143 0 00-.471 2.199c.015 1.745.905 3.432 2.452 4.341l.394.232c2.205 1.295 5.025.59 6.42-1.606l2.701-4.251a5.203 5.203 0 00.666-3.944c-.313-1.348-1.159-2.513-2.322-3.196l-.977-.574a4.694 4.694 0 00-3.834-.42c-1.274.416-2.335 1.372-2.912 2.623zm4.97 1.057l.977.575c.3.176.51.464.59.812a1.3 1.3 0 01-.169 1.002l-2.702 4.251a1.206 1.206 0 01-1.63.408l-.394-.231c-.56-.33-.782-1.06-.504-1.662l2.117-4.595a1.23 1.23 0 01.74-.667c.329-.107.675-.07.974.107z" fill="url(#dpaint4_linear)"/></g><defs><linearGradient id="dpaint0_linear" x1="78.573" y1="41.253" x2="78.573" y2="106.624" gradientUnits="userSpaceOnUse"><stop stop-color="#8151FF"/><stop offset="1" stop-color="#D821EF"/></linearGradient><linearGradient id="dpaint1_linear" x1="25.427" y1="41.252" x2="25.427" y2="106.624" gradientUnits="userSpaceOnUse"><stop stop-color="#8151FF"/><stop offset="1" stop-color="#D821EF"/></linearGradient><linearGradient id="dpaint2_linear" x1="57.587" y1="20.328" x2="46.789" y2="20.418" gradientUnits="userSpaceOnUse"><stop stop-color="#8151FF"/><stop offset="1" stop-color="#D821EF"/></linearGradient><linearGradient id="dpaint3_linear" x1="41.226" y1="25.191" x2="28.426" y2="25.299" gradientUnits="userSpaceOnUse"><stop stop-color="#8151FF"/><stop offset="1" stop-color="#D821EF"/></linearGradient><linearGradient id="dpaint4_linear" x1="76.029" y1="24.874" x2="63.23" y2="24.982" gradientUnits="userSpaceOnUse"><stop stop-color="#8151FF"/><stop offset="1" stop-color="#D821EF"/></linearGradient><clipPath id="dclip0"><path fill="#fff" d="M0 0h104v108H0z"/></clipPath></defs></svg><svg fill="none" viewBox="0 0 92 92" id="piggy_bank" xmlns="http://www.w3.org/2000/svg"><g clip-path="url(#eclip0)"><path d="M19.055 47.435a1.348 1.348 0 101.906 1.906 3.112 3.112 0 014.396 0 1.343 1.343 0 001.906 0 1.348 1.348 0 000-1.906 5.81 5.81 0 00-8.208 0z" fill="url(#epaint0_linear)"/><path d="M53.895 49.341a3.112 3.112 0 014.397 0 1.344 1.344 0 001.905 0 1.348 1.348 0 000-1.906 5.81 5.81 0 00-8.208 0 1.348 1.348 0 101.906 1.906z" fill="url(#epaint1_linear)"/><path d="M39.626 48.829c-8.915 0-16.168 6.61-16.168 14.733 0 3.927 1.724 7.06 4.984 9.06 2.736 1.68 6.603 2.567 11.184 2.567 4.581 0 8.449-.888 11.184-2.566 3.26-2 4.984-5.134 4.984-9.06 0-8.125-7.253-14.734-16.168-14.734zm0 23.664c-5.031 0-13.472-1.16-13.472-8.93 0-6.638 6.043-12.039 13.472-12.039 7.429 0 13.473 5.4 13.473 12.038 0 7.771-8.441 8.931-13.473 8.931z" fill="url(#epaint2_linear)"/><path d="M92 21.943c0-4.75-1.496-9.27-4.326-13.072a1.348 1.348 0 00-2.162 1.61 19.055 19.055 0 013.793 11.462c0 10.6-8.625 19.225-19.225 19.225-10.6 0-19.224-8.624-19.224-19.225 0-10.6 8.624-19.223 19.224-19.223 4.377 0 8.5 1.433 11.923 4.143a1.348 1.348 0 001.673-2.112C79.772 1.659 75.071.025 70.08.025c-11.158 0-20.395 8.38-21.748 19.177a32.379 32.379 0 00-3.669-.266c-.52-.008-1.041-.015-1.562-.018a1.347 1.347 0 00-1.357 1.347v4.31h-4.236v-4.31a1.348 1.348 0 00-1.357-1.347c-.52.004-1.041.01-1.563.018a31.893 31.893 0 00-15.504 4.278c-3.746-3.542-8.003-4.522-11.128-4.672-3.958-.19-6.942.87-7.067.915A1.35 1.35 0 000 20.725a28.99 28.99 0 005.75 17.429A31.724 31.724 0 003.1 50.79c-.02 4.954.111 9.957.389 14.872.097 1.716.416 3.41.95 5.036a1.348 1.348 0 002.56-.84 17.011 17.011 0 01-.819-4.348c-.274-4.86-.404-9.81-.384-14.709a29.076 29.076 0 011.909-10.303c.767.818 1.3 1.27 1.385 1.341a1.346 1.346 0 001.895-.171 1.35 1.35 0 00-.167-1.898c-.08-.066-7.677-6.58-8.104-18.037a18.164 18.164 0 015.209-.494c4.502.242 8.204 2.197 11.004 5.81a1.348 1.348 0 002.13-1.652c-.036-.046-.073-.09-.109-.137a29.202 29.202 0 0113.679-3.63c.062 0 .124 0 .186-.002v4.294c0 .744.603 1.348 1.348 1.348h6.93c.745 0 1.349-.604 1.349-1.348v-4.294l.184.003a29.69 29.69 0 013.538.265v.047c0 12.087 9.832 21.92 21.918 21.92.839 0 1.666-.049 2.482-.141.582 2.302.884 4.678.894 7.079a246 246 0 01-.384 14.709 17.044 17.044 0 01-16.17 16.087 338.626 338.626 0 01-34.553 0c-5.292-.27-10.075-2.922-13.12-7.275a1.347 1.347 0 10-2.209 1.545 19.966 19.966 0 003.686 3.986 27.485 27.485 0 00-1.314 7.259 4.674 4.674 0 001.83 3.908 4.657 4.657 0 004.234.738c2.843-.904 6.72-2.91 9.443-7.343a340.945 340.945 0 0029.457 0c2.72 4.434 6.598 6.44 9.44 7.343a4.654 4.654 0 004.232-.737 4.674 4.674 0 001.831-3.909 27.508 27.508 0 00-1.311-7.255 19.724 19.724 0 007.215-14.196c.278-4.945.408-9.948.389-14.871a32.065 32.065 0 00-.931-7.537C84.835 40.933 92 32.26 92 21.943zM14.64 89.189a1.933 1.933 0 01-1.782-.31c-.519-.398-.8-1-.773-1.654a24.6 24.6 0 01.941-5.731 19.671 19.671 0 008.714 2.765c-2.202 2.869-4.989 4.26-7.1 4.93zm52.526-1.963a1.951 1.951 0 01-.774 1.653 1.93 1.93 0 01-1.779.31c-2.11-.67-4.897-2.06-7.098-4.93a19.718 19.718 0 008.711-2.766c.543 1.9.86 3.822.94 5.733z" fill="url(#epaint3_linear)"/><path d="M70.08 6.704c-8.402 0-15.239 6.836-15.239 15.24 0 8.402 6.837 15.238 15.24 15.238 8.402 0 15.238-6.836 15.238-15.239S78.483 6.704 70.08 6.704zm0 27.783c-6.916 0-12.543-5.627-12.543-12.544 0-6.917 5.627-12.544 12.543-12.544 6.917 0 12.544 5.627 12.544 12.544 0 6.917-5.627 12.544-12.544 12.544z" fill="url(#epaint4_linear)"/><path d="M72.317 20.564c-1.724-.502-3.636-1.112-4.74-1.825-.518-.334-.514-.87-.466-1.16.101-.608.6-1.355 1.697-1.627 2.408-.597 3.958.48 4.045.541a1.348 1.348 0 001.62-2.154c-.072-.054-1.245-.924-3.159-1.186v-.729a1.348 1.348 0 00-2.695 0v.812c-.152.03-.304.062-.46.1-1.948.484-3.403 1.975-3.707 3.8-.26 1.556.377 3.037 1.662 3.867 1.125.727 2.704 1.35 5.45 2.148 1.428.416 2.163 1.259 2.016 2.312-.224 1.604-2.033 2.478-3.621 2.487-1.832.01-2.555-.057-4.105-.892a1.348 1.348 0 00-1.279 2.373c1.58.851 2.669 1.117 4.044 1.19v.84a1.348 1.348 0 102.695 0v-.936c2.887-.517 4.646-2.618 4.935-4.689.337-2.41-1.206-4.479-3.932-5.272z" fill="url(#epaint5_linear)"/><path d="M34.389 55.888c-2.431 0-4.336 2.797-4.336 6.368 0 3.57 1.905 6.367 4.336 6.367 2.43 0 4.335-2.797 4.335-6.367s-1.904-6.368-4.335-6.368zm0 10.04c-.653 0-1.64-1.465-1.64-3.672 0-2.208.987-3.673 1.64-3.673.653 0 1.64 1.465 1.64 3.672 0 2.208-.987 3.673-1.64 3.673z" fill="url(#epaint6_linear)"/><path d="M44.864 55.888c-2.431 0-4.336 2.797-4.336 6.368 0 3.57 1.905 6.367 4.336 6.367 2.43 0 4.335-2.797 4.335-6.367s-1.904-6.368-4.335-6.368zm0 10.04c-.653 0-1.64-1.465-1.64-3.672 0-2.208.987-3.673 1.64-3.673.653 0 1.64 1.465 1.64 3.672 0 2.208-.987 3.673-1.64 3.673z" fill="url(#epaint7_linear)"/></g><defs><linearGradient id="epaint0_linear" x1="23.159" y1="45.738" x2="23.159" y2="49.736" gradientUnits="userSpaceOnUse"><stop stop-color="#8151FF"/><stop offset="1" stop-color="#C51BE0"/></linearGradient><linearGradient id="epaint1_linear" x1="56.093" y1="45.738" x2="56.093" y2="49.736" gradientUnits="userSpaceOnUse"><stop stop-color="#8151FF"/><stop offset="1" stop-color="#C51BE0"/></linearGradient><linearGradient id="epaint2_linear" x1="39.626" y1="48.829" x2="39.626" y2="75.189" gradientUnits="userSpaceOnUse"><stop stop-color="#8151FF"/><stop offset="1" stop-color="#C51BE0"/></linearGradient><linearGradient id="epaint3_linear" x1="46" y1=".025" x2="46" y2="91.976" gradientUnits="userSpaceOnUse"><stop stop-color="#8151FF"/><stop offset="1" stop-color="#C51BE0"/></linearGradient><linearGradient id="epaint4_linear" x1="70.08" y1="6.704" x2="70.08" y2="37.182" gradientUnits="userSpaceOnUse"><stop stop-color="#8151FF"/><stop offset="1" stop-color="#C51BE0"/></linearGradient><linearGradient id="epaint5_linear" x1="70.081" y1="11.076" x2="70.081" y2="32.81" gradientUnits="userSpaceOnUse"><stop stop-color="#8151FF"/><stop offset="1" stop-color="#C51BE0"/></linearGradient><linearGradient id="epaint6_linear" x1="34.389" y1="55.888" x2="34.389" y2="68.623" gradientUnits="userSpaceOnUse"><stop stop-color="#8151FF"/><stop offset="1" stop-color="#C51BE0"/></linearGradient><linearGradient id="epaint7_linear" x1="44.864" y1="55.888" x2="44.864" y2="68.623" gradientUnits="userSpaceOnUse"><stop stop-color="#8151FF"/><stop offset="1" stop-color="#C51BE0"/></linearGradient><clipPath id="eclip0"><path fill="#fff" d="M0 0h92v92H0z"/></clipPath></defs></svg><svg fill="none" viewBox="0 0 91 91" id="watch" xmlns="http://www.w3.org/2000/svg"><path d="M23.46 36.723a26.48 26.48 0 00-1.461 2.52l2.562 1.301a23.47 23.47 0 011.301-2.245l-2.403-1.576z" fill="url(#fpaint0_linear)"/><path d="M67.553 36.737l-2.404 1.574c.472.722.91 1.477 1.298 2.244l2.563-1.299a26.415 26.415 0 00-1.457-2.519z" fill="url(#fpaint1_linear)"/><path d="M44.077 24.849l-.024.001.155 2.87.04-.003a23.735 23.735 0 012.558 0l.155-2.869a26.563 26.563 0 00-2.884 0z" fill="url(#fpaint2_linear)"/><path d="M24.54 61.725l-2.564 1.296c.436.863.925 1.712 1.455 2.522l2.406-1.572a23.548 23.548 0 01-1.296-2.246z" fill="url(#fpaint3_linear)"/><path d="M66.427 61.783a23.59 23.59 0 01-1.304 2.244l2.402 1.579a26.514 26.514 0 001.463-2.519l-2.561-1.304z" fill="url(#fpaint4_linear)"/><path d="M46.844 76.08l-.06-1.494-.052.002c-.856.046-1.719.044-2.564-.003l-.16 2.87a26.433 26.433 0 002.896.002l.038-.002-.098-1.374z" fill="url(#fpaint5_linear)"/><path d="M65.674 33.01l-2.032-2.032-14.228 14.228a6.194 6.194 0 00-3.722-1.238 6.233 6.233 0 00-6.226 6.226 6.233 6.233 0 006.226 6.226 6.233 6.233 0 006.226-6.226c0-.996-.236-1.938-.654-2.774l14.41-14.41zM45.692 53.546a3.356 3.356 0 01-3.353-3.352 3.357 3.357 0 013.353-3.353 3.357 3.357 0 013.352 3.353 3.356 3.356 0 01-3.352 3.352z" fill="url(#fpaint6_linear)"/><path d="M75.53 25.2a39.83 39.83 0 00-1.796-1.934l2.419-2.418 2.032 2.033 3.046-3.049a7.13 7.13 0 002.106-5.08 7.13 7.13 0 00-2.105-5.08 7.26 7.26 0 00-1.338-1.055 7.156 7.156 0 00-8.82 1.055l-3.05 3.047 2.033 2.033-3.06 3.059a39.624 39.624 0 00-14.313-5.667v-1.703h3.832V0H34.484v10.441h3.832v1.703c-8.838 1.616-16.911 6.22-22.846 13.055a39.732 39.732 0 00-9.723 26.048C5.747 73.167 23.58 91 45.5 91s39.753-17.833 39.753-39.753A39.732 39.732 0 0075.53 25.2zm-2.424-13.496a4.29 4.29 0 016.095.001 4.274 4.274 0 011.262 3.047 4.276 4.276 0 01-1.264 3.048l-1.014 1.015-6.096-6.095 1.017-1.016zm-1.017 5.08l2.032 2.031-2.483 2.483-.042-.035c-.343-.298-.689-.59-1.04-.875l-.068-.054c-.36-.292-.724-.578-1.094-.856l2.695-2.695zM37.358 7.566V2.874h16.284v4.693H37.358zm8.142 80.56c-20.335 0-36.879-16.544-36.879-36.88 0-18.1 13.476-33.777 31.345-36.465l1.223-.184V10.44h8.621v4.156l1.224.185c17.87 2.688 31.345 18.365 31.345 36.465 0 20.335-16.544 36.88-36.879 36.88z" fill="url(#fpaint7_linear)"/><path d="M45.5 18.104c-18.222 0-33.047 14.825-33.047 33.047C12.453 69.374 27.278 84.2 45.5 84.2c18.222 0 33.047-14.825 33.047-33.047 0-18.223-14.825-33.048-33.047-33.048zm0 63.221c-16.638 0-30.174-13.536-30.174-30.174 0-16.637 13.536-30.173 30.174-30.173 16.638 0 30.174 13.536 30.174 30.173 0 16.638-13.536 30.174-30.174 30.174z" fill="url(#fpaint8_linear)"/><defs><linearGradient id="fpaint0_linear" x1="23.93" y1="36.723" x2="23.93" y2="40.544" gradientUnits="userSpaceOnUse"><stop offset=".255" stop-color="#8151FF"/><stop offset="1" stop-color="#FC1FE6"/></linearGradient><linearGradient id="fpaint1_linear" x1="67.08" y1="36.737" x2="67.08" y2="40.555" gradientUnits="userSpaceOnUse"><stop offset=".255" stop-color="#8151FF"/><stop offset="1" stop-color="#FC1FE6"/></linearGradient><linearGradient id="fpaint2_linear" x1="45.507" y1="24.809" x2="45.507" y2="27.72" gradientUnits="userSpaceOnUse"><stop offset=".255" stop-color="#8151FF"/><stop offset="1" stop-color="#FC1FE6"/></linearGradient><linearGradient id="fpaint3_linear" x1="23.906" y1="61.725" x2="23.906" y2="65.543" gradientUnits="userSpaceOnUse"><stop offset=".255" stop-color="#8151FF"/><stop offset="1" stop-color="#FC1FE6"/></linearGradient><linearGradient id="fpaint4_linear" x1="67.055" y1="61.783" x2="67.055" y2="65.606" gradientUnits="userSpaceOnUse"><stop offset=".255" stop-color="#8151FF"/><stop offset="1" stop-color="#FC1FE6"/></linearGradient><linearGradient id="fpaint5_linear" x1="45.475" y1="74.585" x2="45.475" y2="77.495" gradientUnits="userSpaceOnUse"><stop offset=".255" stop-color="#8151FF"/><stop offset="1" stop-color="#FC1FE6"/></linearGradient><linearGradient id="fpaint6_linear" x1="52.57" y1="30.978" x2="52.57" y2="56.42" gradientUnits="userSpaceOnUse"><stop offset=".255" stop-color="#8151FF"/><stop offset="1" stop-color="#FC1FE6"/></linearGradient><linearGradient id="fpaint7_linear" x1="45.5" y1="0" x2="45.5" y2="91" gradientUnits="userSpaceOnUse"><stop offset=".255" stop-color="#8151FF"/><stop offset="1" stop-color="#FC1FE6"/></linearGradient><linearGradient id="fpaint8_linear" x1="45.5" y1="18.104" x2="45.5" y2="84.199" gradientUnits="userSpaceOnUse"><stop offset=".255" stop-color="#8151FF"/><stop offset="1" stop-color="#FC1FE6"/></linearGradient></defs></svg></svg>