<svg width="695" height="507" fill="none" xmlns="http://www.w3.org/2000/svg"><path d="M195.085 426.139l27.84.101-.094 25.92-27.839-.101.093-25.92zm65.236-129.604l28.08.101 84.254 128.946.465-128.639 20.4.074-.563 155.759-28.08-.102-84.246-131.106-.474 130.8-20.399-.074.563-155.759zm173.437.627l104.639.379-.059 16.32-81.36-.294-.184 50.879 73.44.266-.059 16.32-73.44-.266-.202 55.92 83.759.303-.059 16.32-107.039-.388.564-155.759zm177.558 16.963l-52.8-.191.059-16.32 128.88.466-.059 16.32-52.56-.19-.505 139.439-23.52-.085.505-139.439z" fill="#FC08F2" fill-opacity=".7"/><path d="M184.085 412.139l27.84.101-.094 25.92-27.839-.101.093-25.92zm65.236-129.604l28.08.101 84.254 128.946.465-128.639 20.4.074-.563 155.759-28.08-.102-84.246-131.106-.474 130.8-20.399-.074.563-155.759zm173.437.627l104.639.379-.059 16.32-81.36-.294-.184 50.879 73.44.266-.059 16.32-73.44-.266-.202 55.92 83.759.303-.059 16.32-107.039-.388.564-155.759zm177.558 16.963l-52.8-.191.059-16.32 128.88.466-.059 16.32-52.56-.19-.505 139.439-23.52-.085.505-139.439z" fill="#fff"/><path fill="#B106AA" d="M274 442h21v21h-21zm-21 17h21v26h-21z"/><path fill="#fff" d="M269 438h21v21h-21zm-21 21h21v21h-21z"/><path fill="#040407" d="M345 313h26v26h-26z"/><path fill="#350348" d="M582 375h26v26h-26z"/><path fill="#B207AD" d="M387 323h26v26h-26z"/><path fill="#C008CC" d="M624 385h26v26h-26z"/><path fill="#fff" d="M374 313h26v26h-26zm237 62h26v26h-26z"/><path d="M59.256 100.771l-52.8-.191.06-16.32 128.879.467-.059 16.32-52.56-.191-.505 139.44-23.52-.086.505-139.439zm91.205 62.491l66.72.241-.063 17.28-66.719-.241.062-17.28zm96.859-78.13l23.28.084-.564 155.759-23.28-.084.564-155.76zm102.359 76.691l-54.684-76.519 26.64.097 41.302 60.39 41.738-60.09 26.64.097-55.236 76.12 57.072 79.647-26.64-.096-43.69-63.519-44.149 63.201-26.64-.096 57.647-79.232z" fill="#FC08F2" fill-opacity=".7"/><path d="M59.256 85.771l-52.8-.19.06-16.32 128.879.466-.059 16.32-52.56-.19-.505 139.439-23.52-.086.505-139.439z" fill="#8151FF"/><path d="M150.461 148.262l66.72.241-.063 17.28-66.719-.241.062-17.28zm96.859-78.13l23.28.084-.564 155.759-23.28-.084.564-155.76zm102.359 76.691l-54.684-76.519 26.64.097 41.302 60.39 41.738-60.09 26.64.097-55.236 76.12 57.072 79.647-26.64-.096-43.69-63.519-44.149 63.201-26.64-.096 57.647-79.232z" fill="#fff"/><path fill="#fff" d="M408 71h32v22h-32zm-151 62h32v22h-32z"/><path fill="#12101E" d="M231 133h26v22h-26z"/><path fill="#06060B" d="M42 177h26v26H42z"/><path fill="#C008CC" d="M82 187h24v25H82z"/><path fill="#8151FF" d="M58 222h24v56H58zm13-45h26v26H71z"/></svg>