<svg width="1115" height="744" fill="none" xmlns="http://www.w3.org/2000/svg"><mask id="a" maskUnits="userSpaceOnUse" x="287" y="0" width="316" height="294"><path fill="url(#paint0_linear)" fill-opacity=".2" d="M287 0h315.746v293.1H287z"/></mask><g mask="url(#a)" fill="#562FCD"><path d="M288.834 77.442L398.16.63h24.834l-134.16 96.289V77.442zm1.314-45.332L334.85 2.518h25.184l-69.886 47.22V32.11zm-10.703 96.731L501.213-26.443l9.39 13.41L288.834 142.25zm-11.963 56.222l307.931-217.99 9.389 13.41-307.93 217.989-9.39-13.409zm11.963 39.478L615.078-17.187l9.389 13.41L288.834 237.95l-9.389-13.409zm3.777 49.109L616.967 38.848l9.389 13.41-333.745 234.801-9.389-13.409zm37.831 26.484L635.171 76.183l9.389 13.409-314.117 223.951-9.39-13.409zm73.664-6.059l221.769-155.284 9.389 13.41-221.769 155.284-9.389-13.41zm76.127-1.537l221.768-155.284 9.39 13.41-221.769 155.284zm62.96 5.037l221.768-155.284 9.39 13.41-221.769 155.284z"/></g><mask id="b" maskUnits="userSpaceOnUse" x="287" y="450" width="316" height="294"><path fill="url(#paint1_linear)" fill-opacity=".2" d="M287 450h315.746v293.1H287z"/></mask><g mask="url(#b)" fill="#562FCD"><path d="M288.834 527.442L398.16 450.63h24.834l-134.16 96.289v-19.477zm1.314-45.332l44.702-29.592 25.184.001-69.886 47.22V482.11zm-10.703 96.731l221.768-155.284 9.39 13.41L288.834 592.25zm-11.963 56.222l307.931-217.989 9.389 13.409-307.93 217.989-9.39-13.409zm11.963 39.478l335.633-241.728 9.389 13.41L288.834 687.95l-9.389-13.409zm3.777 49.109l333.745-234.802 9.389 13.409-333.745 234.802-9.389-13.409zm37.831 26.484l314.118-223.951 9.389 13.409-314.117 223.951-9.39-13.409zm73.664-6.059l221.769-155.284 9.389 13.41-221.769 155.284-9.389-13.41zm76.127-1.537l221.768-155.284 9.39 13.41-221.769 155.284zm62.96 5.037l221.768-155.284 9.39 13.41-221.769 155.284z"/></g><circle cx="999.656" cy="99.201" r="6.201" fill="#CBBBF8" fill-opacity=".05"/><circle cx="999.655" cy="148.806" r="6.201" fill="#CBBBF8" fill-opacity=".05"/><circle cx="1052.98" cy="99.201" r="6.201" fill="#CBBBF8" fill-opacity=".05"/><circle cx="1052.98" cy="148.806" r="6.201" fill="#CBBBF8" fill-opacity=".05"/><circle cx="1102.59" cy="99.201" r="6.201" fill="#CBBBF8" fill-opacity=".05"/><circle cx="1102.59" cy="148.806" r="6.201" fill="#CBBBF8" fill-opacity=".05"/><circle cx="1000.9" cy="198.412" r="6.201" fill="#CBBBF8" fill-opacity=".05"/><circle cx="1000.9" cy="248.018" r="6.201" fill="#CBBBF8" fill-opacity=".05"/><circle cx="1054.22" cy="198.412" r="6.201" fill="#CBBBF8" fill-opacity=".05"/><circle cx="1054.22" cy="248.018" r="6.201" fill="#CBBBF8" fill-opacity=".05"/><circle cx="1103.83" cy="198.412" r="6.201" fill="#CBBBF8" fill-opacity=".05"/><circle cx="1103.83" cy="248.018" r="6.201" fill="#CBBBF8" fill-opacity=".05"/><circle cx="1001.19" cy="247.986" r="6.201" fill="#CBBBF8" fill-opacity=".05"/><circle cx="1001.19" cy="297.591" r="6.201" fill="#CBBBF8" fill-opacity=".05"/><circle cx="1054.51" cy="247.986" r="6.201" fill="#CBBBF8" fill-opacity=".05"/><circle cx="1054.51" cy="297.591" r="6.201" fill="#CBBBF8" fill-opacity=".05"/><circle cx="1104.12" cy="247.986" r="6.201" fill="#CBBBF8" fill-opacity=".05"/><circle cx="1104.12" cy="297.591" r="6.201" fill="#CBBBF8" fill-opacity=".05"/><circle cx="1002.43" cy="347.197" r="6.201" fill="#CBBBF8" fill-opacity=".05"/><circle cx="1002.43" cy="396.802" r="6.201" fill="#CBBBF8" fill-opacity=".05"/><circle cx="1055.76" cy="347.197" r="6.201" fill="#CBBBF8" fill-opacity=".05"/><circle cx="1055.76" cy="396.802" r="6.201" fill="#CBBBF8" fill-opacity=".05"/><circle cx="1105.36" cy="347.197" r="6.201" fill="#CBBBF8" fill-opacity=".05"/><circle cx="1105.36" cy="396.802" r="6.201" fill="#CBBBF8" fill-opacity=".05"/><circle cx="843.201" cy="99.201" r="6.201" fill="#CBBBF8" fill-opacity=".05"/><circle cx="843.201" cy="148.806" r="6.201" fill="#CBBBF8" fill-opacity=".05"/><circle cx="896.527" cy="99.201" r="6.201" fill="#CBBBF8" fill-opacity=".05"/><circle cx="896.527" cy="148.806" r="6.201" fill="#CBBBF8" fill-opacity=".05"/><circle cx="946.133" cy="99.201" r="6.201" fill="#CBBBF8" fill-opacity=".05"/><circle cx="946.133" cy="148.806" r="6.201" fill="#CBBBF8" fill-opacity=".05"/><circle cx="844.441" cy="198.412" r="6.201" fill="#CBBBF8" fill-opacity=".05"/><circle cx="844.441" cy="248.018" r="6.201" fill="#CBBBF8" fill-opacity=".05"/><circle cx="897.767" cy="198.412" r="6.201" fill="#CBBBF8" fill-opacity=".05"/><circle cx="897.767" cy="248.018" r="6.201" fill="#CBBBF8" fill-opacity=".05"/><circle cx="947.373" cy="198.412" r="6.201" fill="#CBBBF8" fill-opacity=".05"/><circle cx="947.373" cy="248.018" r="6.201" fill="#CBBBF8" fill-opacity=".05"/><circle cx="844.735" cy="247.986" r="6.201" fill="#CBBBF8" fill-opacity=".05"/><circle cx="844.734" cy="297.591" r="6.201" fill="#CBBBF8" fill-opacity=".05"/><circle cx="898.061" cy="247.986" r="6.201" fill="#CBBBF8" fill-opacity=".05"/><circle cx="898.061" cy="297.591" r="6.201" fill="#CBBBF8" fill-opacity=".05"/><circle cx="947.666" cy="247.986" r="6.201" fill="#CBBBF8" fill-opacity=".05"/><circle cx="947.666" cy="297.591" r="6.201" fill="#CBBBF8" fill-opacity=".05"/><circle cx="845.975" cy="347.197" r="6.201" fill="#CBBBF8" fill-opacity=".05"/><circle cx="845.975" cy="396.802" r="6.201" fill="#CBBBF8" fill-opacity=".05"/><circle cx="899.301" cy="347.197" r="6.201" fill="#CBBBF8" fill-opacity=".05"/><circle cx="899.301" cy="396.802" r="6.201" fill="#CBBBF8" fill-opacity=".05"/><circle cx="948.907" cy="347.197" r="6.201" fill="#CBBBF8" fill-opacity=".05"/><circle cx="948.907" cy="396.802" r="6.201" fill="#CBBBF8" fill-opacity=".05"/><circle cx="1002.66" cy="423.201" r="6.201" fill="#CBBBF8" fill-opacity=".05"/><circle cx="1002.66" cy="472.806" r="6.201" fill="#CBBBF8" fill-opacity=".05"/><circle cx="1055.98" cy="423.201" r="6.201" fill="#CBBBF8" fill-opacity=".05"/><circle cx="1055.98" cy="472.806" r="6.201" fill="#CBBBF8" fill-opacity=".05"/><circle cx="1105.59" cy="423.201" r="6.201" fill="#CBBBF8" fill-opacity=".05"/><circle cx="1105.59" cy="472.806" r="6.201" fill="#CBBBF8" fill-opacity=".05"/><circle cx="1003.9" cy="522.412" r="6.201" fill="#CBBBF8" fill-opacity=".05"/><circle cx="1003.9" cy="572.018" r="6.201" fill="#CBBBF8" fill-opacity=".05"/><circle cx="1057.22" cy="522.412" r="6.201" fill="#CBBBF8" fill-opacity=".05"/><circle cx="1057.22" cy="572.018" r="6.201" fill="#CBBBF8" fill-opacity=".05"/><circle cx="1106.83" cy="522.412" r="6.201" fill="#CBBBF8" fill-opacity=".05"/><circle cx="1106.83" cy="572.018" r="6.201" fill="#CBBBF8" fill-opacity=".05"/><circle cx="1004.19" cy="571.986" r="6.201" fill="#CBBBF8" fill-opacity=".05"/><circle cx="1004.19" cy="621.591" r="6.201" fill="#CBBBF8" fill-opacity=".05"/><circle cx="1057.51" cy="571.986" r="6.201" fill="#CBBBF8" fill-opacity=".05"/><circle cx="1057.51" cy="621.591" r="6.201" fill="#CBBBF8" fill-opacity=".05"/><circle cx="1107.12" cy="571.986" r="6.201" fill="#CBBBF8" fill-opacity=".05"/><circle cx="1107.12" cy="621.591" r="6.201" fill="#CBBBF8" fill-opacity=".05"/><circle cx="1005.43" cy="671.197" r="6.201" fill="#CBBBF8" fill-opacity=".05"/><circle cx="1005.43" cy="720.802" r="6.201" fill="#CBBBF8" fill-opacity=".05"/><circle cx="1058.76" cy="671.197" r="6.201" fill="#CBBBF8" fill-opacity=".05"/><circle cx="1058.76" cy="720.802" r="6.201" fill="#CBBBF8" fill-opacity=".05"/><circle cx="1108.36" cy="671.197" r="6.201" fill="#CBBBF8" fill-opacity=".05"/><circle cx="1108.36" cy="720.802" r="6.201" fill="#CBBBF8" fill-opacity=".05"/><circle cx="846.201" cy="423.201" r="6.201" fill="#CBBBF8" fill-opacity=".05"/><circle cx="846.201" cy="472.806" r="6.201" fill="#CBBBF8" fill-opacity=".05"/><circle cx="899.527" cy="423.201" r="6.201" fill="#CBBBF8" fill-opacity=".05"/><circle cx="899.527" cy="472.806" r="6.201" fill="#CBBBF8" fill-opacity=".05"/><circle cx="949.133" cy="423.201" r="6.201" fill="#CBBBF8" fill-opacity=".05"/><circle cx="949.133" cy="472.806" r="6.201" fill="#CBBBF8" fill-opacity=".05"/><circle cx="847.441" cy="522.412" r="6.201" fill="#CBBBF8" fill-opacity=".05"/><circle cx="847.441" cy="572.018" r="6.201" fill="#CBBBF8" fill-opacity=".05"/><circle cx="900.767" cy="522.412" r="6.201" fill="#CBBBF8" fill-opacity=".05"/><circle cx="900.767" cy="572.018" r="6.201" fill="#CBBBF8" fill-opacity=".05"/><circle cx="950.373" cy="522.412" r="6.201" fill="#CBBBF8" fill-opacity=".05"/><circle cx="950.373" cy="572.018" r="6.201" fill="#CBBBF8" fill-opacity=".05"/><circle cx="847.735" cy="571.986" r="6.201" fill="#CBBBF8" fill-opacity=".05"/><circle cx="847.734" cy="621.591" r="6.201" fill="#CBBBF8" fill-opacity=".05"/><circle cx="901.061" cy="571.986" r="6.201" fill="#CBBBF8" fill-opacity=".05"/><circle cx="901.061" cy="621.591" r="6.201" fill="#CBBBF8" fill-opacity=".05"/><circle cx="950.666" cy="571.986" r="6.201" fill="#CBBBF8" fill-opacity=".05"/><circle cx="950.666" cy="621.591" r="6.201" fill="#CBBBF8" fill-opacity=".05"/><circle cx="848.975" cy="671.197" r="6.201" fill="#CBBBF8" fill-opacity=".05"/><circle cx="848.975" cy="720.802" r="6.201" fill="#CBBBF8" fill-opacity=".05"/><circle cx="902.301" cy="671.197" r="6.201" fill="#CBBBF8" fill-opacity=".05"/><circle cx="902.301" cy="720.802" r="6.201" fill="#CBBBF8" fill-opacity=".05"/><circle cx="951.907" cy="671.197" r="6.201" fill="#CBBBF8" fill-opacity=".05"/><circle cx="951.907" cy="720.802" r="6.201" fill="#CBBBF8" fill-opacity=".05"/><circle cx="162.656" cy="101.201" r="6.201" fill="#CBBBF8" fill-opacity=".05"/><circle cx="162.655" cy="150.806" r="6.201" fill="#CBBBF8" fill-opacity=".05"/><circle cx="215.981" cy="101.201" r="6.201" fill="#CBBBF8" fill-opacity=".05"/><circle cx="215.981" cy="150.806" r="6.201" fill="#CBBBF8" fill-opacity=".05"/><circle cx="265.587" cy="101.201" r="6.201" fill="#CBBBF8" fill-opacity=".05"/><circle cx="265.587" cy="150.806" r="6.201" fill="#CBBBF8" fill-opacity=".05"/><circle cx="163.896" cy="200.412" r="6.201" fill="#CBBBF8" fill-opacity=".05"/><circle cx="163.895" cy="250.018" r="6.201" fill="#CBBBF8" fill-opacity=".05"/><circle cx="217.222" cy="200.412" r="6.201" fill="#CBBBF8" fill-opacity=".05"/><circle cx="217.222" cy="250.018" r="6.201" fill="#CBBBF8" fill-opacity=".05"/><circle cx="266.827" cy="200.412" r="6.201" fill="#CBBBF8" fill-opacity=".05"/><circle cx="266.827" cy="250.018" r="6.201" fill="#CBBBF8" fill-opacity=".05"/><circle cx="164.189" cy="249.986" r="6.201" fill="#CBBBF8" fill-opacity=".05"/><circle cx="164.188" cy="299.591" r="6.201" fill="#CBBBF8" fill-opacity=".05"/><circle cx="217.514" cy="249.986" r="6.201" fill="#CBBBF8" fill-opacity=".05"/><circle cx="217.514" cy="299.591" r="6.201" fill="#CBBBF8" fill-opacity=".05"/><circle cx="267.12" cy="249.986" r="6.201" fill="#CBBBF8" fill-opacity=".05"/><circle cx="267.12" cy="299.591" r="6.201" fill="#CBBBF8" fill-opacity=".05"/><circle cx="165.429" cy="349.197" r="6.201" fill="#CBBBF8" fill-opacity=".05"/><circle cx="165.429" cy="398.802" r="6.201" fill="#CBBBF8" fill-opacity=".05"/><circle cx="218.755" cy="349.197" r="6.201" fill="#CBBBF8" fill-opacity=".05"/><circle cx="218.755" cy="398.802" r="6.201" fill="#CBBBF8" fill-opacity=".05"/><circle cx="268.361" cy="349.197" r="6.201" fill="#CBBBF8" fill-opacity=".05"/><circle cx="268.361" cy="398.802" r="6.201" fill="#CBBBF8" fill-opacity=".05"/><circle cx="6.201" cy="101.201" r="6.201" fill="#CBBBF8" fill-opacity=".05"/><circle cx="6.201" cy="150.806" r="6.201" fill="#CBBBF8" fill-opacity=".05"/><circle cx="59.527" cy="101.201" r="6.201" fill="#CBBBF8" fill-opacity=".05"/><circle cx="59.527" cy="150.806" r="6.201" fill="#CBBBF8" fill-opacity=".05"/><circle cx="109.133" cy="101.201" r="6.201" fill="#CBBBF8" fill-opacity=".05"/><circle cx="109.133" cy="150.806" r="6.201" fill="#CBBBF8" fill-opacity=".05"/><circle cx="7.441" cy="200.412" r="6.201" fill="#CBBBF8" fill-opacity=".05"/><circle cx="7.441" cy="250.018" r="6.201" fill="#CBBBF8" fill-opacity=".05"/><circle cx="60.767" cy="200.412" r="6.201" fill="#CBBBF8" fill-opacity=".05"/><circle cx="60.767" cy="250.018" r="6.201" fill="#CBBBF8" fill-opacity=".05"/><circle cx="110.373" cy="200.412" r="6.201" fill="#CBBBF8" fill-opacity=".05"/><circle cx="110.373" cy="250.018" r="6.201" fill="#CBBBF8" fill-opacity=".05"/><circle cx="7.735" cy="249.986" r="6.201" fill="#CBBBF8" fill-opacity=".05"/><circle cx="7.735" cy="299.591" r="6.201" fill="#CBBBF8" fill-opacity=".05"/><circle cx="61.061" cy="249.986" r="6.201" fill="#CBBBF8" fill-opacity=".05"/><circle cx="61.061" cy="299.591" r="6.201" fill="#CBBBF8" fill-opacity=".05"/><circle cx="110.667" cy="249.986" r="6.201" fill="#CBBBF8" fill-opacity=".05"/><circle cx="110.667" cy="299.591" r="6.201" fill="#CBBBF8" fill-opacity=".05"/><circle cx="8.976" cy="349.197" r="6.201" fill="#CBBBF8" fill-opacity=".05"/><circle cx="8.975" cy="398.802" r="6.201" fill="#CBBBF8" fill-opacity=".05"/><circle cx="62.301" cy="349.197" r="6.201" fill="#CBBBF8" fill-opacity=".05"/><circle cx="62.301" cy="398.802" r="6.201" fill="#CBBBF8" fill-opacity=".05"/><circle cx="111.907" cy="349.197" r="6.201" fill="#CBBBF8" fill-opacity=".05"/><circle cx="111.907" cy="398.802" r="6.201" fill="#CBBBF8" fill-opacity=".05"/><circle cx="165.656" cy="425.201" r="6.201" fill="#CBBBF8" fill-opacity=".05"/><circle cx="165.655" cy="474.806" r="6.201" fill="#CBBBF8" fill-opacity=".05"/><circle cx="218.981" cy="425.201" r="6.201" fill="#CBBBF8" fill-opacity=".05"/><circle cx="218.981" cy="474.806" r="6.201" fill="#CBBBF8" fill-opacity=".05"/><circle cx="268.587" cy="425.201" r="6.201" fill="#CBBBF8" fill-opacity=".05"/><circle cx="268.587" cy="474.806" r="6.201" fill="#CBBBF8" fill-opacity=".05"/><circle cx="166.896" cy="524.412" r="6.201" fill="#CBBBF8" fill-opacity=".05"/><circle cx="166.895" cy="574.018" r="6.201" fill="#CBBBF8" fill-opacity=".05"/><circle cx="220.222" cy="524.412" r="6.201" fill="#CBBBF8" fill-opacity=".05"/><circle cx="220.222" cy="574.018" r="6.201" fill="#CBBBF8" fill-opacity=".05"/><circle cx="269.827" cy="524.412" r="6.201" fill="#CBBBF8" fill-opacity=".05"/><circle cx="269.827" cy="574.018" r="6.201" fill="#CBBBF8" fill-opacity=".05"/><circle cx="167.189" cy="573.986" r="6.201" fill="#CBBBF8" fill-opacity=".05"/><circle cx="167.188" cy="623.591" r="6.201" fill="#CBBBF8" fill-opacity=".05"/><circle cx="220.514" cy="573.986" r="6.201" fill="#CBBBF8" fill-opacity=".05"/><circle cx="220.514" cy="623.591" r="6.201" fill="#CBBBF8" fill-opacity=".05"/><circle cx="270.12" cy="573.986" r="6.201" fill="#CBBBF8" fill-opacity=".05"/><circle cx="270.12" cy="623.591" r="6.201" fill="#CBBBF8" fill-opacity=".05"/><circle cx="168.429" cy="673.197" r="6.201" fill="#CBBBF8" fill-opacity=".05"/><circle cx="168.429" cy="722.802" r="6.201" fill="#CBBBF8" fill-opacity=".05"/><circle cx="221.755" cy="673.197" r="6.201" fill="#CBBBF8" fill-opacity=".05"/><circle cx="221.755" cy="722.802" r="6.201" fill="#CBBBF8" fill-opacity=".05"/><circle cx="271.361" cy="673.197" r="6.201" fill="#CBBBF8" fill-opacity=".05"/><circle cx="271.361" cy="722.802" r="6.201" fill="#CBBBF8" fill-opacity=".05"/><circle cx="9.201" cy="425.201" r="6.201" fill="#CBBBF8" fill-opacity=".05"/><circle cx="9.201" cy="474.806" r="6.201" fill="#CBBBF8" fill-opacity=".05"/><circle cx="62.527" cy="425.201" r="6.201" fill="#CBBBF8" fill-opacity=".05"/><circle cx="62.527" cy="474.806" r="6.201" fill="#CBBBF8" fill-opacity=".05"/><circle cx="112.133" cy="425.201" r="6.201" fill="#CBBBF8" fill-opacity=".05"/><circle cx="112.133" cy="474.806" r="6.201" fill="#CBBBF8" fill-opacity=".05"/><circle cx="10.441" cy="524.412" r="6.201" fill="#CBBBF8" fill-opacity=".05"/><circle cx="10.441" cy="574.018" r="6.201" fill="#CBBBF8" fill-opacity=".05"/><circle cx="63.767" cy="524.412" r="6.201" fill="#CBBBF8" fill-opacity=".05"/><circle cx="63.767" cy="574.018" r="6.201" fill="#CBBBF8" fill-opacity=".05"/><circle cx="113.373" cy="524.412" r="6.201" fill="#CBBBF8" fill-opacity=".05"/><circle cx="113.373" cy="574.018" r="6.201" fill="#CBBBF8" fill-opacity=".05"/><circle cx="10.735" cy="573.986" r="6.201" fill="#CBBBF8" fill-opacity=".05"/><circle cx="10.735" cy="623.591" r="6.201" fill="#CBBBF8" fill-opacity=".05"/><circle cx="64.061" cy="573.986" r="6.201" fill="#CBBBF8" fill-opacity=".05"/><circle cx="64.061" cy="623.591" r="6.201" fill="#CBBBF8" fill-opacity=".05"/><circle cx="113.667" cy="573.986" r="6.201" fill="#CBBBF8" fill-opacity=".05"/><circle cx="113.667" cy="623.591" r="6.201" fill="#CBBBF8" fill-opacity=".05"/><circle cx="11.976" cy="673.197" r="6.201" fill="#CBBBF8" fill-opacity=".05"/><circle cx="11.975" cy="722.802" r="6.201" fill="#CBBBF8" fill-opacity=".05"/><circle cx="65.301" cy="673.197" r="6.201" fill="#CBBBF8" fill-opacity=".05"/><circle cx="65.301" cy="722.802" r="6.201" fill="#CBBBF8" fill-opacity=".05"/><circle cx="114.907" cy="673.197" r="6.201" fill="#CBBBF8" fill-opacity=".05"/><circle cx="114.907" cy="722.802" r="6.201" fill="#CBBBF8" fill-opacity=".05"/><circle cx="790.656" cy="99.201" r="6.201" fill="#CBBBF8" fill-opacity=".05"/><circle cx="790.655" cy="148.806" r="6.201" fill="#CBBBF8" fill-opacity=".05"/><circle cx="843.981" cy="99.201" r="6.201" fill="#CBBBF8" fill-opacity=".05"/><circle cx="843.981" cy="148.806" r="6.201" fill="#CBBBF8" fill-opacity=".05"/><circle cx="893.587" cy="99.201" r="6.201" fill="#CBBBF8" fill-opacity=".05"/><circle cx="893.587" cy="148.806" r="6.201" fill="#CBBBF8" fill-opacity=".05"/><circle cx="791.896" cy="198.412" r="6.201" fill="#CBBBF8" fill-opacity=".05"/><circle cx="791.895" cy="248.018" r="6.201" fill="#CBBBF8" fill-opacity=".05"/><circle cx="845.222" cy="198.412" r="6.201" fill="#CBBBF8" fill-opacity=".05"/><circle cx="845.222" cy="248.018" r="6.201" fill="#CBBBF8" fill-opacity=".05"/><circle cx="894.827" cy="198.412" r="6.201" fill="#CBBBF8" fill-opacity=".05"/><circle cx="894.827" cy="248.018" r="6.201" fill="#CBBBF8" fill-opacity=".05"/><circle cx="792.189" cy="247.986" r="6.201" fill="#CBBBF8" fill-opacity=".05"/><circle cx="792.189" cy="297.591" r="6.201" fill="#CBBBF8" fill-opacity=".05"/><circle cx="845.515" cy="247.986" r="6.201" fill="#CBBBF8" fill-opacity=".05"/><circle cx="845.515" cy="297.591" r="6.201" fill="#CBBBF8" fill-opacity=".05"/><circle cx="895.121" cy="247.986" r="6.201" fill="#CBBBF8" fill-opacity=".05"/><circle cx="895.121" cy="297.591" r="6.201" fill="#CBBBF8" fill-opacity=".05"/><circle cx="793.43" cy="347.197" r="6.201" fill="#CBBBF8" fill-opacity=".05"/><circle cx="793.429" cy="396.802" r="6.201" fill="#CBBBF8" fill-opacity=".05"/><circle cx="846.755" cy="347.197" r="6.201" fill="#CBBBF8" fill-opacity=".05"/><circle cx="846.755" cy="396.802" r="6.201" fill="#CBBBF8" fill-opacity=".05"/><circle cx="896.361" cy="347.197" r="6.201" fill="#CBBBF8" fill-opacity=".05"/><circle cx="896.361" cy="396.802" r="6.201" fill="#CBBBF8" fill-opacity=".05"/><circle cx="634.201" cy="99.201" r="6.201" fill="#CBBBF8" fill-opacity=".05"/><circle cx="634.201" cy="148.806" r="6.201" fill="#CBBBF8" fill-opacity=".05"/><circle cx="687.527" cy="99.201" r="6.201" fill="#CBBBF8" fill-opacity=".05"/><circle cx="687.527" cy="148.806" r="6.201" fill="#CBBBF8" fill-opacity=".05"/><circle cx="737.133" cy="99.201" r="6.201" fill="#CBBBF8" fill-opacity=".05"/><circle cx="737.133" cy="148.806" r="6.201" fill="#CBBBF8" fill-opacity=".05"/><circle cx="635.441" cy="198.412" r="6.201" fill="#CBBBF8" fill-opacity=".05"/><circle cx="635.441" cy="248.018" r="6.201" fill="#CBBBF8" fill-opacity=".05"/><circle cx="688.767" cy="198.412" r="6.201" fill="#CBBBF8" fill-opacity=".05"/><circle cx="688.767" cy="248.018" r="6.201" fill="#CBBBF8" fill-opacity=".05"/><circle cx="738.373" cy="198.412" r="6.201" fill="#CBBBF8" fill-opacity=".05"/><circle cx="738.373" cy="248.018" r="6.201" fill="#CBBBF8" fill-opacity=".05"/><circle cx="635.735" cy="247.986" r="6.201" fill="#CBBBF8" fill-opacity=".05"/><circle cx="635.734" cy="297.591" r="6.201" fill="#CBBBF8" fill-opacity=".05"/><circle cx="689.061" cy="247.986" r="6.201" fill="#CBBBF8" fill-opacity=".05"/><circle cx="689.061" cy="297.591" r="6.201" fill="#CBBBF8" fill-opacity=".05"/><circle cx="738.666" cy="247.986" r="6.201" fill="#CBBBF8" fill-opacity=".05"/><circle cx="738.666" cy="297.591" r="6.201" fill="#CBBBF8" fill-opacity=".05"/><circle cx="636.975" cy="347.197" r="6.201" fill="#CBBBF8" fill-opacity=".05"/><circle cx="636.975" cy="396.802" r="6.201" fill="#CBBBF8" fill-opacity=".05"/><circle cx="690.301" cy="347.197" r="6.201" fill="#CBBBF8" fill-opacity=".05"/><circle cx="690.301" cy="396.802" r="6.201" fill="#CBBBF8" fill-opacity=".05"/><circle cx="739.907" cy="347.197" r="6.201" fill="#CBBBF8" fill-opacity=".05"/><circle cx="739.907" cy="396.802" r="6.201" fill="#CBBBF8" fill-opacity=".05"/><circle cx="793.656" cy="423.201" r="6.201" fill="#CBBBF8" fill-opacity=".05"/><circle cx="793.655" cy="472.806" r="6.201" fill="#CBBBF8" fill-opacity=".05"/><circle cx="846.981" cy="423.201" r="6.201" fill="#CBBBF8" fill-opacity=".05"/><circle cx="846.981" cy="472.806" r="6.201" fill="#CBBBF8" fill-opacity=".05"/><circle cx="896.587" cy="423.201" r="6.201" fill="#CBBBF8" fill-opacity=".05"/><circle cx="896.587" cy="472.806" r="6.201" fill="#CBBBF8" fill-opacity=".05"/><circle cx="794.896" cy="522.412" r="6.201" fill="#CBBBF8" fill-opacity=".05"/><circle cx="794.895" cy="572.018" r="6.201" fill="#CBBBF8" fill-opacity=".05"/><circle cx="848.222" cy="522.412" r="6.201" fill="#CBBBF8" fill-opacity=".05"/><circle cx="848.222" cy="572.018" r="6.201" fill="#CBBBF8" fill-opacity=".05"/><circle cx="897.827" cy="522.412" r="6.201" fill="#CBBBF8" fill-opacity=".05"/><circle cx="897.827" cy="572.018" r="6.201" fill="#CBBBF8" fill-opacity=".05"/><circle cx="795.189" cy="571.986" r="6.201" fill="#CBBBF8" fill-opacity=".05"/><circle cx="795.189" cy="621.591" r="6.201" fill="#CBBBF8" fill-opacity=".05"/><circle cx="848.515" cy="571.986" r="6.201" fill="#CBBBF8" fill-opacity=".05"/><circle cx="848.515" cy="621.591" r="6.201" fill="#CBBBF8" fill-opacity=".05"/><circle cx="898.121" cy="571.986" r="6.201" fill="#CBBBF8" fill-opacity=".05"/><circle cx="898.121" cy="621.591" r="6.201" fill="#CBBBF8" fill-opacity=".05"/><circle cx="796.43" cy="671.197" r="6.201" fill="#CBBBF8" fill-opacity=".05"/><circle cx="796.429" cy="720.802" r="6.201" fill="#CBBBF8" fill-opacity=".05"/><circle cx="849.755" cy="671.197" r="6.201" fill="#CBBBF8" fill-opacity=".05"/><circle cx="849.755" cy="720.802" r="6.201" fill="#CBBBF8" fill-opacity=".05"/><circle cx="899.361" cy="671.197" r="6.201" fill="#CBBBF8" fill-opacity=".05"/><circle cx="899.361" cy="720.802" r="6.201" fill="#CBBBF8" fill-opacity=".05"/><circle cx="637.201" cy="423.201" r="6.201" fill="#CBBBF8" fill-opacity=".05"/><circle cx="637.201" cy="472.806" r="6.201" fill="#CBBBF8" fill-opacity=".05"/><circle cx="690.527" cy="423.201" r="6.201" fill="#CBBBF8" fill-opacity=".05"/><circle cx="690.527" cy="472.806" r="6.201" fill="#CBBBF8" fill-opacity=".05"/><circle cx="740.133" cy="423.201" r="6.201" fill="#CBBBF8" fill-opacity=".05"/><circle cx="740.133" cy="472.806" r="6.201" fill="#CBBBF8" fill-opacity=".05"/><circle cx="638.441" cy="522.412" r="6.201" fill="#CBBBF8" fill-opacity=".05"/><circle cx="638.441" cy="572.018" r="6.201" fill="#CBBBF8" fill-opacity=".05"/><circle cx="691.767" cy="522.412" r="6.201" fill="#CBBBF8" fill-opacity=".05"/><circle cx="691.767" cy="572.018" r="6.201" fill="#CBBBF8" fill-opacity=".05"/><circle cx="741.373" cy="522.412" r="6.201" fill="#CBBBF8" fill-opacity=".05"/><circle cx="741.373" cy="572.018" r="6.201" fill="#CBBBF8" fill-opacity=".05"/><circle cx="638.735" cy="571.986" r="6.201" fill="#CBBBF8" fill-opacity=".05"/><circle cx="638.734" cy="621.591" r="6.201" fill="#CBBBF8" fill-opacity=".05"/><circle cx="692.061" cy="571.986" r="6.201" fill="#CBBBF8" fill-opacity=".05"/><circle cx="692.061" cy="621.591" r="6.201" fill="#CBBBF8" fill-opacity=".05"/><circle cx="741.666" cy="571.986" r="6.201" fill="#CBBBF8" fill-opacity=".05"/><circle cx="741.666" cy="621.591" r="6.201" fill="#CBBBF8" fill-opacity=".05"/><circle cx="639.975" cy="671.197" r="6.201" fill="#CBBBF8" fill-opacity=".05"/><circle cx="639.975" cy="720.802" r="6.201" fill="#CBBBF8" fill-opacity=".05"/><circle cx="693.301" cy="671.197" r="6.201" fill="#CBBBF8" fill-opacity=".05"/><circle cx="693.301" cy="720.802" r="6.201" fill="#CBBBF8" fill-opacity=".05"/><circle cx="742.907" cy="671.197" r="6.201" fill="#CBBBF8" fill-opacity=".05"/><circle cx="742.907" cy="720.802" r="6.201" fill="#CBBBF8" fill-opacity=".05"/><defs><linearGradient id="paint0_linear" x1="422.751" y1="163.905" x2="406.574" y2="-34.658" gradientUnits="userSpaceOnUse"><stop stop-color="#5931D1"/><stop offset="1" stop-color="#110C2F"/></linearGradient><linearGradient id="paint1_linear" x1="422.751" y1="613.905" x2="406.574" y2="415.342" gradientUnits="userSpaceOnUse"><stop stop-color="#5931D1"/><stop offset="1" stop-color="#110C2F"/></linearGradient></defs></svg>