<svg width="878" height="726" fill="none" xmlns="http://www.w3.org/2000/svg"><g filter="url(#filter0_dii)"><rect width="291.692" height="588.618" rx="60" transform="matrix(.85333 -.55383 .89882 .46199 50.001 291.59)" fill="#0A090C"/></g><rect width="257.285" height="555.027" rx="50" transform="matrix(.85318 -.55392 .8987 .46208 79.894 281.217)" fill="#000"/><rect width="257.286" height="556.488" rx="40" transform="matrix(.85318 -.55392 .8987 .46208 78.877 281.061)" fill="url(#paint0_linear)"/><path d="M130.353 247.496l128.42-83.376c9.582 4.926 9.975 13.708.879 19.613l-95.48 61.99c-9.096 5.905-24.238 6.699-33.819 1.773z" fill="#0E0721"/><path d="M296.068 93.846a3 3 0 00-3.054.195L86.576 234.991c-1.888 1.289-1.698 4.133.346 5.158L564.307 479.74a3.002 3.002 0 003.112-.257l195.84-142.662c1.81-1.318 1.59-4.081-.404-5.098L296.068 93.846z" fill="url(#paint1_linear)"/><path d="M290.053 21.783a3 3 0 00-3.015.215L80.576 162.964c-1.888 1.289-1.698 4.133.346 5.159L558.25 407.684a3.001 3.001 0 003.187-.312L756.421 255.86c1.751-1.36 1.473-4.083-.517-5.061L290.053 21.783z" fill="url(#paint2_linear)"/><mask id="a" maskUnits="userSpaceOnUse" x="91" y="10" width="692" height="430"><path d="M308.068 31.846a3 3 0 00-3.054.195L98.576 172.991c-1.888 1.289-1.698 4.133.346 5.158L576.307 417.74a3.002 3.002 0 003.112-.257l195.84-142.662c1.81-1.318 1.59-4.081-.404-5.098L308.068 31.846z" fill="url(#paint3_linear)"/></mask><g mask="url(#a)"><path d="M320.804 187.649s1.582 1.25 3.021 1.713c1.511.359 1.638 1.059 1.962 3.35.34 2.378 4.532 1.077 4.532 1.077s-1.397-2.729-2.477-4.703c-1.081-1.973-7.038-1.437-7.038-1.437zm12.063 2.245c.287-.414-2.354-.026-1.55-1.075s1.632-2.465 1.632-2.465l-1.073-.438c-1.114.834-2.818 3.402-1.793 4.572 1.041 1.258 2.498-.181 2.784-.594zm-.936 7.309c2.028.717 5.694 1.499 6.44 2.63.675 1.233.746 3.118.746 3.118s1.958-2.162-1.452-4.527a1467.665 1467.665 0 00-6.066-4.053s-.104.922-.963 1.168c-.875.159-2.585.197-2.585.197l2.321 1.839c-.103-.071.884-.611 1.559-.372zm95.299 78.182c-1.416.166-4.687 2.565-6.444 2.341-1.67-.24-2.95-.821-4.676.124-1.727.945-1.394 1.788-2.882 3.052-1.488 1.263-2.244 1.581-3.103 1.827s-1.798 1.048-2.284 1.859c-.557.914-2.117 2.281-1.783 3.125.317.756 2.862.837 4.429.011 1.464-.898 13.741-7.458 14.68-8.26.939-.803 1.552-1.908 2.213-2.751.541-1.001 1.265-1.494-.15-1.328zm94.38 8.219c-2.681.666-4.542.37-5.822.783-1.297.325-3.008 1.358-3.508 1.087-.501-.271-.723-1.496-1.956-.821-1.958 1.168-5.856 3.59-5.659 5.181.198 1.591 3.091 3.598 3.043 4.33.039.716 3.093.615 4.526-.458 1.345-1.057 1.949-1.709 3.636-2.375 1.687-.667 2.681-1.661 3.166-1.477.485.183 1.098.072 1.783-1.136.685-1.209 1.329-2.139 2.379-2.329 1.05-.19 1.925-.348 2.268-.953.414-.707 1.084-2.997.543-2.99-.398-.199-1.703.579-4.399 1.158zm15.887 68.79c-.485-.184-.636-1.512-.404-2.729.231-1.217-.3-2.657-.587-2.243-.39.341-.853 2.775-1.784 4.118-1.019 1.36-2.459.897-2.674 1.207-.215.31.469 1.09.357 1.472-.111.382-1.074.556-1.837.333-.763-.224-.834-1.114-1.232-1.314-.397-.199-3.564 1.278-6.769 2.039-3.19.849-4.549-.17-6.228 1.037-.565.374-1.266 1.495.276 2.029 1.559.621 4.454-.355 6.213-1.125 1.742-.857 1.956-.173 2.95-.173.994.001 2.507-1.628 3.541-1.906 1.121-.293.891-.071 1.861.296 1.057.351 2.855-.698 4.351-1.42 1.496-.723 1.988.001 3.261-.952 1.393-.794-.811-.486-1.295-.669zm-37.111-8.826c-1.375-.113-.396-1.194-1.526-1.441-.747-.136-3.517 3.528-1.522 4.071 1.909.558 6.333-2.954 6.445-3.336-.079-.437-2.021.818-3.397.706zm-60.278-157.273c-.596.199-.851-.207-1.265.501-.485.81 2.41.829 3.348 1.02.851.208 2.37.114 2.935-.26.461-.445 1.257-1.041 1.591-1.192.35-.063 1.098-.921.773-1.224-.326-.303-1.916-1.099-2.529-.988-.612.111-1.352.516-1.75.317-.397-.2-2.067-.44-2.362.427-.311.779-.144 1.201-.741 1.399zm11.288-14.514c.955-.716 1.672-1.749-.936-2.181-2.696-.415-3.953-.369-4.97-.998-1.105-.613-2.035-2.252-4.644-1.69-1.909.436-.423 3.15 1.58 4.233 2.003 1.083 8.031 1.438 8.97.636zm-62.81-2.547c-.493-.725-3.301.236-4.725.855-1.44.532-2.729 1.398-3.357 1.421-.7.127 1.788 1.393 2.742 1.672.954.28 1.551.081 1.606.885.055.803 1.606.884 1.996.542.39-.342.637-1.471 1.258-2.035.621-.564-.819-1.027-1.192-1.592-.477-.637 2.029-1.271 1.672-1.748zm-16.423-22.332c-.294-.127-.516-.358-1.026-.176-.509.183-.628.024-.843.334-.215.31.405.74 1.193.597.716-.039 1.781-.142 1.837-.332.056-.191-.954-.28-1.161-.423zm2.568 1.704c-.541.008-.963.174-1.003.453-.055.191-.071.103-.127.294-.04.278 1.288.128 1.853-.245.549-.461-.198-.597-.723-.502zm-6.669 6.088c-.294-.128-.772.23-.915.436-.144.207.731.049 1.113.16.485.184 1.789.399 1.821.574.032.175 1.153-.118.652-.389s-1.813-.033-1.701-.415c.127-.294.167-.572-.199-.596-.35.063-.39.341-.771.23zm-31.89-33.901c.779.311 1.525 1.441 1.485 1.719-.04.278 3.563.711 3.881.472.334-.15 1.169-.03 2.307-.236 1.137-.206 5.256.584 5.415.465.16-.119-1.573-1.703-2.233-1.855-.573-.167-2.203-.686-2.783-1.394-.58-.708-4.023-1.26-4.405-1.371-.381-.112-.564.373-1.289.866-.739.405-1.534.006-2.744.316-1.121.293-.414.707.366 1.018zm10.978 6.236c-.723-.501-3.992-1.084-4.238-.949-.247.135.095.525.349.93.254.406 1.677.781 2.345 1.474.668.692 1.741 1.131 3.299 1.752 1.646.606 3.531.536 4.923.736 1.375.112 3.124 1.784 4.46 2.175 1.32.303 2.401.288 2.544.081.144-.206 1.671-.754 1.695-1.12.04-.278-1.113-.16-1.288-.128-.175.032-1.693-.868-2.154-1.418-.549-.533-.024-.628.295-.866.318-.239-.04-.716.144-1.201.167-.573 1.074-.556 1.742-.858.756-.317-.771-.764-1.447-1.003-.588-.255-1.01-.089-1.328.15-.318.238-.986-.454-1.526-.447-.541.008-.956 1.71-1.234 1.67-.279-.04-.461-1.544-.818-2.021-.358-.478-.97-.367-1.098-.073-.127.294-.978.087-.747-.136.231-.222-1.153-.875-1.932-1.186-.779-.311-.588-.255-.564-.621-.063-.35-2.99-.543-3.928-.735-.939-.192-1.71.038-2.06.102-.35.063-1.798.054-1.837.332-.04.279.556.08.898.47.342.39 3.371.655 2.894 1.013-.39.342-3.618-.52-3.69-.417-.072.104 1.391 1.195 3.283 1.665 1.893.471 2.648 1.148 2.56 1.164 0 0-.819-.033-1.542-.535zm18.256 5.01c.732.048 1.217.231 1.949.28.747.136 1.24-.134 1.615-.564.374-.429-.334-.843-.119-1.153.128-.294 1.034-.278.987-.54.04-.279-.589-.255-.915-.558-.325-.302-2.321-.845-2.806-1.028-.485-.183-1.448-.009-1.551-.081-.103-.071.993.995.365 1.019-.628.023-1.487-.725-1.868-.837-.557-.08-.859.246-.74.405.135.247.437.915.731 1.043.294.127 1.176.51 1.359 1.019.127.7.262.947.993.995zm9.728-1.671c.303-.326.295-.867-.277-1.034-.573-.167-1.32-.303-1.853-.749-.532-.446.048.262-.39.342-.437.079-.772.23-.772.23.136.246 1.447 1.003 2.123 1.242.572.168.867.295 1.169-.031zm-7.489-3.434c.063.35.54.987 1.025 1.17.485.184 2.155.424 2.489.273.334-.151 1.281-.413 1.098-.922-.198-.597-.858-.748-1.55-1.075-.604-.343-1.017-.629-1.765-.765-.731-.048-1.797.054-2.211-.233-.429-.374-1.184-1.05-1.565-1.162-.382-.112-.613.111-.653.389-.024.366.644 1.059 1.057 1.345.413.287 2.083.527 2.075.98zm-3.387-.742c.318-.239.469-.899-1.28-.582-.263.048.961.82 1.28.582zm-6.241-4.022c.223.231 1.28.582.946.733-.334.151-.787.142-.581.286.207.143.605.342.342.39-.262.047-1.892-.471-2.043-.805-.167-.422-.024-.629-.421-.828-.398-.199-1.853-.749-1.813-1.027.04-.279-.842-.661-1.852-.749-1.01-.089-3.404.164-3.476.267-.071.104 1.121.701 1.431.916.326.303 1.821.574 2.187.598.437-.079.612-.111.644.064.032.175 1.749.678 1.677.781-.071.104-2.918-.646-3.061-.44-.056.191 1.693.869 2.647 1.148 1.026.176 3.515.448 4.135.878.62.43 2.942 1.275 3.944.822.581-.286.518-.636-.174-.962-.676-.239-1.463-.097-1.574-.709-.111-.613.001-.995-.206-1.138-.223-.231-1.519.094-1.917-.105-.588-.255-1.057-.351-.835-.12zm-12.936-4.074c.692.326.198.596 1.224.772 1.026.176 1.623-.022 1.901.017.278.04 2.068-.555 1.901.018-.168.572.405.74.842.661.366.024 1.551.08 1.726.049.175-.032.151-.66.621-.564.469.095.461-.445 1.312-.238.938.192 1.789.399 1.853.749.063.35.905 1.011 1.725 1.043.819.033 1.725.05 2.282.129.557.08 1.638.065 1.312-.237-.325-.303-1.288-.128-2.139-.336-.835-.12-.636-.517-1.311-.756-.764-.224-1.336-.391-2.362-.567-1.026-.176-2.664-.241-3.777-.401-1.026-.176-1.487-.725-3.213-.774-1.813-.033-4.35-.568-4.803-.576-.509.182.214.684.906 1.011zm5.009 1.714c-.032-.175-2.083-.527-2.696-.416-.175.032 1.049.804 1.487.725.437-.079 1.241-.134 1.209-.309zm14.583 3.686c.016.087 1.606.884 1.781.852.175-.031-1.049-1.798-1.534-1.981-.469-.096-.279.954-.247 1.129zm2.729-1.398c.342.39-.716.039-.772.23-.04.278 1.59.797 1.781.853.279.04.111.612.54.986.533.446.891-.071 1.535-.006.644.064 1.184 1.05 1.916 1.099.732.048.406-.255.374-.43-.031-.175-.365-1.018-.587-1.249-.223-.231-1.105-.613-1.885-.924-.779-.311-.977-.907-1.653-1.147-.676-.239-1.312-.756-1.702-.414-.071.103.095.525.453 1.002zm6.766 2.932c.222.231.946.733.405.74-.525.095-1.257.047-.859.246.397.2 1.201.144 1.455.55.238.319 1.001.542 1.502.813.501.271 1.734.59 2.084.526.35-.063-1.384-.653-1.344-.931-.047-.263.716-.039.565-.374-.047-.262-1.224-.772-1.462-1.091-.239-.318-1.59-.796-1.694-.868-.103-.071-.087.016-.087.016-.398-.199-.804.055-.565.373zm4.477.274c.676.24 3.038.806 2.878.925-.143.207-2.329-.391-2.457-.097-.215.31.787.852.978.907.19.056 1.383.654 1.971.909.589.255 1.94.733 2.234.86.295.128 1.44-.531 1.631-.475.175-.032-.342.604.461.549.803-.055 2.107.16 2.107.16s-.477.358-.58.286c-.104-.071-1.217-.231-1.464-.096-.262.047.493.724.875.836.485.183 1.113.16 1.113.16s-1.297.325-.796.595c.573.168 1.63.519 2.274.583.629-.023.764.223.589.255-.263.047-1.901-.018-2.752-.225-.851-.207-.818-1.027-1.478-1.178-.676-.239-1.575-.709-1.734-.59-.175.031 1.041 1.257.175.962-.78-.311-2.29-.67-2.744-.678-.453-.008-1.24.134-.668.302.588.255 3.395 1.283 3.395 1.283s3.514 1.442 4.381 1.737c.866.295 1.351.479 1.765.765.413.287 2.433.464 2.815.575.381.112 1.407.288.787-.142-.62-.43-1.478-1.179-.731-1.043.732.048 2.633.066 3.118.249.485.184 2.067.439 2.751.225.684-.214-2.019-1.171-1.096-1.067.819.033 2.664.241 2.854.297.191.056 2.672.781 3.96.91 1.201.144 1.448.009 3.086.074s6.052.983 6.211.864c.262-.048-4.151-.966-3.435-1.005.716-.039 2.592.344 3.841.75 1.248.407 2.83.663 3.371.655.541-.007 1.129.248 1.288.129.144-.207-2.496-.814-2.385-1.195.009-.454-1.136-.789-2.528-.989-1.392-.2-.779-.31-1.487-.725-.707-.414-2.973-1.45-3.943-1.816-.97-.367-2.346-.479-2.862-.838-.605-.342-3.236-1.402-2.998-1.084.151.335.89.924.421.828-.469-.096-.668-.693-2.226-1.314-1.471-.638-2.878-.925-3.991-1.085-1.114-.16-1.329.15-1.329.15s2.719 1.044 2.179 1.052c-.525.095-1.408-.288-2.044-.805l-1.55-1.075c-.707-.415-1.518-.9-2.266-1.036-.731-.048-.668.302-1.988-.002-1.336-.391-1.781-.852-2.703-.956-.938-.192-2.099-.614-2.712-.504-.596.199 1.224.773 1.622.972.382.112-.143.207.151.334.31.215.986.454 1.765.765.779.311.413.287.636.518.222.231.079.437.961.82.867.295 2.012.63 2.553.622.541-.007.135.247.811.486s1.367.566 2.48.726c1.114.16 2.18.057 2.649.153.469.096-.891.071-.303.326.589.255 2.044.805 2.131.789.103.072 1.296.669-.143.207-1.424-.375-2.95-.822-2.95-.822s-.938-.192-2.068-.439c-1.129-.247-2.6-.885-2.361-.567.238.319.389.653.683.78.294.128-.35.064.517.359.763.223 1.821.574 1.001.541-.819-.032-1.757-.224-2.067-.439-.326-.302.032-.819-.659-1.146-.692-.326-1.734-.59-2.338-.932-.604-.343-1.637-1.059-1.439-.462.199.596 1.304 1.21 1.232 1.313-.072.103-.334.151.548.533.883.383 1.797.94 1.9 1.012.104.072.389.652-.891.071-1.28-.582-2.425-.917-2.631-1.06-.207-.144-.183-.509-.008-.541.175-.032.128-.294.024-.366-.19-.056-.882-.382-1.017-.629-.223-.231-.191-.056.024-.366.231-.222-.119-.159-.183-.509-.047-.263.541-.008.025-.366-.517-.358-.549-.533-.795-.398-.247.135-.08.556-.422.166-.342-.39.143-.206-.358-.477-.516-.358-.175.032-.985-.454-.811-.486-.573-.168-.819-1.027-.333-.843-.771-.764-1.447-1.003-.675-.239-.484-.184-.484-.184-.764-.223-.629.024-2.005-.089-1.375-.112-2.56-.169-2.584.197-.049.732.094 1.519.682 1.774zm7.612 9.106c.398.199-.461.445.302.668.763.223 1.686.327 2.187.598.572.168 1.423.375 1.741.137.334-.151.064-.644-.126-.7-.191-.056-1.065-.892-2.004-1.084-.938-.191-4.604-.974-5.017-1.26-.414-.287-.978-.908-1.55-1.075-.589-.255-2.004-1.083-1.844-1.203.159-.119.54-.007.215-.31-.239-.318.151-.66-.962-.82-1.129-.247-2.068-.439-1.924-.645.143-.207.477-.358-.111-.613-.589-.255-.851-.207-1.336-.391-.485-.183-2.115-.701-2.202-.686-.454-.008.492.725.818 1.027.326.303.111.613.333.843.135.247.525-.095.804-.055.278.04 1.232.32 1.439.463.206.143.723.502.317.756-.318.238-.731-.049-.724.492.008.541-.326.692.071.891.398.199.748.136 1.129.248.294.127-.143.206.254.406.414.286 1.058.35 1.32.303.279.04.875-.159.82.032-.144.207-.995 0-.025.366.955.279 3.26 1.037 3.952 1.363.692.327 1.073.439 1.336.391.334-.151.374-.429.787-.142zm-4.585-4.864c.541-.007 1.113.16.875-.158-.151-.334-1.033-.717-1.693-.869-.557-.079-1.082.016-.788.143.294.128.573.168.62.43.151.334.533.446.986.454zm65.937 33.792s-1.621-.971-2.941-1.274c-1.32-.304-2.871-.385-2.935-.735.025-.365 1.257-.046 1.623-.022.366.024 2.091.073 1.503-.182-.588-.255-2.306-.757-1.574-.709.716-.039 2.521.447 1.948.28-.572-.168-2.782-1.394-1.446-1.003 1.335.39 2.504 1.354 2.702 1.95.198.597.365 1.019 1.128 1.242.78.311.915.558 1.48.184.477-.357 1.002-.452.66-.842-.341-.39-.874-.836-1.287-1.123-.326-.302-1.025-1.17-.954-1.273.072-.104-2.822-1.116-1.168-.964 1.654.153 2.712.504 2.632 1.06.007.541.412 1.281 1.319 1.298.907.016 1.05-.19.708-.58-.342-.39-1.956-.821-1.876-1.378-.007-.541.637-.476.637-.476l2.504 1.354s1.233.319 1.32.303c.072-.103.024-.366.621-.564.596-.199.342-.605.438-1.074.096-.469.779.311 1.089.526.223.231.803.939 1.304.216.502-.724.439-1.074.622-1.559.199-.397.326-.691.708-.58.382.112.364 2.013.683 1.775.39-.342.923-.891 1.082-1.01.159-.119-.032-.175-.318-.756-.285-.58.525-.095 1.075-.556.549-.46.7-1.12 1.456-1.438.772-.23 1.257-.047 1.901.017.644.065 1.94-.261 2.791-.053.851.207 1.201.144 3.237.408 1.948.28 4.007 1.172 2.608.432-1.399-.741-3.546-1.618-4.412-1.913-.867-.295-2.385-1.195-3.117-1.243-.732-.048-1.018.365-1.582-.256-.581-.708.724-.492-.731-1.042s-5.019-.267-4.469-.728c.549-.461 3.395.289 4.318.394.922.104 2.886.471 2.107.16-.866-.295-1.884-.924-2.957-1.362-1.074-.439-3.332-.933-3.117-1.243.318-.239 1.209-.31.327-.692-.867-.295-1.598-1.338-3.205-1.228-1.606.11-3.339-1.474-4.396-1.825-1.058-.35-7.999-2.257-9.558-2.878-1.645-.606-3.45-1.093-4.524-1.531-1.145-.335-3.856-.838-2.68-.328 1.177.51 3.324 1.386 2.52 1.441-.803.055-2.711-.503-2.783-.4-.071.104 2.091 1.068 1.169.964-.923-.104-2.609-.432-2.664-1.235-.055-.804.2-1.392-.372-1.559-.573-.168-2.775-.854-2.712-.504-.024.366.365 1.019-.12.835-.485-.183-.882-.382-1.049-.804-.167-.421-.556-1.074-1.081-.979-.422.167-.017.907-1.058.643-1.042-.263-1.289-.128-1.129-.247.071-.103 1.28-.413.12-.835-1.161-.422-4.85-1.833-4.612-1.515.238.318.302.668-.167.573-.486-.184-.271-.494-1.137-.789-.867-.295-1.098-.072-1.71.039-.613.111.23.771-.772.23-.986-.454-.166-.422-1.399-.741-1.232-.319-2.091-.073-2.736-.137-.644-.065-3.753-.767-3.045-.353.707.414.882.383 1.94.734 1.057.35 3.785.941 3.26 1.036-.525.095-1.313.238-2.005-.089-.604-.342-.675-.239-.675-.239-1.344.062-2.911-.106-4.279-.672-1.351-.478-3.371-.654-3.856-.838-.485-.183-1.924-.646-2.227-.32-.302.326.015 1.082.898 1.465.986.454 4.786 1.483 4.452 1.634-.318.238-4.15-.966-4.413-.919-.191-.055-1.113-.16-.462.445.668.693 2.529.989 2.195 1.14-.334.15-1.154.118-.462.445.692.326 1.908.558 3.435 1.005 1.439.462 2.616.972 3.689 1.41 1.073.439 1.884.924 2.226 1.314.342.39.747 1.13.476 1.631-.271.501-.169 2.561-.615 3.094-.533.548-1.376.882-.128 1.288 1.248.407 2.608.432 3.006.631.397.199 1.137.788.747 1.13-.39.342-.598 1.193-1.027.819-.445-.462-1.963-1.362-2.592-1.339-.644-.064-1.169.031-1.575.285-.405.255-1.01.906.016 1.082 1.025.176 1.662-.301 2.632.066.97.366 1.264.494 1.137.788-.215.31.771.764-.78.684-1.551-.081-1.949-.28-2.537-.535-.572-.168-1.463-.097-1.606.11-.16.119-.765.771-1.314 1.232-.549.46-1.479.81-1.504 1.176-.024.365.421.827.166 1.415-.342.605-.024.366-.398.796-.462.445-.74.405-.398.795.342.39 1.153-.119.437.915-.717 1.033.229 1.766.189 2.044-.112.382-.883.612.103 1.066.985.454 2.305.757 2.416 1.37.127.7.389 1.647 1.208 1.679.906.017 1.368-.428 2.705-1.032 1.336-.603 2.013-1.358 3.182-1.389 1.256-.047 1.033.716 2.466-.356 1.36-.97.024-1.36 2.044-1.184 2.02.177.334-.151 2.37.114 2.124.248 3.229.861 3.809.575.581-.286 4.025-.728 5.783-.504 1.669.24 2.011.63 3.387.742 1.392.2 4.406.377 4.907.648.5.271 2.839.209 3.586.345.683.78 1.439.462 1.439.462zM550.38 267.822c.955-.715 1.695-1.12 1.75-1.311.056-.191-.079-.437-.079-.437-.867-.295-1.312.237-1.837.332-.525.095-1.678.214-2.061 1.096-.382.883-.605 1.646-.661 1.837-.215.31 1.933-.802 2.888-1.517zm-11.553 7.062c-.279.954-1.505 2.17-.813 2.497.675.239 2.354.026 1.502.812-.764.771.715.955-.343 1.599-1.042.731-.995.993-1.48.81-.485-.183-.047-.262-.779-.311-.732-.048-1.257.047-1.337.604-.08.556.318.756-.35 1.057-.669.302-1.973 1.08-1.242 1.129.644.064 2.586-1.191 3.508-1.087.907.016 1.439.462.906 1.011-.533.548-.788 1.136-1.591 1.191-.716.04-1.146.66-2.013.365-.866-.295-.142-.788-1.105-.614-.946.262-1.201-.144-1.909.436-.231.223-.565.374-.971.628.613-.111 1.329-.15 1.623-.023.938.192 1.71-.038 1.248.407-.461.445-1.098.922-1.066 1.097.031.175.389.652.349.931-.04.278 1.297-1.32 2.244-1.581.946-.262-.073 1.097.477.636.549-.461 1.75-1.311 2.498-2.169.764-.771.639-2.465 1.06-2.632.509-.183 1.384-.341 1.655-.842.255-.588-1.05.19-.556-1.074s.606-1.646.741-2.394c.136-.747.447-1.526 1.131-1.741.684-.214 3.023-1.27 2.578-1.731a21.766 21.766 0 00-.771-.765c-.691-.326.041-1.272-1.145-.335-1.185.938-1.958 2.162-2.602 2.098-.572-.167-1.168-.963-1.447-.009zm-9.647 10.603c.469.096 1.137-.206 1.805-.508-1.153.119-2.274.412-1.805.508zm.878-5.13c-1.034.278-2.664.754-2.673 1.207-.032.82 4.065-1.007 4.447-.895.381.112.875-.158 1.336-.603.446-.533 2.093-.921 1.926-1.343-.079-.438-.613.111-2.299.778-1.599.651-1.702.579-2.737.856zm-16.697 15.585c-.668.302-.271 1.495.516 1.352.788-.142.462-.445 1.489-1.263 1.01-.906 1.337-1.598 2.14-1.653.891-.071-.001.994-.59 1.734-.692.667-1.106 1.375-.725 1.487.382.111.119 1.153.915.557.883-.612 1.416-1.16 1.894-1.518.565-.373.533-.548.669-1.296.135-.747-.326-1.296.199-1.391.525-.095 1.806-.508 2.029-.277.222.231-.908.977-.494 1.264.413.287 2.051.352 2.377.654.326.303.111.613-.438 1.074-.549.46-1.52 1.088-.319 1.232 1.201.144 1.781-.142 2.545.082.676.239 1.86 1.29 1.86 1.29s1.035-1.272-.929-1.64c-1.965-.367-3.309-.304-2.919-.646.39-.342 2.395-1.247 1.234-1.669-1.073-.439-3.292-.218-2.56-1.164.645-.93 1.448-.985-.293-1.121-1.742-.137-2.442-.01-3.063.554-.636.477-1.137.206-.675-.239.461-.445 1.918-1.884 1.918-1.884 1.161-.572 2.242.408 3.005.631.78.311 2.712.503 3.38.201.653-.389 1.536-1.001 1.536-1.001s-2.267.953-2.951.173c-.683-.78-1.287-1.122-1.86-1.29-.572-.167-1.67-.24-2.625.475-1.042.731-.406 1.249-2.299 1.772-1.893.524-2.387.794-2.633.929-.231.222.095.525-.685 1.208-.709.58-.979 1.081-1.648 1.383zm-4.131 5.628c.255-.588-.469-1.09-.469-1.09l-1.4.253c.294.128.509.812.906 1.011.294.128.708.414.963-.174zm8.54 1.255c.143-.206-.977-.907-2.131-.789-1.137.206-1.829-.12-2.235.134-.405.254-1.495.722-1.495.722 1.972-.086 2.028-.276 2.775-.141.748.136 2.943.281 3.086.074zm9.598 1.607c1.472-.357 1.177.51 1.177.51s1.297-1.32 1.218-1.757c.008-.454 1.337-1.598.247-1.129-1.002.452-1.551.913-2.41 1.159-.947.262-1.678.213-1.472.357.151.334 1.24.86 1.24.86zm15.151 9.819c-.396-1.194 1.171-2.02.583-2.275-.589-.255-1.996-.542-1.765-1.759.248-1.129 1.298-1.319 1.664-2.289.279-.954-.069-2.88-.458-3.532-.302-.668-3.72-3.574-4.156-4.489-.437-.915-2.386-.201-3.42.077-.947.261-2.363.427-2.195-.145.167-.573 1.695-2.115 1.084-2.998-.525-.899-4.533-1.077-4.534-.083-.104.922.843.661.715 1.949s-.59 1.734.833 2.108c1.424.375 1.812 2.022 1.286 3.111-.438 1.074-1.821.421-2.601 1.104-.693.668-1.425 1.614-.28 1.948 1.073.439 1.272 1.035 1.597 2.332.325 1.297-2.038 2.719-4.075 4.443-1.95 1.709-3.358 2.416-5.338.966-1.995-1.536 1.633-3.458 2.987-4.968 1.369-1.423-.437-.915-2.067-1.434-1.63-.518-1.828-1.115-3.252-1.49-1.423-.375-1.423-.375-2.116.293-.708.58-2.06 1.096-3.953 1.619-1.878.611-1.042-.263-2.338-.932-1.28-.582-1.757-.224-4.716.402-2.959.626-3.834-.21-4.701.489-.867.7-1.806 1.502-3.58 2.185-1.703.579-5.034-.354-5.989-.633-.954-.279-2.115.292-3.953.625-1.837.333-3.206 1.755-5.641 3.281-2.435 1.525-2.459 2.885-3.383 4.769-.94 1.797-2.038 2.719-3.646 3.823-1.695 1.12-1.997 1.446-.837 2.863 1.144 1.329 6.044.442 7.077 1.159 1.034.717 3.897.56 7.961.547 4.064-.013 4.962.457 6.202 2.311 1.136 1.783.737 2.578 1.023 3.159.286.581-.661.843-.812 1.503-.152.66 2.211.232 1.629 1.512-.566 1.368-.582 2.275.165 3.405.834 1.114 2.393.741 3.76 1.307 1.368.566 2.068.439 4.159.512 2.092.073 2.283.129 4.065-1.007 1.782-1.136 5.959-2.524 9.197-4.105 3.238-1.58 6.238-4.473 7.679-5.999 1.138-1.2 1.72-3.474 1.754-5.288.135.247.445.462.492.724l.222 1.226c.095.525.875-.159 1.496-.723.62-.564.016-.907-.469-1.09-.501-.271-.571-1.162-.651-1.599-.063-.35-.603-1.337-1.255-1.942.327-1.686 1.236-3.658 2-4.429 1.241-1.128.319-1.232.494-2.258.176-1.026 2.093-1.916 2.698-2.567.605-.652 1.998-2.441 4.17-2.924 2.171-.484.898 1.464.809 2.474-.175 1.026.604 1.337 2.098 2.603 1.566 1.162 2.726 2.579 3.235 2.396.613-.11-.556-1.074-.953-2.267zm-13.677 8.802c.492.724-.08.557-.51 1.177-.072.103-.056.191-.144.206a2.16 2.16 0 00-.19-1.05c-.166-.421-.174-.962-.094-1.519.429.374.699.868.938 1.186zm21.07-14.388c.437-.079 1.599-.651.692-.668-.906-.016-1.98.54-2.649.841-.652.39-1.193.397-1.519.095-.326-.303-.667-.693-.667-.693l-.851-.207c-.159.119-.47.898.222 1.225.604.342 1.645.606 2.505.36.962-.175.922.104 1.384-.341.39-.342.342-.604.883-.612zm3.764 7.814c.851-.787.636.517.739.589.103.072 1.09-.469.613-1.105-.389-.653-.819-.033-1.407-1.282-.675-1.233-.842-.661-1.295-1.663-.436-.915-.619-1.425-.436-1.91.184-.485-.389-.652-.389-.652-.215.31-1.313 1.232-.431 1.614.883.383.549.534.938 1.186.389.653 1.081.979 1.232 1.313.151.335.659 1.146.253 1.401-.39.341-1.034.277-1.09.468-.055.191.549.533.875.836.238.318-.598 1.192-.359 1.511.222.231.58-.286.597-1.193.152-.66-.692-.327.16-1.113zm-9.445 16.711c.294.128 1.066-.102.931-.349s.009-1.447-.158-1.869c-.167-.422-.906-1.011-.619-1.424.271-.501.502-1.718.502-1.718-.692.668-1.202 1.844-1.035 2.266.166.422.659 1.146.491 1.718-.167.573-.406 1.249-.112 1.376zm-11.477-40.939c.055-.191-.517-.359-.517-.359-.644-.064-1.193.397-2.077 1.009-.883.612-1.925 1.342-1.949 1.708a7.5 7.5 0 01-.12.835s1.321-1.685 1.703-1.573c.382.112.349.931.723.502.374-.43.327-.692.327-.692s.668-.302.883-.612c.127-.294-.326-.302-.326-.302s1.297-.326 1.353-.516zm-14.927 9.389s-3.133-.336-3.443-.551c-.311-.215-.748-.136-.899-.47-.151-.334-.255.588-1.431.078-1.177-.51-.771-.764-1.153-.876-.382-.111-1.241.135-1.241.135.517.358 1.566 1.162 2.839 1.203 1.272.041 2.433.463 2.799.487.366.024 2.529-.006 2.529-.006zm19.549-22.788c.462-.445.001-.994-.293-1.122 0 0-.533.549-.558.914a1.514 1.514 0 01-.239.676s.613-.111 1.09-.468zm-13.035-85.483c.764.223 2.323-.149 2.323-.149s-.127-.7-.612-.884c-.485-.183-1.892-.47-1.892-.47-.184.485-.479 1.351.181 1.503zm-76.684 12.165c-.922-.104-.175.032-.922-.104-.748-.136-.167-.422-.748-.136-.58.286-.485.811-.947 1.256-.549.461-1.392.794-1.011.906.382.112 1.042.263 1.567.168.509-.182 1.217-.762 1.536-1.001.318-.238.318-.238.851-.787.533-.548.47-.898.47-.898.406-.254 1.718-.492 1.13-.747-.588-.255-1.113-.16-1.273-.041-.159.12-.398.796-.398.796l.294.127c-.071.103.374.565-.549.461zm12.223 12.609c.215-.311-.906-1.011-1.169-.964-.278-.04-2.179-.057-2.179-.057.382.111 1.336.391 1.781.852.238.319 1.352.479 1.567.169zm7.735 3.299s1.138-.206.947-.262c-.191-.056-1.042-.264-1.423-.375-.294-.128-1.169.031-1.169.031l-.684.214c.15.334.842.661 1.12.701.279.04 1.209-.309 1.209-.309zm27.033-53.334c1.264.494 1.94.733 1.653 1.147-.287.413 2.314.304 2.624.519.31.215-1.694.126-1.694.126s-1.535.006-.263 1.041c1.256.948 1.057 1.345 1.351 1.473.294.127 1.074-.556 1.877-.611.716-.039 2.354.026 3.142-.117.7-.127 1.225-.222 1.335.391.199.597-1.559 1.367-1.058 1.638.5.27.047.262 1.526.446 1.551.081 2.768.313 3.277.13.509-.182.128-1.288-.373-1.559-.501-.271-1.152-.876-.906-1.011.159-.119.525-.095.748.136.222.231 1.415.828 2.44 1.004 1.026.176 2.68.328 3.102.161.438-.079 1.901.018.692-.667-1.12-.701-2.735-1.132-3.601-1.427-.867-.295-2.894-1.012-2.998-1.084-.103-.072-2.512-.901-2.846-.75-.35.064-.749.859-1.719.492-.969-.367-1.319-.303-2.13-.789-.724-.502-1.2-1.138-1.51-1.353-.31-.215-3.65-.695-3.65-.695-.494.27-2.299.777-1.019 1.359zm83.156 32.573c1.479.184 2.02.177 2.489.272.469.096 1.551.081 1.551.081s-.827-.573-1.153-.876c-.326-.302-.651-.605-1.105-.613-.453-.008-.811.508-1.336.603-.525.095-1.654-.152-1.344.063.294.128.898.47.898.47zm6.022-2.175c.723.502 1.224.773 1.606.885.382.111 2.354.025 2.211.232-.144.207-1.599.651-.614 1.105.899.47 1.32.303 2.497.813 1.264.494 2.163.964 2.353 1.02.191.056 1.098.073.955.279-.144.207-1.146.66-1.146.66s.986.454 2.321.845c1.336.39 1.718.502 2.41.829.675.239 2.051.351 2.21.232.16-.119.009-.453-1.287-1.122-1.399-.741-1.169-.964-2.019-1.171-.835-.12-1.495-.272-1.495-.272l.764-.771s-.843-.661-1.884-.924c-1.13-.247-.851-1.202.016-.907.867.295 2.362.567.947-.261-1.312-.757-1.375-1.107-2.242-1.402-.795-.398-1.797.054-2.354-.026-.573-.167-2.052-.351-2.052-.351-1.097-.073-3.92-.194-3.197.307zm92.472 50.588c-1.717-1.496-8.354-6.711-11.105-7.931-2.751-1.219-1.827-2.109-3.267-2.571-1.351-.478-4.382.251-4.071-.528.311-.78 4.867-.068 4.94-1.166.088-1.01-4.548-2.159-6.424-3.536-1.963-1.362-3.799-3.018-6.256-3.115-2.458-.098-.572-1.162-.317-1.75.255-.589-7.989-4.699-10.335-5.178-2.33-.392.852-1.781-.834-2.109-1.686-.327-11.155-3.222-10.719-2.307.437.915.642 3.047-.328 2.68-1.057-.351-.857-2.737-2.527-2.977-1.685-.327-1.415.166-2.553.372-1.05.19-6.632-.697-8.731-2.305-2.098-1.609-3.092-1.609-3.68-1.864-.589-.255-1.001-2.53-3.1-2.15-2.029.276-4.86.608-3.953-.369.908-.978 3.675-.666 2.252-2.035-1.422-1.369-4.27-1.125-6.63-2.685-2.155-1.418-4.468-2.716-9.399-2.998-.103-.072-.206-.144-.222-.231-.398-.199-.811-.486-1.264-.494-.454-.009-1.329.15-1.607.11-.294-.128-1.217-.232-1.98-.455-.676-.239-1.407-.288-2.377-.654-.97-.367.454-.986-.54-.987-.995-.001 0 0-.2.397-.199.398-1.678.214-2.513.094-.819-.033-.898-.47-1.502-.813-.517-.358-.214-.684-1.137-.788-.922-.104-.772.23-.661.843.111.612-.787.142-1.55-.081-.676-.239-.946-.733-1.75-.678-.875.159-1.678.214-2.147.118-.485-.183-1.193-.597-2.314-.304-.963.174.167.422-1.456.444-.779-.311-1.367-.565-1.677-.78-.104-.072-.223-.231-.326-.303l.159-.119s1.678-.214 2.203-.309c.438-.079-.548-.533-.771-.764-.222-.231-.588-.255-1.097-.072-.334.151-.978.086-1.813-.034-1.471-1.631-3.338-3.462-7.33-3.553-5.44-.099-3.835 1.779-6.285 2.222-2.466.356-4.199-.234-4.526.458-.31.779-.319 1.233-2.099.38-1.781-.852-4.063-1.975-4.731-2.668-.667-.692-4.085-3.598 2.548-3.895 6.618-.385 15.173 1.952 15.953 1.269.78-.684-2.616-.973-5.502-1.444-2.815-.575-5.033-2.342-11.65-1.958-6.705.4-8.638 1.202-7.716 2.301.922 1.098 5.501 3.432 4.673 3.853-.739.405-4.158-1.507-7.363-1.74-3.117-.249-6.839.154-7.38-.833-.627-.971-1.7-2.403-2.662-2.229-.978.087-1.465 1.892-3.032 1.724-1.479-.184-4.192 1.301-6.124 1.108-1.933-.192-5.039-4.871-5.039-4.871s6.073 4.594 9.398 2.998c2.483-1.263-3.694-4.935-7.422-7.061.159-.119.334-.151.405-.254.406-.255-.23-.772-.524-.9-.294-.127-1.614-.43-2.831-.662-.294-.128-.691-.327-1.176-.51.334-.151.93-.349 1.074-.556.215-.31-2.059-.892-2.059-.892s-1.313.237-2.482.268c-.954-.279-1.98-.455-3.006-.631a12.937 12.937 0 00-2.496-.813c-2.465-.638-2.585.197-3.229.133-.644-.064-.867-.295-1.98-.455-1.201-.144-2.132.205-1.822.42.223.231-1.146.659-1.671.754-.525.095-2.059.102-2.513.094-.541.007-1.933.802-2.53 1-.509.182-1.98.539-3.261.952l-.175.032c-2.442-.01-6.727-1.223-9.37 1.153-2.626 2.464-.654 3.372.825 3.556 1.392.2 4.024.266 4.024.266l-1.983 3.522s-.642-3.047-4.229-2.397c-3.5.633-3.772 3.123-3.772 3.123s-5.273-.673-5.956-1.453c-.596-.796 3.222-1.667 3.222-1.667s-2.544-1.076-3.284-.671c-.74.405.325 1.297.325 1.297s-.803.055-1.463-.097c-.588-.255-2.393-1.736-1.947-2.268.446-.533-.285-1.576-.285-1.576s1.965-.626 2.387-.793c.421-.167.771-.23.74-.405-.12-.159-2.203-.686-1.885-.924.319-.239 1.663-.301 1.719-.492.127-.294-2.235-.861-2.656-.694-.422.167-1.671.754-2.124.746-.366-.024-.199-.597-.899-.47s-.279.954-.525 1.089c-.231.223-1.114.834-.995.994.119.159 1.789.399 1.312.756-.478.358-1.337.604-1.329 1.145.007.54.921 1.098.5 1.265-.422.166-1.814-.034-2.45.443-.637.477-1.758.77-1.758.77l.802.939s-3.301.236-3.253.499c.063.35 2.95.822 3.61.973.66.152 3.777 1.395 4.882 1.014 1.106-.381 3.962-2.073 4.193-1.301.23.772-4.75 2.215-6.698 1.936-1.949-.28-2.934-.735-3.197-.687-.278-.04.055.803-.883.612-.939-.192-2.887-.472-3.308-.305-.422.167 2.487 2.261.975 3.89s-2.579 2.726-3.859 2.145c-1.28-.582-4.794-2.024-5.486-2.351-.676-.239-1.63-.518-2.195-.145s-1.146 1.654-2.204 2.297c-1.059.643-2.976 1.533-3.263 1.946-.389.342.358.478-.525 1.089l-1.433 1.073s.485.183 1.233.319c.747.136 1.527.447 1.097 1.067-.43.62.23.772 1.12.701.891-.071 2.585.797 3.722.591 1.153-.118 2.322-.149 2.688-.125.366.024 1.981-.539 2.387-.793.406-.255.191-.939 1.91-1.431 1.734-.404 4.923-.258 5.384-.703.462-.445.582-1.28 2.308-1.231 1.622-.023 2.185 1.592 2.623 1.513.437-.079 1.972-.086 2.585-.197.612-.111 2.402-.706 2.202.686-.271 1.495-.964 3.157-.019 3.889.946.733 1.535.988 1.367 1.56-.167.573.214.685.19 1.05-.111.382-.366.97-.7 1.121-.422.167-.653.39-1.369.429-.715.039-2.13-.789-2.862-.838-.748-.135-1.113-.16-1.153.119-.128.294.818 1.026.913 1.552.183.509.58.708.58.708l.74-.405s.167-.573.605-.652c.35-.063 1.137-.206 1.257-.047.119.159 1.065-.102 1.224-.221.16-.12.86-.246 1.035-.278.19.056.875-.158.827-.421-.048-.262-.27-.493.136-.747.406-.255.883-.612 1.137-.206.239.318.302.668.246.859-.056.191.573.167.788-.143.143-.206.414-.707 0-.994-.413-.287-.802-.939-.675-1.233.144-.207.843-.334.064-.645-.779-.31-1.2-1.138-.77-1.758.43-.62.327-.692.248-1.129-.167-.422-.047-1.257.915-1.431.947-.262.93.645 1.089 1.52.158.875 1.374 2.101 1.453 2.538.167.422 1.017 1.624.627 1.965-.302.326-1.902.977-1.751 1.311.064.35.15 1.329-.192 1.933-.271.501-.207.851-.088 1.01.016.088-.7.127-.74.405-.024.366.413.287-.064.644-.565.374-.478.358-.08.557.397.199.667.693.683.78.016.088.788-1.137 1.067-1.097.191.056.724-.492 1.002-.452.278.04.349.931.668.692.334-.151 1.002-.452.939-.802-.048-.263.088-1.01.056-1.185.04-.279.176-1.026.685-1.209.509-.182.286.581.914.558.644.064 1.265-.5 1.544-.461.294.128.397.2.985.455.676.239.859.748.859.748s-1.106.381-1.48.81c-.287.413.501.271-.192.939-.605.651-.939.802-.907.977-.04.279-.048.732-.367.97-.23.223-.095.469.199.597.381.112.954.279.755.677-.199.397-.152.66.421.827.556.08 1.265-.5 1.646-.388.382.111.946.732 1.041 1.257.183.509 1.399.741 1.837.662.525-.095 1.265-.5 1.503-.182.223.231.811.486 1.161.423.437-.08.628-.024.31.215-.422.166-.788.142-1.09.468-.302.326-.477.358-.78.683a4.87 4.87 0 01-1.941 1.256c-1.003.452-3.74 2.303-4.853 2.143-1.114-.16-.898-1.464-2.552-1.616-1.567-.169-2.641.387-3.523.005-.883-.383-2.703-1.951-3.069-1.975-.453-.008-.357-.478-.198-.597.159-.119-1.248-.406-1.343-.931-.095-.526-.349-1.926-2.624-1.514-2.275.412-2.108.834-2.498 1.175-.39.342-1.607 1.105-1.965.627-.373-.565-.873-1.83-1.533-1.981-.66-.152-.596-.796-.254-1.401.359-.516-.619-1.424-1.366-1.56-.748-.135-1.304-.215-1.431-.915-.039-.716-.254-1.401.08-1.551.335-.151 1.424.375 1.917.105.477-.358-.357-.478-.158-.876.199-.397.024-.365.064-.644.04-.278.096-.469.621-.564.437-.079 1.121-.293 1.089-.468-.015-.088-.978.086-.938-.192.128-.294.168-.573-.405-.74-.557-.08-1.607.11-2.052-.352-.445-.461-.882-.382-1.542-.534-.66-.151-1.153.119-1.638-.065-.398-.199-1.431-.916-2.735-1.131-1.392-.2-4.803-.577-5.853-.387-1.05.19-1.679.214-2.14-.335-.46-.55-2.226-.32-2.218-.774.024-.366.001-.994.001-.994l-1.082.015s-1.957 1.168-4.804 1.412c-2.848.244-4.018 1.27-5.307 2.136-1.289.866-3.206 1.755-5.648 1.745-2.441-.01-5.688 2.024-7.278 2.221-1.591.198-7.366 2.238-8.004 3.709-.55 1.455-1.537 2.989-4.831 4.76-3.206 1.755-7.089 4.266-6.027 9.134 1.062 4.869 2.031 6.23 2.031 6.23s4.669-.665 5.726.68c1.144 1.33 5.773.944 7.618 1.152 1.758.224 2.019 2.165 1.636 3.047-.382.883 6.243.045 2.352 3.009-3.891 2.964-5.347 3.408-5.888 4.41-.542 1.001-.798 3.578-1.834 5.844-1.036 2.266-1.808 3.491-2.826 3.856-1.018.365-.534 1.542-2.157 2.559-1.639.93-5.028 1.181-8.124 4.543-3.096 3.363-2.358 4.946-4.761 7.64-2.492 2.711-3.9 3.418-4.594 6.074-.606 2.64-1.228 4.198-2.485 5.239-1.273.954-2.228 1.669-1.561 2.361.652.605 3.484.273 6.06 1.524 2.56 1.164 9.647-.119 13.481-1.898 3.835-1.779 6.628-3.821 7.932-3.605 1.304.216 3.85-.697 6.118-2.644 2.252-2.034 6.102-2.731 9.53-3.261 3.532-.459 7.113-3.638 8.649-5.633 1.537-1.995 3.457-6.861 11.642-9.066 8.185-2.205 15.749-2.851 21.518-6.426 5.768-3.574 6.715-3.836 4.623-3.909-2.019-.177-8.08.287-7.753-1.398.328-1.686 1.966-1.622 1.609-3.093-.357-1.472-1.254-2.936-.554-4.057.701-1.121 1.61-4.087 3.098-5.351 1.488-1.263 1.856-4.222 2.875-5.581 1.035-1.272 1.681-3.196 3.232-3.115 1.55.08-.497 5.241-1.31 6.743-.9 1.519-3.727 7.363-5.001 9.31-1.362 1.964-1.776 2.672.085 2.967 1.861.296 9.95-.445 13.401-.347 3.364.114 12.305-1.414 13.499-2.805 1.194-1.391-.762-2.212-.443-3.444.319-1.233 2.649-1.836.63-2.012-2.02-.177-5.645-2.232-4.873-3.456.756-1.312 1.243-3.117 2.094-2.91.851.208-.424 3.15 1.698 4.392 2.123 1.243 3.562 1.705 3.577 2.787.031 1.169 8.579 2.966 8.069 5.137-.511 2.171.212 3.666-.227 5.734-.352 2.052-3.569 7.243-5.622 9.874-1.951 2.703-3.4 4.683-2.414 5.137.986.454 6.427-1.435 5.83-.242-.598 1.192-4.273 2.852-3.144 3.099 2.568.71 1.996-.452 3-2.893 1.092-2.456 2.15-3.1 4.378-4.768 2.244-1.582 4.471-2.256 7.78-2.945 3.309-.69 11.868-2.329 13.107-.475 1.24 1.854.761 4.2-1.181 5.455-1.941 1.256-.399 1.79-.169 2.561.143.788 1.384.654-1.489 3.252-2.889 2.511-4.33 4.038-5.756 7.639-1.426 3.603-1.841 4.31-2.365 3.411-.524-.899-.427-2.363-1.437-3.445-.993-.995-.682-2.769-1.676-1.775-.995.993-1.331 3.132-2.105 6.345-.774 3.213-.505 5.695-1.421 8.12-.933 2.338-.838 2.863 2.692 5.387 3.529 2.524 9.651 4.398 9.651 4.398s-3.982-3.527-5.452-5.158c-1.47-1.632-2.249-1.943-1.079-2.968 1.17-1.025 2.539-2.448 2.445-4.961-.077-2.426 2.843-4.762 3.314-6.655.486-1.805 1.166-7.532 4.475-8.221 3.397-.705 1.525 3.429.339 4.367-1.098.922 2.393 1.736 6.609.069 4.304-1.683 5.815-2.318 6.843-5.125 1.044-2.719 2.239-5.105 4.745-5.739 2.505-.634 2.958.368 1.16 1.417-1.814.961-3.247 2.033-1.799 2.042 1.447.01 4.041-1.635 5.481-2.167 1.44-.531 6.703 1.588 13.091-.562 6.388-2.151 10.365-3.142 13.151-6.719 2.787-3.577 2.023-3.8 3.217-4.197 1.209-.309 2.035.264 2.784-.594.764-.771-1.072-2.427 1.194-2.385 2.267.041 3.603.432 2.465 1.632-1.139 1.2 1.335 1.385-1.172 3.014-2.49 1.716-2.419 2.607.078 2.426 2.41-.165 4.271-.864 5.195-2.748.924-1.885-.109-2.601 1.132-2.736 1.24-.134 3.3-.236 4.04-.641.74-.405 2.498-1.175 4.478-.72 1.98.455 6.124.88 11.764-1.406 5.656-2.199 8.449-4.241 8.767-3.485.301.668-5.93 5.682-8.905 7.215-2.992 1.445-2.872.61-6.142 3.01-3.271 2.399-8.393 3.055-10.254 2.759-1.773-.311-7.515-.085-8.796.328-1.281.412-2.96 2.614-2.444 2.972.517.359 3.358-1.421 5.218-1.125 1.861.296 4.486-.179 6.251.586 1.765.765 3.108 1.696 5.368.203 2.26-1.494 4.217-2.662 5.347-3.408 1.13-.747 3.056-3.084 3.756-3.211.7-.126 2.06.893 4.398.831 2.322-.149 7.484-1.084 7.484-1.084s-6.64-.244-6.989-1.175c-.334-.843-.508-1.806.629-2.011 1.05-.191 2.618-2.011 3.859-2.145 1.169-.031.477.637 2.817-1.414 2.339-2.05 4.131-4.633 3.439-4.96-.692-.327-5.487-1.357-5.351-2.104.136-.748-.897-1.464-.897-1.464s7.971-2.889 14.673-.307c6.703 2.582 9.637 3.316 10.774 3.111 1.122-.294 7.119-1.108 7.571-.106.453 1.003 2.879.925 3.149 1.418.27.494-2.451 1.438-5.974 1.443-3.523.005-7.086.289-8.774 1.95-1.671 1.749-4.25 4.475-3.63 4.905.62.43 4.686-1.571 7.23-1.49 2.458.098 3.397-.705 4.487-1.174.986-.54 3.158-1.023 3.532-1.452.374-.43.558-1.909 3.588-1.644 3.03.265 6.736.769 6.719 1.676-.016.906 4.645-.299 7.11.339 2.449.551 6.02.808 6.696 1.048.763.223 2.387-1.788 3.444-1.437 1.058.35 5.534 1.619 6.742 3.298 1.136 1.782 6.475-2.167 4.743-3.751zm-194.565-61.477c1.003-.453 1.878-.611 2.769-.682.89-.071 1.741.136 2.298.216.469.096 1.113.16 1.519-.094.406-.254.716-.039 1.106-.381.374-.429-.39-.652.708-.58.994.001 2.378-.34 2.529-.006.063.35.103 1.066-.963 1.169-1.066.102-1.75.316-2.657.3-.906-.017-1.336-.391-1.845-.208-.525.095-1.265.5-1.185.937.079.438-.001.994-.86 1.24-.772.23-2.068.555-2.951.173-.795-.398-1.057-.351-1.28-.582l-.103-.071c-.167-.422 0-.995.915-1.431zm6.907 5.708c-.826-.573-5.057-.982-5.829-.752-.771.23-1.336.603-2.076 1.008s-1.79.596-2.355.969-.024.366-.239.676c-.287.413-2.697.578-3.381.793-.7.126-.246-.86-1.025-1.171-.795-.398-1.542-.534-2.051-.351-.509.182-1.257.047-1.702-.415-.445-.462.493-.27.931-.349.437-.079.024-.366-1.217-.232-1.153.118-1.352-.478-.946-.732.915-.437 1.233.319 2.37.113 1.138-.206 1.598.343 2.943.281 1.344-.063 1.535-1.001 2.084-1.462.549-.461 2.498-.181 3.341-.515.859-.246 3.205.233 4.072.528.866.295 4.635 1.149 6.496 1.445 1.877.383 1.392.2.986.454-.438.08-1.575.285-2.402-.288zm-4.4 24.113c-.97.627-2.95.173-4.199-.234-1.232-.319-1.621-1.966-3.235-2.397-1.614-.431-3.077-.527-4.978-.545-1.917-.104-3.197-.686-2.886-1.465.327-.692.741-1.4.972-1.622.97-.628 1.964-.627 2.545-.913.581-.286 3.174-.936 4.462-.808 1.289.129 2.33 1.386 1.884 1.919-.446.532.167.421.898.47.732.048 2.959.368 3.395 1.283.437.915.746 2.124 1.072 2.427.413.286 1.041 1.257.07 1.885zm7.596 10.012c-.263.047-1.026-.176-2.258-.495-1.145-.335-1.288-1.123-1.192-1.592.096-.469-.93-.645-.325-1.297.605-.651.955-.715 1.376-.881.406-.255.406-.255 1.249-.588.844-.333.851.208 1.304.216.454.008.231-.223.065-.644-.167-.422-.206-1.138-.118-2.148.001-.994.391-1.336 1.202-1.844.812-.509-.167-.422.47-.899.549-.461 1.981-.539 3.253-.498 1.273.04 1.36.025 1.973-.086.612-.111.008-.454.533-.549.525-.095 1.598.344 1.622.972.023.628-.9.524-1.265.5-.35.063-1.663.301-1.814-.033-.15-.334-.325-.303-.612.111-.303.326-.239.676-.263 1.041-.024.366-.328 1.686.189 2.045.517.358-.605.651-.836.874-.318.238-.454.986-.86 1.24-.405.254-1.241 1.129-1.44 1.526-.199.398.246.859.015 1.082-.334.151-1.759 1.764-2.268 1.947zm76.313-27.19c.191.056.986.454 1.329-.15.342-.605.072-1.098.334-1.145.247-.135.923.104 1.201.144.294.127-1.383-.654-1.661-.694-.191-.055-.39.342-.2.398.191.056.756.677-.064.644-.835-.12-1.423-.375-1.463-.096-.04.278.333.843.524.899zm-226.518 33.053c-.269-1.488-.348-2.919-2.288-3.653-1.94-.733-2.487-3.255-2.613-3.955-.127-.7-.85-2.196.05-3.714.9-1.519-.012-5.059-.083-5.95-.071-.891-3.085-1.068-3.838-3.733-.754-2.665 1.942-2.25-.801-3.922-2.726-1.585-4.174-1.594-5.764-2.391-1.59-.796-.928-2.633-2.383-3.183-1.455-.55-7.779.956-9.076 1.281-1.312.238-1.185-.056-1.582-1.25-.396-1.193-3.157.03-4.19-1.681-1.048-1.799 7.226-5.014 8.093-5.713.867-.699-.421-.827-2.504-1.354-2.068-.439-5.121-1.332-5.121-1.332s1.91-1.431 3.605-2.551c1.694-1.12 4.828-1.778 5.219-3.114.391-1.335-2.942-1.274-4.986-1.085-2.044.189-5.378 3.233-7.993 1.266-2.615-1.966 4.466-6.773 5.827-7.742 1.289-.866 1.95-1.709 4.543-2.359 2.681-.666 5.32.935 6.862 1.469 1.63.518 4.239-.045 5.893.108 1.655.152 1.311 1.751.872 3.818-.51 2.171-3.446 3.426-3.446 3.426s2.266 1.036 4.478.274c2.227-.675 5.348-5.397 7.146-6.445 1.798-1.049 9.195-1.122 10.372-1.607 1.265-.5 1.974-2.074 5.824-3.765 3.835-1.779 6.069.076 6.363.204.294.127.867-.7 1.162-1.566.279-.955 1.854-1.24 3.286-1.318 1.344-.063 5.964.005 5.964.005s-1.662.3-2.585 1.191c-.923.89 1.32.303 3.658.241 2.322-.149 5.965.005 5.965.005l.35-1.058s-1.932-.192-2.95-.821c-1.017-.63-.325-1.297.71-2.569s-6.218-1.405-6.218-1.405 3.134-.657 5.091-.831c1.972-.086 6.535 2.161 7.577 2.424.954.279 3.587-.649 5.114-.203 1.527.447 2.991-.451 3.564-1.277.573-.827-.865-2.284-1.722-5.021s.807-6.02.807-6.02-2.354.968-3.945 1.166c-1.591.198-2.449-.551-2.05-2.34.415-1.702-.809-3.469-2.105-4.138-1.296-.669-4.746-1.761-4.746-1.761l-1.847 1.78c-1.154 1.113-3.619 1.468-3.619 1.468s1.605 1.879.323 3.286c-1.194 1.391-5.854.608-5.854.608s-2.269 2.941-2.841 2.773c-.572-.167.002-2.982.965-4.151.86-1.24-3.275-2.118-5.142-3.949-1.868-1.831-4.681-4.394-2.7-5.928 1.982-1.533 8.177-1.751 10.619-1.741 2.457.097 6.228-1.037 6.228-1.037s-2.22 1.215-3.692 1.571c-1.471.357-.803.056.015 1.082 1.073 1.433 3.086.074 4.119.791 1.018.629 3.014 1.172 3.014 1.172s-2.623-2.508-2.606-3.415c.032-.819 2.187-.396 3.666-.212 1.479.184 2.116-.292 2.021-.817-.183-.509.517-.636 1.742-.858 1.313-.238.256-1.583 1.003-1.447.748.136 2.52 1.442 1.971 1.903-.636.476-1.511.635-1.241 1.128.286.581.682 1.774-.026 2.355-.796.595-5.083 1.372-3.015 1.811 2.067.439 4.786 2.477 5.27 3.655.468 1.09 4.554 3.694 4.801 3.559.246-.135-1.302-3.199-1.302-3.199s2.456 2.086 3.513 2.437c1.074.438 2.068-.555 1.751-1.311-.302-.668-1.779-2.841-.26-2.935 1.519-.094 1.136 1.782 1.994 2.531.858.748 4.191-.307 4.669-.665.477-.357-1.446-1.997-2.606-3.414-.461-.549-.644-1.058-.635-1.512-.064-.35 1.002-.452 1.042-.731.024-.366-1.009-1.082-1.104-1.607-.262-.947-3.012-3.16-5.214-4.84-.516-.359.033-.82-.293-1.122-.636-.518-2.131-.789-2.266-1.036-.906-1.011-6.042-2.431-6.042-2.431s-4.485-1.809-7.357-.204c-2.8 1.501 2.224 4.297 2.224 4.297s-4.066 2.001-5.123 1.65c-.97-.367 1.115-1.828 1.115-1.828s-2.44-2.993-2.852-4.274c-.413-1.281 1.178-1.478 2.601-1.103 1.423.374 3.516-.547 3.516-.547s-3.228-1.855-5.248-2.032c-2.02-.176-2.291 1.319-4.423 2.518-2.117 1.287-4.248.498-7.254.861-2.991.451-5.908-2.184-6.456-2.717-.461-.549-7.69-1.048-9.709-2.219-2.019-1.171-5.684-3.942-8.593-6.036-2.925-2.181-5.35-3.098-7.441-3.171-2.004-.089-8.072-1.16-13.947-4.163-.461-.549-1.009-1.083-2.392-1.736-2.091-1.067-1.55-1.075-3.3-1.752-1.765-.765-4.015-.719-4.261-1.579-.246-.859-.063-1.344-1.805-1.48-1.741-.137-2.728.403-3.817-.123s-2.973-1.45-4.699-1.499c-1.726-.049-3.253.499-4.573.195-1.32-.303-3.165-.511-2.394.253.477.637 1.256.948 1.009 1.083a.663.663 0 00-.334.15l-.35.064c-1.416.166-2.037.73-2.8.507a1.815 1.815 0 01-1.121-.701s-1.743 1.852-1.854 2.233c-.2.398.54.987-.645.931-1.185-.057-2.307.236-2.577-.257s-1.565-2.157-1.828-1.115c-.192.938 3.18 1.593 1.66 2.682-1.536 1.001-2.147.117-2.332 1.597-.271 1.495-1.225 1.216.262 1.941 1.486.725.666 1.686 2.932 2.722s2.258 1.489 2.846 1.744c.501.271 2.767.313 1.383.654s-1.201.85-5.504.544c-4.389-.29-12.333-1.744-12.127-1.6.191.056 12.373 2.459 14.202 2.58 1.83.121 2.816-.419 5.464-.266 2.649.153 5.608-.473 4.724.139-.883.612-2.052.643-2.839.785-.772.23-2.984.992-1.377.882 1.607-.11 2.664.241 4.072-.466 1.321-.691.105-1.917 3.318-1.143 3.3.758 6.569.347 7.809 1.207 1.327.844.85 1.202 2.495 1.808 1.646.605 3.99 4.067 3.997 5.602-.009.454.071.891.166 1.416-.017.907.022 1.623.261 1.941.103.072.222.231.238.319.079.437.039.715-.136.747-.7.127-1.955-1.815-2.02-.176-.065 1.638-.391 2.33.571 2.156.963-.175 1.838-1.327 2.545.081.016.088.119.159.135.247.032.175-.008.453-.064.644-.08.557.206 1.138.524 1.893-1.893-.47-1.98-1.449-1.877-.383.103 1.066.619 1.424.953 2.268.333.843 1.731 2.578 1.835 2.65-.175.032-1.082.015-1.623.022-.612.111-1.559 1.367-3.581 3.179-2.021 1.812-2.196 1.844-3.207 2.75-1.011.906-4.289 3.759-4.569 5.707-.28 1.949-1.298 1.319-.249 3.118.961 1.814.635 1.511 1.199 2.132.104.072.119.16.151.335-.382.882-1.027 1.812-1.131 2.735-.844 1.327-2.228 1.668-1.633 2.464l.358.478c-.215.31-.327.691-.454.986 0 0-.088.015-.072.103-1.201.85-.97.628-.311 1.773l.063.35c.111.613.047 1.257-.105 1.917-1.511.635-1.026.819-.812 1.503a.684.684 0 00.254.406c-.223.763-.39 1.336-.112 1.376.644.064 1.361-1.964 2.301-3.761.94-1.797 1.929-6.314 2.899-5.947.883.383-.536 4.525-1.509 8.136-.973 3.61-2.063 5.073-2.311 7.196-.249 2.124 4.949 6.876 6.945 7.419 2.083.526.063 1.344 2.057 3.875 2.082 2.515 1.699 4.392.934 6.157-.765 1.765 1.054 4.328 3.607 3.956 2.554-.372 1.837.661.102 3.054-1.736 2.393-5.148 3.011-8.41 3.963-3.261.951-6.946 4.059-8.665 5.545-1.734 1.398-.589 1.733-2.078 3.991-1.489 2.258-4.435 6.948-3.61 9.51.825 2.562 1.539 4.511-.928 6.855-2.467 2.345-12.803 8.644-14.331 10.186-1.528 1.542-4.528 3.44-7.567 4.623-3.038 1.183-2.776 1.135-5.315 3.583-2.539 2.448-6.127 4.092-12.014 7.507-5.888 3.416-4.142 8.07-1.853 9.734 2.274 1.577 5.264 1.126 5.264 1.126-1.9-1.012-.243-3.842 1.269-5.471 1.6-1.646 5.321-1.054 6.785-1.952 1.568-.826-.857-1.742.185-2.473 1.042-.731 3.038-.189 3.746-.769.621-.564 2.284-.865 3.874-1.063 1.575-.285-.134-1.24.574-1.82.621-.565.963-.175 2.306.757 1.343.932 3.285-.324 4.972-.99 1.686-.667 4.62.067 6.545-.282 1.925-.348 5.751-1.673 8.424-1.886 2.656-.3 4.725-1.85 8.989-3.254 4.264-1.404 3.334-2.05 6.834-3.677 3.413-1.612 8.614-.837 10.809-.692 2.195.145 4.916-1.793 6.555-2.723 1.639-.929 2.919-.347 2.824-.872-.095-.526 1.768-2.218 3.717-3.927 1.95-1.708 5.394-2.151 9.077-3.27 3.683-1.118 4.336-2.502 5.149-4.004.089-2.005-1.32-1.298-1.573-2.698z" fill="url(#paint4_linear)" fill-opacity=".2"/></g><ellipse cx="297.21" cy="222.026" rx="2" ry="1" fill="#EEBE42"/><path d="M388.71 209.526c3.334-11 12.94-30 27.5-30 14 0 16.834 15.667 16.5 20" stroke="url(#paint5_linear)"/><path d="M338.71 158.026c7-35.167 33.8-103.7 85-96.5 51.2 7.2 63.667 106.333 63.5 155" stroke="url(#paint6_linear)"/><path d="M335.71 158.026c7.334-16.5 28.5-47.9 54.5-41.5 26 6.4 41.5 50 46 71" stroke="url(#paint7_linear)"/><path d="M492.21 216.373c7.334-16.5 24.5-37.247 50.5-30.847 26 6.4 36 30.847 36 36.5" stroke="url(#paint8_linear)"/><path d="M387.71 213.026c-6.5-13.334-25.4-38.4-49-32-23.6 6.4-37.166 29.666-41 40.5m175 32.5c2.5-5.167 9.7-14.6 18.5-11 8.8 3.6 13.334 15.833 14.5 21.5m74.5-43c-2.833-4.5-10.8-12.501-20-8.5-9.2 4-16.166 10.333-18.5 13" stroke="url(#paint9_linear)"/><ellipse cx="389.21" cy="213.526" rx="3" ry="1.5" fill="#EECB12"/><ellipse cx="432.71" cy="199.026" rx="1.5" ry="1" fill="#F2D17B"/><ellipse cx="436.21" cy="188.026" rx="2" ry="1" fill="#F2D17B"/><ellipse cx="339.21" cy="158.026" rx="2" ry="1" fill="#FEC251"/><ellipse cx="335.21" cy="158.026" rx="2" ry="1" fill="#E39686"/><ellipse cx="491.71" cy="216.526" rx="2.5" ry="1.5" fill="#E39686"/><ellipse cx="578.71" cy="222.526" rx="2.5" ry="1.5" fill="#E39686"/><ellipse cx="541.71" cy="226.526" rx="2.5" ry="1.5" fill="#C061E6"/><ellipse cx="472.71" cy="254.526" rx="2.5" ry="1.5" fill="#DC9983"/><ellipse cx="505.71" cy="264.526" rx="2.5" ry="1.5" fill="#DC9983"/><ellipse cx="486.71" cy="216.526" rx="2.5" ry="1.5" fill="#B849F9"/><defs><linearGradient id="paint0_linear" x1="75.142" y1="506.541" x2="-151.547" y2="-86.358" gradientUnits="userSpaceOnUse"><stop offset=".008" stop-color="#561674"/><stop offset="1" stop-color="#4C28BC"/></linearGradient><linearGradient id="paint1_linear" x1="500.21" y1="194.943" x2="504.61" y2="453.564" gradientUnits="userSpaceOnUse"><stop stop-color="#360DCF"/><stop offset="1" stop-color="#A530D1"/></linearGradient><linearGradient id="paint2_linear" x1="445.474" y1="158.916" x2="450.129" y2="390.044" gradientUnits="userSpaceOnUse"><stop stop-color="#360DCF"/><stop offset="1" stop-color="#A530D1"/></linearGradient><linearGradient id="paint3_linear" x1="512.21" y1="132.943" x2="516.61" y2="391.564" gradientUnits="userSpaceOnUse"><stop stop-color="#360DCF"/><stop offset="1" stop-color="#A530D1"/></linearGradient><linearGradient id="paint4_linear" x1="512.054" y1="64.997" x2="408.131" y2="370.066" gradientUnits="userSpaceOnUse"><stop stop-color="#C2D3FF"/><stop offset=".904" stop-color="#FCFAFE"/></linearGradient><linearGradient id="paint5_linear" x1="391.71" y1="210.026" x2="446.21" y2="195.026" gradientUnits="userSpaceOnUse"><stop stop-color="#C751FF"/><stop offset="1" stop-color="#FFF851"/></linearGradient><linearGradient id="paint6_linear" x1="487.21" y1="200.026" x2="324.21" y2="161.526" gradientUnits="userSpaceOnUse"><stop stop-color="#B849F9"/><stop offset=".617" stop-color="#FF26AA"/><stop offset="1" stop-color="#FEEA39"/></linearGradient><linearGradient id="paint7_linear" x1="385.96" y1="115.678" x2="385.96" y2="187.526" gradientUnits="userSpaceOnUse"><stop stop-color="#BD47F4"/><stop offset="1" stop-color="#FFD232"/></linearGradient><linearGradient id="paint8_linear" x1="542.46" y1="174.026" x2="542.46" y2="245.874" gradientUnits="userSpaceOnUse"><stop stop-color="#BD47F4"/><stop offset="1" stop-color="#FFD232"/></linearGradient><linearGradient id="paint9_linear" x1="562.71" y1="215.026" x2="426.21" y2="222.026" gradientUnits="userSpaceOnUse"><stop stop-color="#B952FF"/><stop offset="1" stop-color="#EEBE41"/></linearGradient><filter id="filter0_dii" x=".768" y="137.718" width="876.436" height="588.131" filterUnits="userSpaceOnUse" color-interpolation-filters="sRGB"><feFlood flood-opacity="0" result="BackgroundImageFix"/><feColorMatrix in="SourceAlpha" values="0 0 0 0 0 0 0 0 0 0 0 0 0 0 0 0 0 0 127 0"/><feOffset dy="100"/><feGaussianBlur stdDeviation="40"/><feColorMatrix values="0 0 0 0 0.0825106 0 0 0 0 0.0145139 0 0 0 0 0.183333 0 0 0 1 0"/><feBlend in2="BackgroundImageFix" result="effect1_dropShadow"/><feBlend in="SourceGraphic" in2="effect1_dropShadow" result="shape"/><feColorMatrix in="SourceAlpha" values="0 0 0 0 0 0 0 0 0 0 0 0 0 0 0 0 0 0 127 0" result="hardAlpha"/><feOffset dy="2"/><feGaussianBlur stdDeviation="10"/><feComposite in2="hardAlpha" operator="arithmetic" k2="-1" k3="1"/><feColorMatrix values="0 0 0 0 0.0495434 0 0 0 0 0.00833334 0 0 0 0 0.166667 0 0 0 1 0"/><feBlend in2="shape" result="effect2_innerShadow"/><feColorMatrix in="SourceAlpha" values="0 0 0 0 0 0 0 0 0 0 0 0 0 0 0 0 0 0 127 0" result="hardAlpha"/><feOffset dx="-2" dy="-10"/><feGaussianBlur stdDeviation="10"/><feComposite in2="hardAlpha" operator="arithmetic" k2="-1" k3="1"/><feColorMatrix values="0 0 0 0 0.222606 0 0 0 0 0.111649 0 0 0 0 0.454167 0 0 0 1 0"/><feBlend in2="effect2_innerShadow" result="effect3_innerShadow"/></filter></defs></svg>