<svg width="296" height="275" fill="none" xmlns="http://www.w3.org/2000/svg"><mask id="a" maskUnits="userSpaceOnUse" x="0" y="0" width="296" height="275"><path fill="url(#paint0_linear)" fill-opacity=".3" d="M0 0h295.422v274.234H0z"/></mask><g mask="url(#a)" fill="#562FCD"><path d="M1.716 72.456L104.005.59h23.236L1.716 90.679V72.457zm1.23-42.413L44.77 2.356h23.563L2.946 46.537V30.043zm-10.015 90.504L200.425-24.74l8.785 12.546L1.716 133.093zm-11.192 52.604l288.11-203.958 8.784 12.546-288.11 203.958-8.784-12.546zm11.192 36.936L306.96-16.08l8.785 12.546L1.715 222.634l-8.784-12.547zm3.535 45.949L308.728 36.347l8.784 12.546L5.25 268.582l-8.784-12.546zm35.395 24.778L325.76 71.278l8.785 12.547L40.646 293.36l-8.785-12.546zm68.923-5.668l207.494-145.289 8.785 12.546-207.494 145.289-8.785-12.546zm71.227-1.438l207.494-145.289 8.785 12.547-207.494 145.288zm58.908 4.712l207.494-145.289 8.785 12.547-207.494 145.288z"/></g><defs><linearGradient id="paint0_linear" x1="127.013" y1="153.354" x2="111.877" y2="-32.427" gradientUnits="userSpaceOnUse"><stop stop-color="#5931D1"/><stop offset="1" stop-color="#110C2F"/></linearGradient></defs></svg>