<svg width="232" height="262" fill="none" xmlns="http://www.w3.org/2000/svg"><circle cx="137.441" cy="5.239" r="5.239" fill="#CBBBF8" fill-opacity=".2"/><circle cx="137.441" cy="47.155" r="5.239" fill="#CBBBF8" fill-opacity=".2"/><circle cx="182.5" cy="5.239" r="5.239" fill="#CBBBF8" fill-opacity=".2"/><circle cx="182.5" cy="47.155" r="5.239" fill="#CBBBF8" fill-opacity=".2"/><circle cx="224.416" cy="5.239" r="5.239" fill="#CBBBF8" fill-opacity=".2"/><circle cx="224.416" cy="47.155" r="5.239" fill="#CBBBF8" fill-opacity=".2"/><circle cx="138.489" cy="89.071" r="5.239" fill="#CBBBF8" fill-opacity=".2"/><circle cx="138.489" cy="130.987" r="5.239" fill="#CBBBF8" fill-opacity=".2"/><circle cx="183.549" cy="89.071" r="5.239" fill="#CBBBF8" fill-opacity=".2"/><circle cx="183.549" cy="130.987" r="5.239" fill="#CBBBF8" fill-opacity=".2"/><circle cx="225.464" cy="89.071" r="5.239" fill="#CBBBF8" fill-opacity=".2"/><circle cx="225.464" cy="130.987" r="5.239" fill="#CBBBF8" fill-opacity=".2"/><circle cx="138.738" cy="130.96" r="5.239" fill="#CBBBF8" fill-opacity=".2"/><circle cx="138.737" cy="172.876" r="5.239" fill="#CBBBF8" fill-opacity=".2"/><circle cx="183.796" cy="130.96" r="5.239" fill="#CBBBF8" fill-opacity=".2"/><circle cx="183.796" cy="172.876" r="5.239" fill="#CBBBF8" fill-opacity=".2"/><circle cx="225.712" cy="130.96" r="5.239" fill="#CBBBF8" fill-opacity=".2"/><circle cx="225.712" cy="172.876" r="5.239" fill="#CBBBF8" fill-opacity=".2"/><circle cx="139.785" cy="214.792" r="5.239" fill="#CBBBF8" fill-opacity=".2"/><circle cx="139.785" cy="256.708" r="5.239" fill="#CBBBF8" fill-opacity=".2"/><circle cx="184.844" cy="214.792" r="5.239" fill="#CBBBF8" fill-opacity=".2"/><circle cx="184.844" cy="256.708" r="5.239" fill="#CBBBF8" fill-opacity=".2"/><circle cx="226.76" cy="214.792" r="5.239" fill="#CBBBF8" fill-opacity=".2"/><circle cx="226.76" cy="256.708" r="5.239" fill="#CBBBF8" fill-opacity=".2"/><circle cx="5.24" cy="5.239" r="5.239" fill="#CBBBF8" fill-opacity=".2"/><circle cx="5.239" cy="47.155" r="5.239" fill="#CBBBF8" fill-opacity=".2"/><circle cx="50.299" cy="5.239" r="5.239" fill="#CBBBF8" fill-opacity=".2"/><circle cx="50.299" cy="47.155" r="5.239" fill="#CBBBF8" fill-opacity=".2"/><circle cx="92.215" cy="5.239" r="5.239" fill="#CBBBF8" fill-opacity=".2"/><circle cx="92.215" cy="47.155" r="5.239" fill="#CBBBF8" fill-opacity=".2"/><circle cx="6.287" cy="89.071" r="5.239" fill="#CBBBF8" fill-opacity=".2"/><circle cx="6.287" cy="130.987" r="5.239" fill="#CBBBF8" fill-opacity=".2"/><circle cx="51.347" cy="89.071" r="5.239" fill="#CBBBF8" fill-opacity=".2"/><circle cx="51.347" cy="130.987" r="5.239" fill="#CBBBF8" fill-opacity=".2"/><circle cx="93.263" cy="89.071" r="5.239" fill="#CBBBF8" fill-opacity=".2"/><circle cx="93.263" cy="130.987" r="5.239" fill="#CBBBF8" fill-opacity=".2"/><circle cx="6.536" cy="130.96" r="5.239" fill="#CBBBF8" fill-opacity=".2"/><circle cx="6.535" cy="172.876" r="5.239" fill="#CBBBF8" fill-opacity=".2"/><circle cx="51.595" cy="130.96" r="5.239" fill="#CBBBF8" fill-opacity=".2"/><circle cx="51.595" cy="172.876" r="5.239" fill="#CBBBF8" fill-opacity=".2"/><circle cx="93.511" cy="130.96" r="5.239" fill="#CBBBF8" fill-opacity=".2"/><circle cx="93.511" cy="172.876" r="5.239" fill="#CBBBF8" fill-opacity=".2"/><circle cx="7.584" cy="214.792" r="5.239" fill="#CBBBF8" fill-opacity=".2"/><circle cx="7.583" cy="256.708" r="5.239" fill="#CBBBF8" fill-opacity=".2"/><circle cx="52.643" cy="214.792" r="5.239" fill="#CBBBF8" fill-opacity=".2"/><circle cx="52.643" cy="256.708" r="5.239" fill="#CBBBF8" fill-opacity=".2"/><circle cx="94.559" cy="214.792" r="5.239" fill="#CBBBF8" fill-opacity=".2"/><circle cx="94.559" cy="256.708" r="5.239" fill="#CBBBF8" fill-opacity=".2"/></svg>