<svg width="95" height="95" fill="none" xmlns="http://www.w3.org/2000/svg"><path d="M91.524 67.638l-6.53-2.412-1.562-3.162-7.416-2.74-11.503 4.92-3.745-3.745H29.965l-7.017 4.38h-2.42v2.781h1.428v7.329h2.783V67.04l6.023-3.759h28.853l4.877 4.878-.19 5.414H53.583L53 73.5h-1l-1.198.073H40.143v2.783h24.29c4.525-1.957.748-.337 19.759-8.46l5.328 1.968 1.684 3.407-11.92 5.1-.784.13-1 .5-.778.467L47.662 91.9l-24.126-6.677h-3.008v2.782h2.63l24.701 6.837L95 74.673l-3.476-7.035zm-24.249 4.46v-5.092l-.643-.643 9.46-4.045 5.336 1.972.716 1.448-14.869 6.36z" fill="url(#paint0_linear)"/><path d="M0 78.6h2.782V60.466h10.79v29.45H2.782v-8.534H0V92.7h16.354V57.683H0V78.6z" fill="url(#paint1_linear)"/><path d="M47.41 11.288c-9.59 0-17.39 7.802-17.39 17.39 0 9.59 7.8 17.392 17.39 17.392S64.8 38.268 64.8 28.679c0-9.59-7.8-17.39-17.39-17.39zm0 32c-8.055 0-14.608-6.554-14.608-14.609s6.553-14.608 14.608-14.608 14.61 6.552 14.61 14.607-6.555 14.61-14.61 14.61z" fill="url(#paint2_linear)"/><path d="M47.41 57.2c15.639 0 28.276-12.543 28.517-28.076.115-7.432-2.615-14.508-7.687-19.925L66.21 11.1c9.464 10.11 9.239 25.938-.601 35.779-10.057 10.058-26.338 10.06-36.398 0-10.059-10.06-10.06-26.339 0-36.399C38.805.886 54.16.411 64.309 9.267l1.83-2.097C54.895-2.64 37.882-2.127 27.242 8.513c-11.12 11.12-11.12 29.213 0 40.333 5.387 5.386 12.55 8.353 20.168 8.353z" fill="url(#paint3_linear)"/><path d="M48.801 17.63H46.02v2.765h-3.446v9.675h6.892v4.11h-6.892v2.783h3.446v2.764h2.782v-2.764h3.447v-9.675h-6.893v-4.11h6.893v-2.783H48.8v-2.764z" fill="url(#paint4_linear)"/><defs><linearGradient id="paint0_linear" x1="57.764" y1="59.324" x2="57.764" y2="94.843" gradientUnits="userSpaceOnUse"><stop stop-color="#8151FF"/><stop offset="1" stop-color="#DF26FD"/></linearGradient><linearGradient id="paint1_linear" x1="8.177" y1="57.683" x2="8.177" y2="92.699" gradientUnits="userSpaceOnUse"><stop stop-color="#8151FF"/><stop offset="1" stop-color="#DF26FD"/></linearGradient><linearGradient id="paint2_linear" x1="47.41" y1="11.288" x2="47.41" y2="46.07" gradientUnits="userSpaceOnUse"><stop stop-color="#8151FF"/><stop offset="1" stop-color="#DF26FD"/></linearGradient><linearGradient id="paint3_linear" x1="47.417" y1=".157" x2="47.417" y2="57.199" gradientUnits="userSpaceOnUse"><stop stop-color="#8151FF"/><stop offset="1" stop-color="#DF26FD"/></linearGradient><linearGradient id="paint4_linear" x1="47.41" y1="17.631" x2="47.41" y2="39.727" gradientUnits="userSpaceOnUse"><stop stop-color="#8151FF"/><stop offset="1" stop-color="#DF26FD"/></linearGradient></defs></svg>