<svg width="80" height="80" fill="none" xmlns="http://www.w3.org/2000/svg"><g clip-path="url(#clip0)"><path d="M79.866 37.04c.047-.124.073-.255.08-.389 0-.14-.024-.28-.067-.415l-.103-.29a39.925 39.925 0 00-14.537-26.88c-.588-.478-1.202-.91-1.816-1.354-.03-.025-.047-.061-.08-.085-.033-.024-.06-.022-.088-.04A40.123 40.123 0 0039.953.076c-.344 0-.69 0-.948.027-4.46.086-8.87.935-13.044 2.51a12 12 0 00-19.38 9.477c.08 1.527.434 3.026 1.048 4.425a40.136 40.136 0 00-3.585 5.906c-.02.032-.031.067-.05.1-9.463 19.569-1.588 43.115 17.745 53.053 19.332 9.938 43.063 2.638 53.469-16.447a39.423 39.423 0 004.736-17.047c.042-.644.056-1.3.056-1.957 0-1.035-.053-2.06-.134-3.081zm-3.879-6.85c-.17-.15-.325-.324-.503-.463a17.592 17.592 0 00-5.828-2.911 12.546 12.546 0 00-5.853-.061 11.54 11.54 0 01-4.987.024c-3.191-.696-5.713-1.246-7.05-3.382-1.916-3.07-1.018-7.386 1.004-8.905a3.046 3.046 0 012.283-.487 8.533 8.533 0 004.139-.697 10.726 10.726 0 003.604-2.745c.252.195.519.37.766.572A37.325 37.325 0 0175.987 30.19zM18.595 2.745a9.36 9.36 0 019.344 9.344c0 3.993-5.997 13.135-9.344 17.769a83.898 83.898 0 01-8.235-13.684 11.126 11.126 0 01-1.11-4.085 9.355 9.355 0 019.345-9.344zM2.575 40.122c.006-2.487.257-4.969.75-7.407.143 1.855.384 3.506.6 4.938.828 5.474 1.61 10.633 5.644 15.352 1.686 1.988 4.511 5.311 8.879 5.803 4.368.491 9.837-2.021 11.417-2.804l.606-.305a5.872 5.872 0 012.79-.893 6.584 6.584 0 014.367 2.23c2.278 2.522 2.856 6.733 1.237 9.01a4.1 4.1 0 01-2.05 1.426 6.236 6.236 0 00-3.348 2.67 8.243 8.243 0 00-.577 6.674C15.31 73.409 2.603 58.029 2.576 40.122zm37.378 37.377c-1.29 0-2.579-.066-3.862-.199a4.717 4.717 0 01-.304-.438 5.68 5.68 0 01-.026-5.355 3.683 3.683 0 012.096-1.577 6.652 6.652 0 003.184-2.337c2.322-3.265 1.665-8.921-1.428-12.343a9.168 9.168 0 00-6.323-3.114h-.06a8.09 8.09 0 00-3.976 1.184l-.57.288c-2.917 1.438-7.067 2.86-9.94 2.537-3.314-.371-5.617-3.084-7.144-4.88-3.54-4.139-4.233-8.718-5.034-14.017a38.384 38.384 0 01-.101-13.73 37.443 37.443 0 012.418-4.191c.045.088.094.179.134.267.085.17.173.338.267.507l.4.759a50.98 50.98 0 00.709 1.274c.096.168.192.337.29.505a145.015 145.015 0 00.743 1.252c.158.267.317.517.476.774l.267.438c.197.317.393.624.59.935l.155.243c.244.379.486.748.724 1.109.091.133.179.267.268.4.146.22.293.441.436.652l.316.463c.115.17.231.339.343.5l.32.46.293.419c.095.134.201.287.3.425.099.137.166.233.245.344l.267.368.217.302.213.292.173.235.163.222.097.133.235.316a1.333 1.333 0 002.136 0c1.12-1.485 10.949-14.662 10.949-20.832 0-.39-.024-.777-.062-1.162-.011-.118-.03-.237-.045-.355a9.734 9.734 0 00-.133-.801 12.12 12.12 0 00-.298-1.188c-.033-.108-.061-.216-.096-.32-.12-.359-.255-.712-.409-1.057a3.854 3.854 0 00-.095-.193 12.82 12.82 0 00-.42-.821c-.066-.12-.14-.236-.212-.354a14.86 14.86 0 00-.4-.622 14.657 14.657 0 00-.254-.354c-.046-.059-.084-.121-.134-.179a36.453 36.453 0 018.579-1.778c-2.082 3.929-2.762 7.562-1.985 10.813a13.917 13.917 0 003.205 5.84c1.256 1.555 2.16 2.676 2.103 4.507-.115 3.87-4.486 7.093-6.14 8.31a22.986 22.986 0 01-7.169 3.463c-2.424.792-4.516 1.475-5.316 3.862a7.61 7.61 0 003.233 8.231 6.743 6.743 0 005.319.47 16.418 16.418 0 015.891-.282c2.536.36 4.723.668 5.76 2.12.615.868.583 1.765.464 3.41a16.171 16.171 0 00.692 6.918c.608 1.826 1.528 4.584 3.738 4.902.143.023.289.035.433.035 1.564 0 2.52-1.38 3.527-2.833a26.12 26.12 0 011.522-2.03c2.748 4.438 5.539 8.143 5.668 8.319a1.335 1.335 0 002.136 0 110.972 110.972 0 007.901-12.166 17.543 17.543 0 014.636 2.113 37.317 37.317 0 01-32.295 18.592zm24.916-36.326a9.32 9.32 0 013.117 6.958c0 .96-.39 2.864-2.241 6.478a99.493 99.493 0 01-7.103 11.286c-1.257-1.75-3.418-4.857-5.352-8.122a49.365 49.365 0 01-2.883-5.557 11.125 11.125 0 01-1.11-4.085 9.355 9.355 0 0110.204-9.305 9.261 9.261 0 015.368 2.347zm12.414.769a36.775 36.775 0 01-3.759 14.61 20.304 20.304 0 00-4.688-2.184 15.813 15.813 0 001.82-6.237 12.064 12.064 0 00-6.724-10.788l-.085-.038a13.034 13.034 0 00-.91-.4c-.213-.083-.433-.147-.651-.216-.134-.04-.254-.09-.383-.134a11.672 11.672 0 00-1.047-.243h-.017c-.213-.04-.43-.061-.646-.09a11.93 11.93 0 00-13.566 11.91 13.753 13.753 0 001.322 5.13 49.233 49.233 0 002.529 4.972 24.606 24.606 0 00-2.286 2.915 6.95 6.95 0 01-1.373 1.681c-.268-.04-.763-.61-1.603-3.108a13.696 13.696 0 01-.562-5.881 7.14 7.14 0 00-.952-5.152c-1.705-2.383-4.68-2.803-7.576-3.214a18.811 18.811 0 00-6.752.303c-1.707.327-2.5.449-3.407-.116a5.06 5.06 0 01-2.109-5.117c.357-1.068 1.425-1.454 3.604-2.17a25.624 25.624 0 007.931-3.853c1.945-1.427 7.075-5.213 7.23-10.378.085-2.827-1.329-4.57-2.695-6.256a11.546 11.546 0 01-2.68-4.772c-.71-2.974.169-6.462 2.552-10.371h.153A37.467 37.467 0 0160.611 8.99a8.02 8.02 0 01-2.52 1.883 5.976 5.976 0 01-2.957.463 5.599 5.599 0 00-3.968 1.02c-3.027 2.279-4.383 8.09-1.663 12.454 1.937 3.093 5.245 3.813 8.857 4.6 1.944.411 3.954.403 5.895-.025a10.07 10.07 0 014.737.015 14.873 14.873 0 014.846 2.426 10.93 10.93 0 013.315 4.733c.11 1.18.177 2.362.177 3.563 0 .597-.012 1.201-.052 1.82h.005z" fill="url(#paint0_linear)"/><path d="M18.595 16.094a5.34 5.34 0 100-10.68 5.34 5.34 0 000 10.68zm0-8.01a2.67 2.67 0 110 5.34 2.67 2.67 0 010-5.34z" fill="url(#paint1_linear)"/><path d="M53.302 46.796a5.34 5.34 0 1010.679 0 5.34 5.34 0 00-10.679 0zm8.01 0a2.67 2.67 0 11-5.34 0 2.67 2.67 0 015.34 0z" fill="url(#paint2_linear)"/></g><defs><linearGradient id="paint0_linear" x1="39.996" y1=".073" x2="39.996" y2="80.01" gradientUnits="userSpaceOnUse"><stop offset=".167" stop-color="#8151FF"/><stop offset="1" stop-color="#F12FF5"/></linearGradient><linearGradient id="paint1_linear" x1="18.595" y1="5.415" x2="18.595" y2="16.094" gradientUnits="userSpaceOnUse"><stop offset=".167" stop-color="#8151FF"/><stop offset="1" stop-color="#F12FF5"/></linearGradient><linearGradient id="paint2_linear" x1="58.642" y1="41.457" x2="58.642" y2="52.136" gradientUnits="userSpaceOnUse"><stop offset=".167" stop-color="#8151FF"/><stop offset="1" stop-color="#F12FF5"/></linearGradient><clipPath id="clip0"><path fill="#fff" d="M0 0h80v80H0z"/></clipPath></defs></svg>