<svg width="104" height="108" fill="none" xmlns="http://www.w3.org/2000/svg"><g clip-path="url(#clip0)"><path d="M103.989 63.047l-.764-15.544a6.725 6.725 0 00-1.699-4.158 6.251 6.251 0 00-3.88-2.045c-2.252-.28-4.399.71-5.731 2.457-2.917-.045-5.532 2.006-6.245 5.002l-.033.129c-2.598.289-4.84 2.242-5.49 4.963l-3.565 13.926-2.173 1.755.952-5.986c.056-.359.085-.719.085-1.07 0-2.214-1.063-4.267-2.844-5.49-2.88-1.978-6.692-1.23-8.68 1.703l-.725 1.07c-3.388 5-5.584 10.848-6.35 16.911l-1.169 9.247-2.496 11.78c-.175.825.305 1.647 1.09 1.867l25.016 7.005a1.486 1.486 0 001.187-.174c.356-.225.608-.591.698-1.013l2.439-11.507 6.567-8.81a1.623 1.623 0 00-.272-2.22 1.486 1.486 0 00-2.138.283l-6.157 8.26-22.747-6.37 1.003-7.936c.702-5.558 2.715-10.918 5.821-15.502l.725-1.07c1.032-1.523 3.012-1.912 4.507-.885a3.447 3.447 0 011.478 2.85c0 .183-.015.372-.044.559l-1.587 9.97a1.604 1.604 0 00.724 1.618c.539.334 1.22.29 1.714-.11L90.08 60.883a1.59 1.59 0 00.544-.872l3.066-12.986c.395-1.678 1.94-2.79 3.595-2.582.77.094 1.484.47 2.014 1.061.53.588.843 1.357.884 2.163l.763 15.541a5.84 5.84 0 01-1.141 3.775l-8.306 11.142a1.623 1.623 0 00.272 2.22 1.486 1.486 0 002.137-.283l8.306-11.141a9.098 9.098 0 001.775-5.874zM78.54 103.083l-22.07-6.18 1.856-8.758 22.07 6.18-1.856 8.758zm4.555-48.433l.007-.03a3.406 3.406 0 011.627-2.185L81.902 63.48l-1.346 1.087 2.539-9.917zm4.696 4.073l-1.915 1.547 2.742-10.712.008-.03a3.382 3.382 0 011.883-2.32l-2.718 11.515z" fill="url(#paint0_linear)"/><path d="M48.32 85.912l-1.167-9.241c-.766-6.063-2.962-11.91-6.351-16.912l-.726-1.07c-1.987-2.933-5.8-3.68-8.68-1.704-2.082 1.43-3.165 4.007-2.758 6.565l.952 5.982-2.172-1.754-3.566-13.927c-.65-2.721-2.89-4.674-5.49-4.963l-.032-.13c-.714-2.998-3.334-5.05-6.246-5.002-1.333-1.747-3.479-2.736-5.73-2.457-3.075.384-5.421 2.993-5.58 6.205L.012 63.046a9.097 9.097 0 001.774 5.874l18.603 24.958 2.438 11.504c.09.422.342.788.698 1.013a1.486 1.486 0 001.187.175l25.015-7.005c.786-.22 1.266-1.043 1.092-1.868L48.32 85.912zM20.897 54.621l.007.03 2.54 9.917-1.346-1.086-2.827-11.046a3.406 3.406 0 011.626 2.185zm-5.523-5.094l.007.03 2.743 10.715-1.916-1.548-2.717-11.516a3.387 3.387 0 011.883 2.319zm-12.32 13.68l.764-15.542c.082-1.669 1.3-3.025 2.899-3.224.132-.016.263-.024.394-.024 1.498 0 2.835 1.063 3.2 2.608l3.064 12.987c.082.346.274.653.544.872l16.873 13.628c.495.4 1.175.444 1.714.111.54-.333.827-.975.725-1.618l-1.587-9.97c-.211-1.33.351-2.667 1.433-3.41 1.496-1.027 3.476-.638 4.508.884l.725 1.071c3.106 4.584 5.12 9.945 5.821 15.502l1.003 7.937-5.282 1.478-17.467 4.891-18.19-24.405a5.849 5.849 0 01-1.141-3.776zm22.405 39.876l-1.856-8.758 22.07-6.18 1.856 8.758-22.07 6.18z" fill="url(#paint1_linear)"/><path d="M46.768 17.89c0 .113.005.227.014.34l.378 5.079c.195 2.622 2.333 4.658 4.865 4.635l.453-.004c2.532-.023 4.635-2.098 4.787-4.724l.293-5.085a5.155 5.155 0 00-1.322-3.76 4.768 4.768 0 00-3.55-1.563l-1.123.01a4.776 4.776 0 00-3.522 1.628 5.154 5.154 0 00-1.273 3.444zm5.95-1.335c.344-.003.664.138.901.397a1.288 1.288 0 01.336.956l-.293 5.084c-.038.668-.572 1.195-1.216 1.2l-.452.005c-.644.006-1.187-.511-1.236-1.178l-.378-5.078a1.295 1.295 0 01.32-.962c.232-.263.55-.41.894-.413l1.124-.01z" fill="url(#paint2_linear)"/><path d="M38.866 31.734c2.182-1.335 3.004-4.223 1.87-6.576l-2.194-4.555c-.597-1.24-1.675-2.178-2.956-2.57a4.697 4.697 0 00-3.826.489l-.968.592a5.036 5.036 0 00-2.267 3.238 5.19 5.19 0 00-.114 1.13c.008.992.299 1.972.846 2.8l2.773 4.203c1.432 2.17 4.263 2.823 6.446 1.488l.39-.239zm-3.86-3.368l-2.772-4.202a1.303 1.303 0 01-.186-.998c.074-.35.28-.642.576-.823l.968-.592c.296-.182.641-.226.972-.124.33.1.597.333.75.653l2.196 4.555c.085.178.127.369.129.557.003.443-.216.876-.605 1.114l-.39.238a1.205 1.205 0 01-1.637-.378z" fill="url(#paint3_linear)"/><path d="M65.836 20.355L63.72 24.95a5.143 5.143 0 00-.471 2.199c.015 1.745.905 3.432 2.452 4.341l.394.232c2.205 1.295 5.025.59 6.42-1.606l2.701-4.251a5.203 5.203 0 00.666-3.944c-.313-1.348-1.159-2.513-2.322-3.196l-.977-.574a4.694 4.694 0 00-3.834-.42c-1.274.416-2.335 1.372-2.912 2.623zm4.97 1.057l.977.575c.3.176.51.464.59.812a1.3 1.3 0 01-.169 1.002l-2.702 4.251a1.206 1.206 0 01-1.63.408l-.394-.231c-.56-.33-.782-1.06-.504-1.662l2.117-4.595a1.23 1.23 0 01.74-.667c.329-.107.675-.07.974.107z" fill="url(#paint4_linear)"/></g><defs><linearGradient id="paint0_linear" x1="78.573" y1="41.253" x2="78.573" y2="106.624" gradientUnits="userSpaceOnUse"><stop stop-color="#8151FF"/><stop offset="1" stop-color="#D821EF"/></linearGradient><linearGradient id="paint1_linear" x1="25.427" y1="41.252" x2="25.427" y2="106.624" gradientUnits="userSpaceOnUse"><stop stop-color="#8151FF"/><stop offset="1" stop-color="#D821EF"/></linearGradient><linearGradient id="paint2_linear" x1="57.587" y1="20.328" x2="46.789" y2="20.418" gradientUnits="userSpaceOnUse"><stop stop-color="#8151FF"/><stop offset="1" stop-color="#D821EF"/></linearGradient><linearGradient id="paint3_linear" x1="41.226" y1="25.191" x2="28.426" y2="25.299" gradientUnits="userSpaceOnUse"><stop stop-color="#8151FF"/><stop offset="1" stop-color="#D821EF"/></linearGradient><linearGradient id="paint4_linear" x1="76.029" y1="24.874" x2="63.23" y2="24.982" gradientUnits="userSpaceOnUse"><stop stop-color="#8151FF"/><stop offset="1" stop-color="#D821EF"/></linearGradient><clipPath id="clip0"><path fill="#fff" d="M0 0h104v108H0z"/></clipPath></defs></svg>