<svg width="140" height="82" viewBox="38 0 112 82" fill="none" xmlns="http://www.w3.org/2000/svg"><path d="M147.569 8.817l-7.526-2.426c-3.061-.987-6.014.277-6.595 2.825L130.967 20.1c-.581 2.547 1.429 5.413 4.49 6.4h.002l.901.29c3.657 1.187 6.316 4.35 6.361 7.567.05 4.909-1.291 9.533-3.906 13.468l-.49.738c-1.579 2.401-5.001 3.292-8.395 2.184-3.061-.987-6.014.277-6.595 2.824l-.001.002-2.481 10.881c-.578 2.548 1.432 5.41 4.492 6.4l7.527 2.427c3.224 1.049 6.565.985 9.28-.176a9.532 9.532 0 002.901-1.916c13.843-13.54 18.337-33.245 12.144-53.245-1.267-4.11-5.002-7.649-9.628-9.126zm-14.387 11.996l2.481-10.882c.292-1.254 1.563-2.02 3.095-1.866l-3.698 16.218c-1.388-.788-2.159-2.212-1.878-3.47zm-10.113 44.355l.004.004 2.481-10.882c.282-1.26 1.558-2.03 3.095-1.866l-3.701 16.213c-1.388-.787-2.159-2.212-1.879-3.47zm31.957-47.04c6.004 19.38 1.651 38.476-11.761 51.597-2.325 2.277-6.191 2.941-9.971 1.713l-6.152-1.986 3.762-16.502c3.934.804 7.624-.438 9.423-3.174l.491-.737c2.785-4.192 4.212-9.116 4.157-14.344-.058-3.989-3.238-7.933-7.724-9.58l3.747-16.436 6.15 1.983c3.786 1.208 6.841 4.104 7.878 7.466z" fill="url(#paint0_linear)"/><path d="M36.73 12.692l7.167-3.43c2.915-1.394 5.983-.559 6.852 1.867v.001l3.709 10.364c.868 2.426-.791 5.524-3.706 6.919h-.002l-.858.412c-3.482 1.673-5.748 5.153-5.422 8.325.515 4.837 2.375 9.2 5.416 12.711l.57.658c1.84 2.144 5.328 2.547 8.559.987 2.915-1.395 5.983-.56 6.852 1.866v.001l3.71 10.363c.864 2.427-.794 5.523-3.708 6.92l-7.169 3.43c-3.07 1.478-6.383 1.878-9.204 1.112a9.246 9.246 0 01-3.09-1.484c-15.26-11.406-21.978-30.174-18.154-50.71.782-4.219 4.069-8.218 8.477-10.312zm15.618 9.812l-3.709-10.365c-.433-1.193-1.779-1.771-3.277-1.407l5.527 15.445c1.283-.967 1.882-2.475 1.459-3.673zm15.117 42.242l-.002.005-3.71-10.364c-.424-1.201-1.775-1.782-3.277-1.408l5.53 15.441c1.283-.967 1.882-2.475 1.46-3.674zm-37.042-41.86c-3.708 19.9 2.8 38.087 17.584 49.14 2.562 1.92 6.464 2.038 10.063.305l5.86-2.805-5.625-15.717c-3.8 1.337-7.594.625-9.69-1.818l-.57-.657c-3.24-3.74-5.22-8.387-5.767-13.539-.402-3.933 2.29-8.253 6.54-10.496l-5.602-15.653-5.858 2.802c-3.606 1.714-6.296 4.986-6.935 8.438z" fill="url(#paint1_linear)"/><path d="M119.446 41.83l.679.733.757-.7-.723-.735-.713.701zm-4.496-6a1 1 0 10-1.426 1.403l1.426-1.403zm-29.075 7h33.571v-2h-33.57v2zm34.284-1.702l-5.209-5.298-1.426 1.403 5.209 5.297 1.426-1.402zm-5.243 6.252l5.209-4.817-1.358-1.468-5.209 4.816 1.358 1.468zM67.353 28.344l-.678.734-.758-.7.724-.735.712.7zm4.497-6a1 1 0 011.426 1.403l-1.426-1.402zm29.074 7h-33.57v-2h33.57v2zM66.64 27.643l5.21-5.298 1.426 1.402-5.21 5.298-1.425-1.402zm5.244 6.251l-5.21-4.816 1.358-1.468 5.21 4.816-1.358 1.468z" fill="#8151FF"/><defs><linearGradient id="paint0_linear" x1="119.133" y1="13.625" x2="144.234" y2="72.213" gradientUnits="userSpaceOnUse"><stop stop-color="#8151FF"/><stop offset="1" stop-color="#E818EC"/></linearGradient><linearGradient id="paint1_linear" x1="65.422" y1="13.486" x2="48.666" y2="74.972" gradientUnits="userSpaceOnUse"><stop stop-color="#8151FF"/><stop offset="1" stop-color="#E818EC"/></linearGradient></defs></svg>