<svg width="92" height="92" fill="none" xmlns="http://www.w3.org/2000/svg"><g clip-path="url(#clip0)"><path d="M19.055 47.435a1.348 1.348 0 101.906 1.906 3.112 3.112 0 014.396 0 1.343 1.343 0 001.906 0 1.348 1.348 0 000-1.906 5.81 5.81 0 00-8.208 0z" fill="url(#paint0_linear)"/><path d="M53.895 49.341a3.112 3.112 0 014.397 0 1.344 1.344 0 001.905 0 1.348 1.348 0 000-1.906 5.81 5.81 0 00-8.208 0 1.348 1.348 0 101.906 1.906z" fill="url(#paint1_linear)"/><path d="M39.626 48.829c-8.915 0-16.168 6.61-16.168 14.733 0 3.927 1.724 7.06 4.984 9.06 2.736 1.68 6.603 2.567 11.184 2.567 4.581 0 8.449-.888 11.184-2.566 3.26-2 4.984-5.134 4.984-9.06 0-8.125-7.253-14.734-16.168-14.734zm0 23.664c-5.031 0-13.472-1.16-13.472-8.93 0-6.638 6.043-12.039 13.472-12.039 7.429 0 13.473 5.4 13.473 12.038 0 7.771-8.441 8.931-13.473 8.931z" fill="url(#paint2_linear)"/><path d="M92 21.943c0-4.75-1.496-9.27-4.326-13.072a1.348 1.348 0 00-2.162 1.61 19.055 19.055 0 013.793 11.462c0 10.6-8.625 19.225-19.225 19.225-10.6 0-19.224-8.624-19.224-19.225 0-10.6 8.624-19.223 19.224-19.223 4.377 0 8.5 1.433 11.923 4.143a1.348 1.348 0 001.673-2.112C79.772 1.659 75.071.025 70.08.025c-11.158 0-20.395 8.38-21.748 19.177a32.379 32.379 0 00-3.669-.266c-.52-.008-1.041-.015-1.562-.018a1.347 1.347 0 00-1.357 1.347v4.31h-4.236v-4.31a1.348 1.348 0 00-1.357-1.347c-.52.004-1.041.01-1.563.018a31.893 31.893 0 00-15.504 4.278c-3.746-3.542-8.003-4.522-11.128-4.672-3.958-.19-6.942.87-7.067.915A1.35 1.35 0 000 20.725a28.99 28.99 0 005.75 17.429A31.724 31.724 0 003.1 50.79c-.02 4.954.111 9.957.389 14.872.097 1.716.416 3.41.95 5.036a1.348 1.348 0 002.56-.84 17.011 17.011 0 01-.819-4.348c-.274-4.86-.404-9.81-.384-14.709a29.076 29.076 0 011.909-10.303c.767.818 1.3 1.27 1.385 1.341a1.346 1.346 0 001.895-.171 1.35 1.35 0 00-.167-1.898c-.08-.066-7.677-6.58-8.104-18.037a18.164 18.164 0 015.209-.494c4.502.242 8.204 2.197 11.004 5.81a1.348 1.348 0 002.13-1.652c-.036-.046-.073-.09-.109-.137a29.202 29.202 0 0113.679-3.63c.062 0 .124 0 .186-.002v4.294c0 .744.603 1.348 1.348 1.348h6.93c.745 0 1.349-.604 1.349-1.348v-4.294l.184.003a29.69 29.69 0 013.538.265v.047c0 12.087 9.832 21.92 21.918 21.92.839 0 1.666-.049 2.482-.141.582 2.302.884 4.678.894 7.079a246 246 0 01-.384 14.709 17.044 17.044 0 01-16.17 16.087 338.626 338.626 0 01-34.553 0c-5.292-.27-10.075-2.922-13.12-7.275a1.347 1.347 0 10-2.209 1.545 19.966 19.966 0 003.686 3.986 27.485 27.485 0 00-1.314 7.259 4.674 4.674 0 001.83 3.908 4.657 4.657 0 004.234.738c2.843-.904 6.72-2.91 9.443-7.343a340.945 340.945 0 0029.457 0c2.72 4.434 6.598 6.44 9.44 7.343a4.654 4.654 0 004.232-.737 4.674 4.674 0 001.831-3.909 27.508 27.508 0 00-1.311-7.255 19.724 19.724 0 007.215-14.196c.278-4.945.408-9.948.389-14.871a32.065 32.065 0 00-.931-7.537C84.835 40.933 92 32.26 92 21.943zM14.64 89.189a1.933 1.933 0 01-1.782-.31c-.519-.398-.8-1-.773-1.654a24.6 24.6 0 01.941-5.731 19.671 19.671 0 008.714 2.765c-2.202 2.869-4.989 4.26-7.1 4.93zm52.526-1.963a1.951 1.951 0 01-.774 1.653 1.93 1.93 0 01-1.779.31c-2.11-.67-4.897-2.06-7.098-4.93a19.718 19.718 0 008.711-2.766c.543 1.9.86 3.822.94 5.733z" fill="url(#paint3_linear)"/><path d="M70.08 6.704c-8.402 0-15.239 6.836-15.239 15.24 0 8.402 6.837 15.238 15.24 15.238 8.402 0 15.238-6.836 15.238-15.239S78.483 6.704 70.08 6.704zm0 27.783c-6.916 0-12.543-5.627-12.543-12.544 0-6.917 5.627-12.544 12.543-12.544 6.917 0 12.544 5.627 12.544 12.544 0 6.917-5.627 12.544-12.544 12.544z" fill="url(#paint4_linear)"/><path d="M72.317 20.564c-1.724-.502-3.636-1.112-4.74-1.825-.518-.334-.514-.87-.466-1.16.101-.608.6-1.355 1.697-1.627 2.408-.597 3.958.48 4.045.541a1.348 1.348 0 001.62-2.154c-.072-.054-1.245-.924-3.159-1.186v-.729a1.348 1.348 0 00-2.695 0v.812c-.152.03-.304.062-.46.1-1.948.484-3.403 1.975-3.707 3.8-.26 1.556.377 3.037 1.662 3.867 1.125.727 2.704 1.35 5.45 2.148 1.428.416 2.163 1.259 2.016 2.312-.224 1.604-2.033 2.478-3.621 2.487-1.832.01-2.555-.057-4.105-.892a1.348 1.348 0 00-1.279 2.373c1.58.851 2.669 1.117 4.044 1.19v.84a1.348 1.348 0 102.695 0v-.936c2.887-.517 4.646-2.618 4.935-4.689.337-2.41-1.206-4.479-3.932-5.272z" fill="url(#paint5_linear)"/><path d="M34.389 55.888c-2.431 0-4.336 2.797-4.336 6.368 0 3.57 1.905 6.367 4.336 6.367 2.43 0 4.335-2.797 4.335-6.367s-1.904-6.368-4.335-6.368zm0 10.04c-.653 0-1.64-1.465-1.64-3.672 0-2.208.987-3.673 1.64-3.673.653 0 1.64 1.465 1.64 3.672 0 2.208-.987 3.673-1.64 3.673z" fill="url(#paint6_linear)"/><path d="M44.864 55.888c-2.431 0-4.336 2.797-4.336 6.368 0 3.57 1.905 6.367 4.336 6.367 2.43 0 4.335-2.797 4.335-6.367s-1.904-6.368-4.335-6.368zm0 10.04c-.653 0-1.64-1.465-1.64-3.672 0-2.208.987-3.673 1.64-3.673.653 0 1.64 1.465 1.64 3.672 0 2.208-.987 3.673-1.64 3.673z" fill="url(#paint7_linear)"/></g><defs><linearGradient id="paint0_linear" x1="23.159" y1="45.738" x2="23.159" y2="49.736" gradientUnits="userSpaceOnUse"><stop stop-color="#8151FF"/><stop offset="1" stop-color="#C51BE0"/></linearGradient><linearGradient id="paint1_linear" x1="56.093" y1="45.738" x2="56.093" y2="49.736" gradientUnits="userSpaceOnUse"><stop stop-color="#8151FF"/><stop offset="1" stop-color="#C51BE0"/></linearGradient><linearGradient id="paint2_linear" x1="39.626" y1="48.829" x2="39.626" y2="75.189" gradientUnits="userSpaceOnUse"><stop stop-color="#8151FF"/><stop offset="1" stop-color="#C51BE0"/></linearGradient><linearGradient id="paint3_linear" x1="46" y1=".025" x2="46" y2="91.976" gradientUnits="userSpaceOnUse"><stop stop-color="#8151FF"/><stop offset="1" stop-color="#C51BE0"/></linearGradient><linearGradient id="paint4_linear" x1="70.08" y1="6.704" x2="70.08" y2="37.182" gradientUnits="userSpaceOnUse"><stop stop-color="#8151FF"/><stop offset="1" stop-color="#C51BE0"/></linearGradient><linearGradient id="paint5_linear" x1="70.081" y1="11.076" x2="70.081" y2="32.81" gradientUnits="userSpaceOnUse"><stop stop-color="#8151FF"/><stop offset="1" stop-color="#C51BE0"/></linearGradient><linearGradient id="paint6_linear" x1="34.389" y1="55.888" x2="34.389" y2="68.623" gradientUnits="userSpaceOnUse"><stop stop-color="#8151FF"/><stop offset="1" stop-color="#C51BE0"/></linearGradient><linearGradient id="paint7_linear" x1="44.864" y1="55.888" x2="44.864" y2="68.623" gradientUnits="userSpaceOnUse"><stop stop-color="#8151FF"/><stop offset="1" stop-color="#C51BE0"/></linearGradient><clipPath id="clip0"><path fill="#fff" d="M0 0h92v92H0z"/></clipPath></defs></svg>