<svg width="80" height="91" viewBox="5 0 91 91" fill="none" xmlns="http://www.w3.org/2000/svg"><path d="M23.46 36.723a26.48 26.48 0 00-1.461 2.52l2.562 1.301a23.47 23.47 0 011.301-2.245l-2.403-1.576z" fill="url(#paint0_linear)"/><path d="M67.553 36.737l-2.404 1.574c.472.722.91 1.477 1.298 2.244l2.563-1.299a26.415 26.415 0 00-1.457-2.519z" fill="url(#paint1_linear)"/><path d="M44.077 24.849l-.024.001.155 2.87.04-.003a23.735 23.735 0 012.558 0l.155-2.869a26.563 26.563 0 00-2.884 0z" fill="url(#paint2_linear)"/><path d="M24.54 61.725l-2.564 1.296c.436.863.925 1.712 1.455 2.522l2.406-1.572a23.548 23.548 0 01-1.296-2.246z" fill="url(#paint3_linear)"/><path d="M66.427 61.783a23.59 23.59 0 01-1.304 2.244l2.402 1.579a26.514 26.514 0 001.463-2.519l-2.561-1.304z" fill="url(#paint4_linear)"/><path d="M46.844 76.08l-.06-1.494-.052.002c-.856.046-1.719.044-2.564-.003l-.16 2.87a26.433 26.433 0 002.896.002l.038-.002-.098-1.374z" fill="url(#paint5_linear)"/><path d="M65.674 33.01l-2.032-2.032-14.228 14.228a6.194 6.194 0 00-3.722-1.238 6.233 6.233 0 00-6.226 6.226 6.233 6.233 0 006.226 6.226 6.233 6.233 0 006.226-6.226c0-.996-.236-1.938-.654-2.774l14.41-14.41zM45.692 53.546a3.356 3.356 0 01-3.353-3.352 3.357 3.357 0 013.353-3.353 3.357 3.357 0 013.352 3.353 3.356 3.356 0 01-3.352 3.352z" fill="url(#paint6_linear)"/><path d="M75.53 25.2a39.83 39.83 0 00-1.796-1.934l2.419-2.418 2.032 2.033 3.046-3.049a7.13 7.13 0 002.106-5.08 7.13 7.13 0 00-2.105-5.08 7.26 7.26 0 00-1.338-1.055 7.156 7.156 0 00-8.82 1.055l-3.05 3.047 2.033 2.033-3.06 3.059a39.624 39.624 0 00-14.313-5.667v-1.703h3.832V0H34.484v10.441h3.832v1.703c-8.838 1.616-16.911 6.22-22.846 13.055a39.732 39.732 0 00-9.723 26.048C5.747 73.167 23.58 91 45.5 91s39.753-17.833 39.753-39.753A39.732 39.732 0 0075.53 25.2zm-2.424-13.496a4.29 4.29 0 016.095.001 4.274 4.274 0 011.262 3.047 4.276 4.276 0 01-1.264 3.048l-1.014 1.015-6.096-6.095 1.017-1.016zm-1.017 5.08l2.032 2.031-2.483 2.483-.042-.035c-.343-.298-.689-.59-1.04-.875l-.068-.054c-.36-.292-.724-.578-1.094-.856l2.695-2.695zM37.358 7.566V2.874h16.284v4.693H37.358zm8.142 80.56c-20.335 0-36.879-16.544-36.879-36.88 0-18.1 13.476-33.777 31.345-36.465l1.223-.184V10.44h8.621v4.156l1.224.185c17.87 2.688 31.345 18.365 31.345 36.465 0 20.335-16.544 36.88-36.879 36.88z" fill="url(#paint7_linear)"/><path d="M45.5 18.104c-18.222 0-33.047 14.825-33.047 33.047C12.453 69.374 27.278 84.2 45.5 84.2c18.222 0 33.047-14.825 33.047-33.047 0-18.223-14.825-33.048-33.047-33.048zm0 63.221c-16.638 0-30.174-13.536-30.174-30.174 0-16.637 13.536-30.173 30.174-30.173 16.638 0 30.174 13.536 30.174 30.173 0 16.638-13.536 30.174-30.174 30.174z" fill="url(#paint8_linear)"/><defs><linearGradient id="paint0_linear" x1="23.93" y1="36.723" x2="23.93" y2="40.544" gradientUnits="userSpaceOnUse"><stop offset=".255" stop-color="#8151FF"/><stop offset="1" stop-color="#FC1FE6"/></linearGradient><linearGradient id="paint1_linear" x1="67.08" y1="36.737" x2="67.08" y2="40.555" gradientUnits="userSpaceOnUse"><stop offset=".255" stop-color="#8151FF"/><stop offset="1" stop-color="#FC1FE6"/></linearGradient><linearGradient id="paint2_linear" x1="45.507" y1="24.809" x2="45.507" y2="27.72" gradientUnits="userSpaceOnUse"><stop offset=".255" stop-color="#8151FF"/><stop offset="1" stop-color="#FC1FE6"/></linearGradient><linearGradient id="paint3_linear" x1="23.906" y1="61.725" x2="23.906" y2="65.543" gradientUnits="userSpaceOnUse"><stop offset=".255" stop-color="#8151FF"/><stop offset="1" stop-color="#FC1FE6"/></linearGradient><linearGradient id="paint4_linear" x1="67.055" y1="61.783" x2="67.055" y2="65.606" gradientUnits="userSpaceOnUse"><stop offset=".255" stop-color="#8151FF"/><stop offset="1" stop-color="#FC1FE6"/></linearGradient><linearGradient id="paint5_linear" x1="45.475" y1="74.585" x2="45.475" y2="77.495" gradientUnits="userSpaceOnUse"><stop offset=".255" stop-color="#8151FF"/><stop offset="1" stop-color="#FC1FE6"/></linearGradient><linearGradient id="paint6_linear" x1="52.57" y1="30.978" x2="52.57" y2="56.42" gradientUnits="userSpaceOnUse"><stop offset=".255" stop-color="#8151FF"/><stop offset="1" stop-color="#FC1FE6"/></linearGradient><linearGradient id="paint7_linear" x1="45.5" y1="0" x2="45.5" y2="91" gradientUnits="userSpaceOnUse"><stop offset=".255" stop-color="#8151FF"/><stop offset="1" stop-color="#FC1FE6"/></linearGradient><linearGradient id="paint8_linear" x1="45.5" y1="18.104" x2="45.5" y2="84.199" gradientUnits="userSpaceOnUse"><stop offset=".255" stop-color="#8151FF"/><stop offset="1" stop-color="#FC1FE6"/></linearGradient></defs></svg>